G04 #@! TF.GenerationSoftware,KiCad,Pcbnew,5.1.6-c6e7f7d~87~ubuntu18.04.1*
G04 #@! TF.CreationDate,2020-08-30T23:35:35+09:00*
G04 #@! TF.ProjectId,csi-analogvideo-capture,6373692d-616e-4616-9c6f-67766964656f,rev?*
G04 #@! TF.SameCoordinates,PX55d4a80PY7270e00*
G04 #@! TF.FileFunction,Copper,L1,Top*
G04 #@! TF.FilePolarity,Positive*
%FSLAX46Y46*%
G04 Gerber Fmt 4.6, Leading zero omitted, Abs format (unit mm)*
G04 Created by KiCad (PCBNEW 5.1.6-c6e7f7d~87~ubuntu18.04.1) date 2020-08-30 23:35:35*
%MOMM*%
%LPD*%
G01*
G04 APERTURE LIST*
G04 #@! TA.AperFunction,SMDPad,CuDef*
%ADD10R,3.000000X1.600000*%
G04 #@! TD*
G04 #@! TA.AperFunction,SMDPad,CuDef*
%ADD11R,0.610000X2.000000*%
G04 #@! TD*
G04 #@! TA.AperFunction,SMDPad,CuDef*
%ADD12R,2.680000X3.600000*%
G04 #@! TD*
G04 #@! TA.AperFunction,SMDPad,CuDef*
%ADD13R,2.200000X1.200000*%
G04 #@! TD*
G04 #@! TA.AperFunction,SMDPad,CuDef*
%ADD14R,6.400000X5.800000*%
G04 #@! TD*
G04 #@! TA.AperFunction,SMDPad,CuDef*
%ADD15C,0.100000*%
G04 #@! TD*
G04 #@! TA.AperFunction,SMDPad,CuDef*
%ADD16R,2.100000X1.800000*%
G04 #@! TD*
G04 #@! TA.AperFunction,SMDPad,CuDef*
%ADD17C,1.500000*%
G04 #@! TD*
G04 #@! TA.AperFunction,ComponentPad*
%ADD18O,1.700000X2.500000*%
G04 #@! TD*
G04 #@! TA.AperFunction,ComponentPad*
%ADD19O,1.700000X2.520000*%
G04 #@! TD*
G04 #@! TA.AperFunction,SMDPad,CuDef*
%ADD20R,1.000000X1.000000*%
G04 #@! TD*
G04 #@! TA.AperFunction,ViaPad*
%ADD21C,0.800000*%
G04 #@! TD*
G04 #@! TA.AperFunction,ViaPad*
%ADD22C,2.100000*%
G04 #@! TD*
G04 #@! TA.AperFunction,Conductor*
%ADD23C,0.250000*%
G04 #@! TD*
G04 #@! TA.AperFunction,Conductor*
%ADD24C,0.600000*%
G04 #@! TD*
G04 #@! TA.AperFunction,Conductor*
%ADD25C,0.200000*%
G04 #@! TD*
G04 #@! TA.AperFunction,Conductor*
%ADD26C,0.254000*%
G04 #@! TD*
G04 APERTURE END LIST*
G04 #@! TA.AperFunction,SMDPad,CuDef*
G36*
G01*
X8948500Y41223000D02*
X8473500Y41223000D01*
G75*
G02*
X8236000Y41460500I0J237500D01*
G01*
X8236000Y42035500D01*
G75*
G02*
X8473500Y42273000I237500J0D01*
G01*
X8948500Y42273000D01*
G75*
G02*
X9186000Y42035500I0J-237500D01*
G01*
X9186000Y41460500D01*
G75*
G02*
X8948500Y41223000I-237500J0D01*
G01*
G37*
G04 #@! TD.AperFunction*
G04 #@! TA.AperFunction,SMDPad,CuDef*
G36*
G01*
X8948500Y42973000D02*
X8473500Y42973000D01*
G75*
G02*
X8236000Y43210500I0J237500D01*
G01*
X8236000Y43785500D01*
G75*
G02*
X8473500Y44023000I237500J0D01*
G01*
X8948500Y44023000D01*
G75*
G02*
X9186000Y43785500I0J-237500D01*
G01*
X9186000Y43210500D01*
G75*
G02*
X8948500Y42973000I-237500J0D01*
G01*
G37*
G04 #@! TD.AperFunction*
D10*
X12400000Y6500000D03*
X16800000Y6500000D03*
X16800000Y19900000D03*
X12400000Y19900000D03*
D11*
X26000000Y8800000D03*
X27000000Y8800000D03*
X28000000Y8800000D03*
X29000000Y8800000D03*
X30000000Y8800000D03*
X31000000Y8800000D03*
X32000000Y8800000D03*
X33000000Y8800000D03*
X34000000Y8800000D03*
X35000000Y8800000D03*
X36000000Y8800000D03*
X37000000Y8800000D03*
X38000000Y8800000D03*
X39000000Y8800000D03*
X40000000Y8800000D03*
D12*
X23010000Y6000000D03*
X42990000Y6000000D03*
D13*
X16800000Y10920000D03*
X16800000Y15480000D03*
D14*
X10500000Y13200000D03*
G04 #@! TA.AperFunction,SMDPad,CuDef*
D15*
G36*
X30488730Y22151472D02*
G01*
X30276598Y22363604D01*
X30842284Y22929290D01*
X31054416Y22717158D01*
X30488730Y22151472D01*
G37*
G04 #@! TD.AperFunction*
G04 #@! TA.AperFunction,SMDPad,CuDef*
G36*
X30842283Y21797918D02*
G01*
X30630151Y22010050D01*
X31195837Y22575736D01*
X31407969Y22363604D01*
X30842283Y21797918D01*
G37*
G04 #@! TD.AperFunction*
G04 #@! TA.AperFunction,SMDPad,CuDef*
G36*
X31195837Y21444365D02*
G01*
X30983705Y21656497D01*
X31549391Y22222183D01*
X31761523Y22010051D01*
X31195837Y21444365D01*
G37*
G04 #@! TD.AperFunction*
G04 #@! TA.AperFunction,SMDPad,CuDef*
G36*
X31549390Y21090811D02*
G01*
X31337258Y21302943D01*
X31902944Y21868629D01*
X32115076Y21656497D01*
X31549390Y21090811D01*
G37*
G04 #@! TD.AperFunction*
G04 #@! TA.AperFunction,SMDPad,CuDef*
G36*
X31902943Y20737258D02*
G01*
X31690811Y20949390D01*
X32256497Y21515076D01*
X32468629Y21302944D01*
X31902943Y20737258D01*
G37*
G04 #@! TD.AperFunction*
G04 #@! TA.AperFunction,SMDPad,CuDef*
G36*
X32256497Y20383705D02*
G01*
X32044365Y20595837D01*
X32610051Y21161523D01*
X32822183Y20949391D01*
X32256497Y20383705D01*
G37*
G04 #@! TD.AperFunction*
G04 #@! TA.AperFunction,SMDPad,CuDef*
G36*
X32610050Y20030151D02*
G01*
X32397918Y20242283D01*
X32963604Y20807969D01*
X33175736Y20595837D01*
X32610050Y20030151D01*
G37*
G04 #@! TD.AperFunction*
G04 #@! TA.AperFunction,SMDPad,CuDef*
G36*
X32963604Y19676598D02*
G01*
X32751472Y19888730D01*
X33317158Y20454416D01*
X33529290Y20242284D01*
X32963604Y19676598D01*
G37*
G04 #@! TD.AperFunction*
G04 #@! TA.AperFunction,SMDPad,CuDef*
G36*
X34448528Y19888730D02*
G01*
X34236396Y19676598D01*
X33670710Y20242284D01*
X33882842Y20454416D01*
X34448528Y19888730D01*
G37*
G04 #@! TD.AperFunction*
G04 #@! TA.AperFunction,SMDPad,CuDef*
G36*
X34802082Y20242283D02*
G01*
X34589950Y20030151D01*
X34024264Y20595837D01*
X34236396Y20807969D01*
X34802082Y20242283D01*
G37*
G04 #@! TD.AperFunction*
G04 #@! TA.AperFunction,SMDPad,CuDef*
G36*
X35155635Y20595837D02*
G01*
X34943503Y20383705D01*
X34377817Y20949391D01*
X34589949Y21161523D01*
X35155635Y20595837D01*
G37*
G04 #@! TD.AperFunction*
G04 #@! TA.AperFunction,SMDPad,CuDef*
G36*
X35509189Y20949390D02*
G01*
X35297057Y20737258D01*
X34731371Y21302944D01*
X34943503Y21515076D01*
X35509189Y20949390D01*
G37*
G04 #@! TD.AperFunction*
G04 #@! TA.AperFunction,SMDPad,CuDef*
G36*
X35862742Y21302943D02*
G01*
X35650610Y21090811D01*
X35084924Y21656497D01*
X35297056Y21868629D01*
X35862742Y21302943D01*
G37*
G04 #@! TD.AperFunction*
G04 #@! TA.AperFunction,SMDPad,CuDef*
G36*
X36216295Y21656497D02*
G01*
X36004163Y21444365D01*
X35438477Y22010051D01*
X35650609Y22222183D01*
X36216295Y21656497D01*
G37*
G04 #@! TD.AperFunction*
G04 #@! TA.AperFunction,SMDPad,CuDef*
G36*
X36569849Y22010050D02*
G01*
X36357717Y21797918D01*
X35792031Y22363604D01*
X36004163Y22575736D01*
X36569849Y22010050D01*
G37*
G04 #@! TD.AperFunction*
G04 #@! TA.AperFunction,SMDPad,CuDef*
G36*
X36923402Y22363604D02*
G01*
X36711270Y22151472D01*
X36145584Y22717158D01*
X36357716Y22929290D01*
X36923402Y22363604D01*
G37*
G04 #@! TD.AperFunction*
G04 #@! TA.AperFunction,SMDPad,CuDef*
G36*
X36357716Y23070710D02*
G01*
X36145584Y23282842D01*
X36711270Y23848528D01*
X36923402Y23636396D01*
X36357716Y23070710D01*
G37*
G04 #@! TD.AperFunction*
G04 #@! TA.AperFunction,SMDPad,CuDef*
G36*
X36004163Y23424264D02*
G01*
X35792031Y23636396D01*
X36357717Y24202082D01*
X36569849Y23989950D01*
X36004163Y23424264D01*
G37*
G04 #@! TD.AperFunction*
G04 #@! TA.AperFunction,SMDPad,CuDef*
G36*
X35650609Y23777817D02*
G01*
X35438477Y23989949D01*
X36004163Y24555635D01*
X36216295Y24343503D01*
X35650609Y23777817D01*
G37*
G04 #@! TD.AperFunction*
G04 #@! TA.AperFunction,SMDPad,CuDef*
G36*
X35297056Y24131371D02*
G01*
X35084924Y24343503D01*
X35650610Y24909189D01*
X35862742Y24697057D01*
X35297056Y24131371D01*
G37*
G04 #@! TD.AperFunction*
G04 #@! TA.AperFunction,SMDPad,CuDef*
G36*
X34943503Y24484924D02*
G01*
X34731371Y24697056D01*
X35297057Y25262742D01*
X35509189Y25050610D01*
X34943503Y24484924D01*
G37*
G04 #@! TD.AperFunction*
G04 #@! TA.AperFunction,SMDPad,CuDef*
G36*
X34589949Y24838477D02*
G01*
X34377817Y25050609D01*
X34943503Y25616295D01*
X35155635Y25404163D01*
X34589949Y24838477D01*
G37*
G04 #@! TD.AperFunction*
G04 #@! TA.AperFunction,SMDPad,CuDef*
G36*
X34236396Y25192031D02*
G01*
X34024264Y25404163D01*
X34589950Y25969849D01*
X34802082Y25757717D01*
X34236396Y25192031D01*
G37*
G04 #@! TD.AperFunction*
G04 #@! TA.AperFunction,SMDPad,CuDef*
G36*
X33882842Y25545584D02*
G01*
X33670710Y25757716D01*
X34236396Y26323402D01*
X34448528Y26111270D01*
X33882842Y25545584D01*
G37*
G04 #@! TD.AperFunction*
G04 #@! TA.AperFunction,SMDPad,CuDef*
G36*
X33529290Y25757716D02*
G01*
X33317158Y25545584D01*
X32751472Y26111270D01*
X32963604Y26323402D01*
X33529290Y25757716D01*
G37*
G04 #@! TD.AperFunction*
G04 #@! TA.AperFunction,SMDPad,CuDef*
G36*
X33175736Y25404163D02*
G01*
X32963604Y25192031D01*
X32397918Y25757717D01*
X32610050Y25969849D01*
X33175736Y25404163D01*
G37*
G04 #@! TD.AperFunction*
G04 #@! TA.AperFunction,SMDPad,CuDef*
G36*
X32822183Y25050609D02*
G01*
X32610051Y24838477D01*
X32044365Y25404163D01*
X32256497Y25616295D01*
X32822183Y25050609D01*
G37*
G04 #@! TD.AperFunction*
G04 #@! TA.AperFunction,SMDPad,CuDef*
G36*
X32468629Y24697056D02*
G01*
X32256497Y24484924D01*
X31690811Y25050610D01*
X31902943Y25262742D01*
X32468629Y24697056D01*
G37*
G04 #@! TD.AperFunction*
G04 #@! TA.AperFunction,SMDPad,CuDef*
G36*
X32115076Y24343503D02*
G01*
X31902944Y24131371D01*
X31337258Y24697057D01*
X31549390Y24909189D01*
X32115076Y24343503D01*
G37*
G04 #@! TD.AperFunction*
G04 #@! TA.AperFunction,SMDPad,CuDef*
G36*
X31761523Y23989949D02*
G01*
X31549391Y23777817D01*
X30983705Y24343503D01*
X31195837Y24555635D01*
X31761523Y23989949D01*
G37*
G04 #@! TD.AperFunction*
G04 #@! TA.AperFunction,SMDPad,CuDef*
G36*
X31407969Y23636396D02*
G01*
X31195837Y23424264D01*
X30630151Y23989950D01*
X30842283Y24202082D01*
X31407969Y23636396D01*
G37*
G04 #@! TD.AperFunction*
G04 #@! TA.AperFunction,SMDPad,CuDef*
G36*
X31054416Y23282842D02*
G01*
X30842284Y23070710D01*
X30276598Y23636396D01*
X30488730Y23848528D01*
X31054416Y23282842D01*
G37*
G04 #@! TD.AperFunction*
G04 #@! TA.AperFunction,SMDPad,CuDef*
G36*
X33600000Y20701903D02*
G01*
X31301903Y23000000D01*
X33600000Y25298097D01*
X35898097Y23000000D01*
X33600000Y20701903D01*
G37*
G04 #@! TD.AperFunction*
G04 #@! TA.AperFunction,SMDPad,CuDef*
G36*
G01*
X46286500Y39417000D02*
X45811500Y39417000D01*
G75*
G02*
X45574000Y39654500I0J237500D01*
G01*
X45574000Y40229500D01*
G75*
G02*
X45811500Y40467000I237500J0D01*
G01*
X46286500Y40467000D01*
G75*
G02*
X46524000Y40229500I0J-237500D01*
G01*
X46524000Y39654500D01*
G75*
G02*
X46286500Y39417000I-237500J0D01*
G01*
G37*
G04 #@! TD.AperFunction*
G04 #@! TA.AperFunction,SMDPad,CuDef*
G36*
G01*
X46286500Y37667000D02*
X45811500Y37667000D01*
G75*
G02*
X45574000Y37904500I0J237500D01*
G01*
X45574000Y38479500D01*
G75*
G02*
X45811500Y38717000I237500J0D01*
G01*
X46286500Y38717000D01*
G75*
G02*
X46524000Y38479500I0J-237500D01*
G01*
X46524000Y37904500D01*
G75*
G02*
X46286500Y37667000I-237500J0D01*
G01*
G37*
G04 #@! TD.AperFunction*
G04 #@! TA.AperFunction,SMDPad,CuDef*
G36*
G01*
X41206500Y37667000D02*
X40731500Y37667000D01*
G75*
G02*
X40494000Y37904500I0J237500D01*
G01*
X40494000Y38479500D01*
G75*
G02*
X40731500Y38717000I237500J0D01*
G01*
X41206500Y38717000D01*
G75*
G02*
X41444000Y38479500I0J-237500D01*
G01*
X41444000Y37904500D01*
G75*
G02*
X41206500Y37667000I-237500J0D01*
G01*
G37*
G04 #@! TD.AperFunction*
G04 #@! TA.AperFunction,SMDPad,CuDef*
G36*
G01*
X41206500Y39417000D02*
X40731500Y39417000D01*
G75*
G02*
X40494000Y39654500I0J237500D01*
G01*
X40494000Y40229500D01*
G75*
G02*
X40731500Y40467000I237500J0D01*
G01*
X41206500Y40467000D01*
G75*
G02*
X41444000Y40229500I0J-237500D01*
G01*
X41444000Y39654500D01*
G75*
G02*
X41206500Y39417000I-237500J0D01*
G01*
G37*
G04 #@! TD.AperFunction*
G04 #@! TA.AperFunction,SMDPad,CuDef*
G36*
G01*
X36126500Y37667000D02*
X35651500Y37667000D01*
G75*
G02*
X35414000Y37904500I0J237500D01*
G01*
X35414000Y38479500D01*
G75*
G02*
X35651500Y38717000I237500J0D01*
G01*
X36126500Y38717000D01*
G75*
G02*
X36364000Y38479500I0J-237500D01*
G01*
X36364000Y37904500D01*
G75*
G02*
X36126500Y37667000I-237500J0D01*
G01*
G37*
G04 #@! TD.AperFunction*
G04 #@! TA.AperFunction,SMDPad,CuDef*
G36*
G01*
X36126500Y39417000D02*
X35651500Y39417000D01*
G75*
G02*
X35414000Y39654500I0J237500D01*
G01*
X35414000Y40229500D01*
G75*
G02*
X35651500Y40467000I237500J0D01*
G01*
X36126500Y40467000D01*
G75*
G02*
X36364000Y40229500I0J-237500D01*
G01*
X36364000Y39654500D01*
G75*
G02*
X36126500Y39417000I-237500J0D01*
G01*
G37*
G04 #@! TD.AperFunction*
G04 #@! TA.AperFunction,SMDPad,CuDef*
G36*
G01*
X31046500Y39417000D02*
X30571500Y39417000D01*
G75*
G02*
X30334000Y39654500I0J237500D01*
G01*
X30334000Y40229500D01*
G75*
G02*
X30571500Y40467000I237500J0D01*
G01*
X31046500Y40467000D01*
G75*
G02*
X31284000Y40229500I0J-237500D01*
G01*
X31284000Y39654500D01*
G75*
G02*
X31046500Y39417000I-237500J0D01*
G01*
G37*
G04 #@! TD.AperFunction*
G04 #@! TA.AperFunction,SMDPad,CuDef*
G36*
G01*
X31046500Y37667000D02*
X30571500Y37667000D01*
G75*
G02*
X30334000Y37904500I0J237500D01*
G01*
X30334000Y38479500D01*
G75*
G02*
X30571500Y38717000I237500J0D01*
G01*
X31046500Y38717000D01*
G75*
G02*
X31284000Y38479500I0J-237500D01*
G01*
X31284000Y37904500D01*
G75*
G02*
X31046500Y37667000I-237500J0D01*
G01*
G37*
G04 #@! TD.AperFunction*
G04 #@! TA.AperFunction,SMDPad,CuDef*
G36*
G01*
X25966500Y39417000D02*
X25491500Y39417000D01*
G75*
G02*
X25254000Y39654500I0J237500D01*
G01*
X25254000Y40229500D01*
G75*
G02*
X25491500Y40467000I237500J0D01*
G01*
X25966500Y40467000D01*
G75*
G02*
X26204000Y40229500I0J-237500D01*
G01*
X26204000Y39654500D01*
G75*
G02*
X25966500Y39417000I-237500J0D01*
G01*
G37*
G04 #@! TD.AperFunction*
G04 #@! TA.AperFunction,SMDPad,CuDef*
G36*
G01*
X25966500Y37667000D02*
X25491500Y37667000D01*
G75*
G02*
X25254000Y37904500I0J237500D01*
G01*
X25254000Y38479500D01*
G75*
G02*
X25491500Y38717000I237500J0D01*
G01*
X25966500Y38717000D01*
G75*
G02*
X26204000Y38479500I0J-237500D01*
G01*
X26204000Y37904500D01*
G75*
G02*
X25966500Y37667000I-237500J0D01*
G01*
G37*
G04 #@! TD.AperFunction*
G04 #@! TA.AperFunction,SMDPad,CuDef*
G36*
G01*
X20886500Y37667000D02*
X20411500Y37667000D01*
G75*
G02*
X20174000Y37904500I0J237500D01*
G01*
X20174000Y38479500D01*
G75*
G02*
X20411500Y38717000I237500J0D01*
G01*
X20886500Y38717000D01*
G75*
G02*
X21124000Y38479500I0J-237500D01*
G01*
X21124000Y37904500D01*
G75*
G02*
X20886500Y37667000I-237500J0D01*
G01*
G37*
G04 #@! TD.AperFunction*
G04 #@! TA.AperFunction,SMDPad,CuDef*
G36*
G01*
X20886500Y39417000D02*
X20411500Y39417000D01*
G75*
G02*
X20174000Y39654500I0J237500D01*
G01*
X20174000Y40229500D01*
G75*
G02*
X20411500Y40467000I237500J0D01*
G01*
X20886500Y40467000D01*
G75*
G02*
X21124000Y40229500I0J-237500D01*
G01*
X21124000Y39654500D01*
G75*
G02*
X20886500Y39417000I-237500J0D01*
G01*
G37*
G04 #@! TD.AperFunction*
G04 #@! TA.AperFunction,SMDPad,CuDef*
G36*
G01*
X15806500Y37667000D02*
X15331500Y37667000D01*
G75*
G02*
X15094000Y37904500I0J237500D01*
G01*
X15094000Y38479500D01*
G75*
G02*
X15331500Y38717000I237500J0D01*
G01*
X15806500Y38717000D01*
G75*
G02*
X16044000Y38479500I0J-237500D01*
G01*
X16044000Y37904500D01*
G75*
G02*
X15806500Y37667000I-237500J0D01*
G01*
G37*
G04 #@! TD.AperFunction*
G04 #@! TA.AperFunction,SMDPad,CuDef*
G36*
G01*
X15806500Y39417000D02*
X15331500Y39417000D01*
G75*
G02*
X15094000Y39654500I0J237500D01*
G01*
X15094000Y40229500D01*
G75*
G02*
X15331500Y40467000I237500J0D01*
G01*
X15806500Y40467000D01*
G75*
G02*
X16044000Y40229500I0J-237500D01*
G01*
X16044000Y39654500D01*
G75*
G02*
X15806500Y39417000I-237500J0D01*
G01*
G37*
G04 #@! TD.AperFunction*
G04 #@! TA.AperFunction,SMDPad,CuDef*
G36*
G01*
X10726500Y37667000D02*
X10251500Y37667000D01*
G75*
G02*
X10014000Y37904500I0J237500D01*
G01*
X10014000Y38479500D01*
G75*
G02*
X10251500Y38717000I237500J0D01*
G01*
X10726500Y38717000D01*
G75*
G02*
X10964000Y38479500I0J-237500D01*
G01*
X10964000Y37904500D01*
G75*
G02*
X10726500Y37667000I-237500J0D01*
G01*
G37*
G04 #@! TD.AperFunction*
G04 #@! TA.AperFunction,SMDPad,CuDef*
G36*
G01*
X10726500Y39417000D02*
X10251500Y39417000D01*
G75*
G02*
X10014000Y39654500I0J237500D01*
G01*
X10014000Y40229500D01*
G75*
G02*
X10251500Y40467000I237500J0D01*
G01*
X10726500Y40467000D01*
G75*
G02*
X10964000Y40229500I0J-237500D01*
G01*
X10964000Y39654500D01*
G75*
G02*
X10726500Y39417000I-237500J0D01*
G01*
G37*
G04 #@! TD.AperFunction*
G04 #@! TA.AperFunction,SMDPad,CuDef*
G36*
G01*
X37820451Y27015425D02*
X37484575Y26679549D01*
G75*
G02*
X37148699Y26679549I-167938J167938D01*
G01*
X36742113Y27086135D01*
G75*
G02*
X36742113Y27422011I167938J167938D01*
G01*
X37077989Y27757887D01*
G75*
G02*
X37413865Y27757887I167938J-167938D01*
G01*
X37820451Y27351301D01*
G75*
G02*
X37820451Y27015425I-167938J-167938D01*
G01*
G37*
G04 #@! TD.AperFunction*
G04 #@! TA.AperFunction,SMDPad,CuDef*
G36*
G01*
X39057887Y25777989D02*
X38722011Y25442113D01*
G75*
G02*
X38386135Y25442113I-167938J167938D01*
G01*
X37979549Y25848699D01*
G75*
G02*
X37979549Y26184575I167938J167938D01*
G01*
X38315425Y26520451D01*
G75*
G02*
X38651301Y26520451I167938J-167938D01*
G01*
X39057887Y26113865D01*
G75*
G02*
X39057887Y25777989I-167938J-167938D01*
G01*
G37*
G04 #@! TD.AperFunction*
G04 #@! TA.AperFunction,SMDPad,CuDef*
G36*
G01*
X46286500Y42973000D02*
X45811500Y42973000D01*
G75*
G02*
X45574000Y43210500I0J237500D01*
G01*
X45574000Y43785500D01*
G75*
G02*
X45811500Y44023000I237500J0D01*
G01*
X46286500Y44023000D01*
G75*
G02*
X46524000Y43785500I0J-237500D01*
G01*
X46524000Y43210500D01*
G75*
G02*
X46286500Y42973000I-237500J0D01*
G01*
G37*
G04 #@! TD.AperFunction*
G04 #@! TA.AperFunction,SMDPad,CuDef*
G36*
G01*
X46286500Y41223000D02*
X45811500Y41223000D01*
G75*
G02*
X45574000Y41460500I0J237500D01*
G01*
X45574000Y42035500D01*
G75*
G02*
X45811500Y42273000I237500J0D01*
G01*
X46286500Y42273000D01*
G75*
G02*
X46524000Y42035500I0J-237500D01*
G01*
X46524000Y41460500D01*
G75*
G02*
X46286500Y41223000I-237500J0D01*
G01*
G37*
G04 #@! TD.AperFunction*
G04 #@! TA.AperFunction,SMDPad,CuDef*
G36*
G01*
X41206500Y41223000D02*
X40731500Y41223000D01*
G75*
G02*
X40494000Y41460500I0J237500D01*
G01*
X40494000Y42035500D01*
G75*
G02*
X40731500Y42273000I237500J0D01*
G01*
X41206500Y42273000D01*
G75*
G02*
X41444000Y42035500I0J-237500D01*
G01*
X41444000Y41460500D01*
G75*
G02*
X41206500Y41223000I-237500J0D01*
G01*
G37*
G04 #@! TD.AperFunction*
G04 #@! TA.AperFunction,SMDPad,CuDef*
G36*
G01*
X41206500Y42973000D02*
X40731500Y42973000D01*
G75*
G02*
X40494000Y43210500I0J237500D01*
G01*
X40494000Y43785500D01*
G75*
G02*
X40731500Y44023000I237500J0D01*
G01*
X41206500Y44023000D01*
G75*
G02*
X41444000Y43785500I0J-237500D01*
G01*
X41444000Y43210500D01*
G75*
G02*
X41206500Y42973000I-237500J0D01*
G01*
G37*
G04 #@! TD.AperFunction*
G04 #@! TA.AperFunction,SMDPad,CuDef*
G36*
G01*
X36126500Y41223000D02*
X35651500Y41223000D01*
G75*
G02*
X35414000Y41460500I0J237500D01*
G01*
X35414000Y42035500D01*
G75*
G02*
X35651500Y42273000I237500J0D01*
G01*
X36126500Y42273000D01*
G75*
G02*
X36364000Y42035500I0J-237500D01*
G01*
X36364000Y41460500D01*
G75*
G02*
X36126500Y41223000I-237500J0D01*
G01*
G37*
G04 #@! TD.AperFunction*
G04 #@! TA.AperFunction,SMDPad,CuDef*
G36*
G01*
X36126500Y42973000D02*
X35651500Y42973000D01*
G75*
G02*
X35414000Y43210500I0J237500D01*
G01*
X35414000Y43785500D01*
G75*
G02*
X35651500Y44023000I237500J0D01*
G01*
X36126500Y44023000D01*
G75*
G02*
X36364000Y43785500I0J-237500D01*
G01*
X36364000Y43210500D01*
G75*
G02*
X36126500Y42973000I-237500J0D01*
G01*
G37*
G04 #@! TD.AperFunction*
G04 #@! TA.AperFunction,SMDPad,CuDef*
G36*
G01*
X31046500Y42973000D02*
X30571500Y42973000D01*
G75*
G02*
X30334000Y43210500I0J237500D01*
G01*
X30334000Y43785500D01*
G75*
G02*
X30571500Y44023000I237500J0D01*
G01*
X31046500Y44023000D01*
G75*
G02*
X31284000Y43785500I0J-237500D01*
G01*
X31284000Y43210500D01*
G75*
G02*
X31046500Y42973000I-237500J0D01*
G01*
G37*
G04 #@! TD.AperFunction*
G04 #@! TA.AperFunction,SMDPad,CuDef*
G36*
G01*
X31046500Y41223000D02*
X30571500Y41223000D01*
G75*
G02*
X30334000Y41460500I0J237500D01*
G01*
X30334000Y42035500D01*
G75*
G02*
X30571500Y42273000I237500J0D01*
G01*
X31046500Y42273000D01*
G75*
G02*
X31284000Y42035500I0J-237500D01*
G01*
X31284000Y41460500D01*
G75*
G02*
X31046500Y41223000I-237500J0D01*
G01*
G37*
G04 #@! TD.AperFunction*
G04 #@! TA.AperFunction,SMDPad,CuDef*
G36*
G01*
X25966500Y41209000D02*
X25491500Y41209000D01*
G75*
G02*
X25254000Y41446500I0J237500D01*
G01*
X25254000Y42021500D01*
G75*
G02*
X25491500Y42259000I237500J0D01*
G01*
X25966500Y42259000D01*
G75*
G02*
X26204000Y42021500I0J-237500D01*
G01*
X26204000Y41446500D01*
G75*
G02*
X25966500Y41209000I-237500J0D01*
G01*
G37*
G04 #@! TD.AperFunction*
G04 #@! TA.AperFunction,SMDPad,CuDef*
G36*
G01*
X25966500Y42959000D02*
X25491500Y42959000D01*
G75*
G02*
X25254000Y43196500I0J237500D01*
G01*
X25254000Y43771500D01*
G75*
G02*
X25491500Y44009000I237500J0D01*
G01*
X25966500Y44009000D01*
G75*
G02*
X26204000Y43771500I0J-237500D01*
G01*
X26204000Y43196500D01*
G75*
G02*
X25966500Y42959000I-237500J0D01*
G01*
G37*
G04 #@! TD.AperFunction*
G04 #@! TA.AperFunction,SMDPad,CuDef*
G36*
G01*
X20886500Y42973000D02*
X20411500Y42973000D01*
G75*
G02*
X20174000Y43210500I0J237500D01*
G01*
X20174000Y43785500D01*
G75*
G02*
X20411500Y44023000I237500J0D01*
G01*
X20886500Y44023000D01*
G75*
G02*
X21124000Y43785500I0J-237500D01*
G01*
X21124000Y43210500D01*
G75*
G02*
X20886500Y42973000I-237500J0D01*
G01*
G37*
G04 #@! TD.AperFunction*
G04 #@! TA.AperFunction,SMDPad,CuDef*
G36*
G01*
X20886500Y41223000D02*
X20411500Y41223000D01*
G75*
G02*
X20174000Y41460500I0J237500D01*
G01*
X20174000Y42035500D01*
G75*
G02*
X20411500Y42273000I237500J0D01*
G01*
X20886500Y42273000D01*
G75*
G02*
X21124000Y42035500I0J-237500D01*
G01*
X21124000Y41460500D01*
G75*
G02*
X20886500Y41223000I-237500J0D01*
G01*
G37*
G04 #@! TD.AperFunction*
G04 #@! TA.AperFunction,SMDPad,CuDef*
G36*
G01*
X15806500Y41209000D02*
X15331500Y41209000D01*
G75*
G02*
X15094000Y41446500I0J237500D01*
G01*
X15094000Y42021500D01*
G75*
G02*
X15331500Y42259000I237500J0D01*
G01*
X15806500Y42259000D01*
G75*
G02*
X16044000Y42021500I0J-237500D01*
G01*
X16044000Y41446500D01*
G75*
G02*
X15806500Y41209000I-237500J0D01*
G01*
G37*
G04 #@! TD.AperFunction*
G04 #@! TA.AperFunction,SMDPad,CuDef*
G36*
G01*
X15806500Y42959000D02*
X15331500Y42959000D01*
G75*
G02*
X15094000Y43196500I0J237500D01*
G01*
X15094000Y43771500D01*
G75*
G02*
X15331500Y44009000I237500J0D01*
G01*
X15806500Y44009000D01*
G75*
G02*
X16044000Y43771500I0J-237500D01*
G01*
X16044000Y43196500D01*
G75*
G02*
X15806500Y42959000I-237500J0D01*
G01*
G37*
G04 #@! TD.AperFunction*
G04 #@! TA.AperFunction,SMDPad,CuDef*
G36*
G01*
X10726500Y42959000D02*
X10251500Y42959000D01*
G75*
G02*
X10014000Y43196500I0J237500D01*
G01*
X10014000Y43771500D01*
G75*
G02*
X10251500Y44009000I237500J0D01*
G01*
X10726500Y44009000D01*
G75*
G02*
X10964000Y43771500I0J-237500D01*
G01*
X10964000Y43196500D01*
G75*
G02*
X10726500Y42959000I-237500J0D01*
G01*
G37*
G04 #@! TD.AperFunction*
G04 #@! TA.AperFunction,SMDPad,CuDef*
G36*
G01*
X10726500Y41209000D02*
X10251500Y41209000D01*
G75*
G02*
X10014000Y41446500I0J237500D01*
G01*
X10014000Y42021500D01*
G75*
G02*
X10251500Y42259000I237500J0D01*
G01*
X10726500Y42259000D01*
G75*
G02*
X10964000Y42021500I0J-237500D01*
G01*
X10964000Y41446500D01*
G75*
G02*
X10726500Y41209000I-237500J0D01*
G01*
G37*
G04 #@! TD.AperFunction*
G04 #@! TA.AperFunction,SMDPad,CuDef*
G36*
G01*
X44033500Y44023000D02*
X44508500Y44023000D01*
G75*
G02*
X44746000Y43785500I0J-237500D01*
G01*
X44746000Y43210500D01*
G75*
G02*
X44508500Y42973000I-237500J0D01*
G01*
X44033500Y42973000D01*
G75*
G02*
X43796000Y43210500I0J237500D01*
G01*
X43796000Y43785500D01*
G75*
G02*
X44033500Y44023000I237500J0D01*
G01*
G37*
G04 #@! TD.AperFunction*
G04 #@! TA.AperFunction,SMDPad,CuDef*
G36*
G01*
X44033500Y42273000D02*
X44508500Y42273000D01*
G75*
G02*
X44746000Y42035500I0J-237500D01*
G01*
X44746000Y41460500D01*
G75*
G02*
X44508500Y41223000I-237500J0D01*
G01*
X44033500Y41223000D01*
G75*
G02*
X43796000Y41460500I0J237500D01*
G01*
X43796000Y42035500D01*
G75*
G02*
X44033500Y42273000I237500J0D01*
G01*
G37*
G04 #@! TD.AperFunction*
G04 #@! TA.AperFunction,SMDPad,CuDef*
G36*
G01*
X39428500Y42973000D02*
X38953500Y42973000D01*
G75*
G02*
X38716000Y43210500I0J237500D01*
G01*
X38716000Y43785500D01*
G75*
G02*
X38953500Y44023000I237500J0D01*
G01*
X39428500Y44023000D01*
G75*
G02*
X39666000Y43785500I0J-237500D01*
G01*
X39666000Y43210500D01*
G75*
G02*
X39428500Y42973000I-237500J0D01*
G01*
G37*
G04 #@! TD.AperFunction*
G04 #@! TA.AperFunction,SMDPad,CuDef*
G36*
G01*
X39428500Y41223000D02*
X38953500Y41223000D01*
G75*
G02*
X38716000Y41460500I0J237500D01*
G01*
X38716000Y42035500D01*
G75*
G02*
X38953500Y42273000I237500J0D01*
G01*
X39428500Y42273000D01*
G75*
G02*
X39666000Y42035500I0J-237500D01*
G01*
X39666000Y41460500D01*
G75*
G02*
X39428500Y41223000I-237500J0D01*
G01*
G37*
G04 #@! TD.AperFunction*
G04 #@! TA.AperFunction,SMDPad,CuDef*
G36*
G01*
X33873500Y42273000D02*
X34348500Y42273000D01*
G75*
G02*
X34586000Y42035500I0J-237500D01*
G01*
X34586000Y41460500D01*
G75*
G02*
X34348500Y41223000I-237500J0D01*
G01*
X33873500Y41223000D01*
G75*
G02*
X33636000Y41460500I0J237500D01*
G01*
X33636000Y42035500D01*
G75*
G02*
X33873500Y42273000I237500J0D01*
G01*
G37*
G04 #@! TD.AperFunction*
G04 #@! TA.AperFunction,SMDPad,CuDef*
G36*
G01*
X33873500Y44023000D02*
X34348500Y44023000D01*
G75*
G02*
X34586000Y43785500I0J-237500D01*
G01*
X34586000Y43210500D01*
G75*
G02*
X34348500Y42973000I-237500J0D01*
G01*
X33873500Y42973000D01*
G75*
G02*
X33636000Y43210500I0J237500D01*
G01*
X33636000Y43785500D01*
G75*
G02*
X33873500Y44023000I237500J0D01*
G01*
G37*
G04 #@! TD.AperFunction*
G04 #@! TA.AperFunction,SMDPad,CuDef*
G36*
G01*
X29268500Y41223000D02*
X28793500Y41223000D01*
G75*
G02*
X28556000Y41460500I0J237500D01*
G01*
X28556000Y42035500D01*
G75*
G02*
X28793500Y42273000I237500J0D01*
G01*
X29268500Y42273000D01*
G75*
G02*
X29506000Y42035500I0J-237500D01*
G01*
X29506000Y41460500D01*
G75*
G02*
X29268500Y41223000I-237500J0D01*
G01*
G37*
G04 #@! TD.AperFunction*
G04 #@! TA.AperFunction,SMDPad,CuDef*
G36*
G01*
X29268500Y42973000D02*
X28793500Y42973000D01*
G75*
G02*
X28556000Y43210500I0J237500D01*
G01*
X28556000Y43785500D01*
G75*
G02*
X28793500Y44023000I237500J0D01*
G01*
X29268500Y44023000D01*
G75*
G02*
X29506000Y43785500I0J-237500D01*
G01*
X29506000Y43210500D01*
G75*
G02*
X29268500Y42973000I-237500J0D01*
G01*
G37*
G04 #@! TD.AperFunction*
G04 #@! TA.AperFunction,SMDPad,CuDef*
G36*
G01*
X23713500Y42273000D02*
X24188500Y42273000D01*
G75*
G02*
X24426000Y42035500I0J-237500D01*
G01*
X24426000Y41460500D01*
G75*
G02*
X24188500Y41223000I-237500J0D01*
G01*
X23713500Y41223000D01*
G75*
G02*
X23476000Y41460500I0J237500D01*
G01*
X23476000Y42035500D01*
G75*
G02*
X23713500Y42273000I237500J0D01*
G01*
G37*
G04 #@! TD.AperFunction*
G04 #@! TA.AperFunction,SMDPad,CuDef*
G36*
G01*
X23713500Y44023000D02*
X24188500Y44023000D01*
G75*
G02*
X24426000Y43785500I0J-237500D01*
G01*
X24426000Y43210500D01*
G75*
G02*
X24188500Y42973000I-237500J0D01*
G01*
X23713500Y42973000D01*
G75*
G02*
X23476000Y43210500I0J237500D01*
G01*
X23476000Y43785500D01*
G75*
G02*
X23713500Y44023000I237500J0D01*
G01*
G37*
G04 #@! TD.AperFunction*
G04 #@! TA.AperFunction,SMDPad,CuDef*
G36*
G01*
X19108500Y41223000D02*
X18633500Y41223000D01*
G75*
G02*
X18396000Y41460500I0J237500D01*
G01*
X18396000Y42035500D01*
G75*
G02*
X18633500Y42273000I237500J0D01*
G01*
X19108500Y42273000D01*
G75*
G02*
X19346000Y42035500I0J-237500D01*
G01*
X19346000Y41460500D01*
G75*
G02*
X19108500Y41223000I-237500J0D01*
G01*
G37*
G04 #@! TD.AperFunction*
G04 #@! TA.AperFunction,SMDPad,CuDef*
G36*
G01*
X19108500Y42973000D02*
X18633500Y42973000D01*
G75*
G02*
X18396000Y43210500I0J237500D01*
G01*
X18396000Y43785500D01*
G75*
G02*
X18633500Y44023000I237500J0D01*
G01*
X19108500Y44023000D01*
G75*
G02*
X19346000Y43785500I0J-237500D01*
G01*
X19346000Y43210500D01*
G75*
G02*
X19108500Y42973000I-237500J0D01*
G01*
G37*
G04 #@! TD.AperFunction*
G04 #@! TA.AperFunction,SMDPad,CuDef*
G36*
G01*
X13553500Y42273000D02*
X14028500Y42273000D01*
G75*
G02*
X14266000Y42035500I0J-237500D01*
G01*
X14266000Y41460500D01*
G75*
G02*
X14028500Y41223000I-237500J0D01*
G01*
X13553500Y41223000D01*
G75*
G02*
X13316000Y41460500I0J237500D01*
G01*
X13316000Y42035500D01*
G75*
G02*
X13553500Y42273000I237500J0D01*
G01*
G37*
G04 #@! TD.AperFunction*
G04 #@! TA.AperFunction,SMDPad,CuDef*
G36*
G01*
X13553500Y44023000D02*
X14028500Y44023000D01*
G75*
G02*
X14266000Y43785500I0J-237500D01*
G01*
X14266000Y43210500D01*
G75*
G02*
X14028500Y42973000I-237500J0D01*
G01*
X13553500Y42973000D01*
G75*
G02*
X13316000Y43210500I0J237500D01*
G01*
X13316000Y43785500D01*
G75*
G02*
X13553500Y44023000I237500J0D01*
G01*
G37*
G04 #@! TD.AperFunction*
G04 #@! TA.AperFunction,SMDPad,CuDef*
G36*
G01*
X14350000Y29337500D02*
X14350000Y28862500D01*
G75*
G02*
X14112500Y28625000I-237500J0D01*
G01*
X13537500Y28625000D01*
G75*
G02*
X13300000Y28862500I0J237500D01*
G01*
X13300000Y29337500D01*
G75*
G02*
X13537500Y29575000I237500J0D01*
G01*
X14112500Y29575000D01*
G75*
G02*
X14350000Y29337500I0J-237500D01*
G01*
G37*
G04 #@! TD.AperFunction*
G04 #@! TA.AperFunction,SMDPad,CuDef*
G36*
G01*
X16100000Y29337500D02*
X16100000Y28862500D01*
G75*
G02*
X15862500Y28625000I-237500J0D01*
G01*
X15287500Y28625000D01*
G75*
G02*
X15050000Y28862500I0J237500D01*
G01*
X15050000Y29337500D01*
G75*
G02*
X15287500Y29575000I237500J0D01*
G01*
X15862500Y29575000D01*
G75*
G02*
X16100000Y29337500I0J-237500D01*
G01*
G37*
G04 #@! TD.AperFunction*
G04 #@! TA.AperFunction,SMDPad,CuDef*
G36*
G01*
X13300000Y27262500D02*
X13300000Y27737500D01*
G75*
G02*
X13537500Y27975000I237500J0D01*
G01*
X14112500Y27975000D01*
G75*
G02*
X14350000Y27737500I0J-237500D01*
G01*
X14350000Y27262500D01*
G75*
G02*
X14112500Y27025000I-237500J0D01*
G01*
X13537500Y27025000D01*
G75*
G02*
X13300000Y27262500I0J237500D01*
G01*
G37*
G04 #@! TD.AperFunction*
G04 #@! TA.AperFunction,SMDPad,CuDef*
G36*
G01*
X15050000Y27262500D02*
X15050000Y27737500D01*
G75*
G02*
X15287500Y27975000I237500J0D01*
G01*
X15862500Y27975000D01*
G75*
G02*
X16100000Y27737500I0J-237500D01*
G01*
X16100000Y27262500D01*
G75*
G02*
X15862500Y27025000I-237500J0D01*
G01*
X15287500Y27025000D01*
G75*
G02*
X15050000Y27262500I0J237500D01*
G01*
G37*
G04 #@! TD.AperFunction*
G04 #@! TA.AperFunction,SMDPad,CuDef*
G36*
G01*
X14350000Y30937500D02*
X14350000Y30462500D01*
G75*
G02*
X14112500Y30225000I-237500J0D01*
G01*
X13537500Y30225000D01*
G75*
G02*
X13300000Y30462500I0J237500D01*
G01*
X13300000Y30937500D01*
G75*
G02*
X13537500Y31175000I237500J0D01*
G01*
X14112500Y31175000D01*
G75*
G02*
X14350000Y30937500I0J-237500D01*
G01*
G37*
G04 #@! TD.AperFunction*
G04 #@! TA.AperFunction,SMDPad,CuDef*
G36*
G01*
X16100000Y30937500D02*
X16100000Y30462500D01*
G75*
G02*
X15862500Y30225000I-237500J0D01*
G01*
X15287500Y30225000D01*
G75*
G02*
X15050000Y30462500I0J237500D01*
G01*
X15050000Y30937500D01*
G75*
G02*
X15287500Y31175000I237500J0D01*
G01*
X15862500Y31175000D01*
G75*
G02*
X16100000Y30937500I0J-237500D01*
G01*
G37*
G04 #@! TD.AperFunction*
G04 #@! TA.AperFunction,SMDPad,CuDef*
G36*
G01*
X38762500Y20600000D02*
X39237500Y20600000D01*
G75*
G02*
X39475000Y20362500I0J-237500D01*
G01*
X39475000Y19787500D01*
G75*
G02*
X39237500Y19550000I-237500J0D01*
G01*
X38762500Y19550000D01*
G75*
G02*
X38525000Y19787500I0J237500D01*
G01*
X38525000Y20362500D01*
G75*
G02*
X38762500Y20600000I237500J0D01*
G01*
G37*
G04 #@! TD.AperFunction*
G04 #@! TA.AperFunction,SMDPad,CuDef*
G36*
G01*
X38762500Y18850000D02*
X39237500Y18850000D01*
G75*
G02*
X39475000Y18612500I0J-237500D01*
G01*
X39475000Y18037500D01*
G75*
G02*
X39237500Y17800000I-237500J0D01*
G01*
X38762500Y17800000D01*
G75*
G02*
X38525000Y18037500I0J237500D01*
G01*
X38525000Y18612500D01*
G75*
G02*
X38762500Y18850000I237500J0D01*
G01*
G37*
G04 #@! TD.AperFunction*
G04 #@! TA.AperFunction,SMDPad,CuDef*
G36*
G01*
X16100000Y34337500D02*
X16100000Y33862500D01*
G75*
G02*
X15862500Y33625000I-237500J0D01*
G01*
X15287500Y33625000D01*
G75*
G02*
X15050000Y33862500I0J237500D01*
G01*
X15050000Y34337500D01*
G75*
G02*
X15287500Y34575000I237500J0D01*
G01*
X15862500Y34575000D01*
G75*
G02*
X16100000Y34337500I0J-237500D01*
G01*
G37*
G04 #@! TD.AperFunction*
G04 #@! TA.AperFunction,SMDPad,CuDef*
G36*
G01*
X14350000Y34337500D02*
X14350000Y33862500D01*
G75*
G02*
X14112500Y33625000I-237500J0D01*
G01*
X13537500Y33625000D01*
G75*
G02*
X13300000Y33862500I0J237500D01*
G01*
X13300000Y34337500D01*
G75*
G02*
X13537500Y34575000I237500J0D01*
G01*
X14112500Y34575000D01*
G75*
G02*
X14350000Y34337500I0J-237500D01*
G01*
G37*
G04 #@! TD.AperFunction*
D16*
X41200000Y18050000D03*
X44100000Y18050000D03*
X44100000Y20350000D03*
X41200000Y20350000D03*
G04 #@! TA.AperFunction,SMDPad,CuDef*
G36*
G01*
X41250000Y15812500D02*
X41250000Y16287500D01*
G75*
G02*
X41487500Y16525000I237500J0D01*
G01*
X42062500Y16525000D01*
G75*
G02*
X42300000Y16287500I0J-237500D01*
G01*
X42300000Y15812500D01*
G75*
G02*
X42062500Y15575000I-237500J0D01*
G01*
X41487500Y15575000D01*
G75*
G02*
X41250000Y15812500I0J237500D01*
G01*
G37*
G04 #@! TD.AperFunction*
G04 #@! TA.AperFunction,SMDPad,CuDef*
G36*
G01*
X43000000Y15812500D02*
X43000000Y16287500D01*
G75*
G02*
X43237500Y16525000I237500J0D01*
G01*
X43812500Y16525000D01*
G75*
G02*
X44050000Y16287500I0J-237500D01*
G01*
X44050000Y15812500D01*
G75*
G02*
X43812500Y15575000I-237500J0D01*
G01*
X43237500Y15575000D01*
G75*
G02*
X43000000Y15812500I0J237500D01*
G01*
G37*
G04 #@! TD.AperFunction*
G04 #@! TA.AperFunction,SMDPad,CuDef*
G36*
G01*
X46062500Y18850000D02*
X46537500Y18850000D01*
G75*
G02*
X46775000Y18612500I0J-237500D01*
G01*
X46775000Y18037500D01*
G75*
G02*
X46537500Y17800000I-237500J0D01*
G01*
X46062500Y17800000D01*
G75*
G02*
X45825000Y18037500I0J237500D01*
G01*
X45825000Y18612500D01*
G75*
G02*
X46062500Y18850000I237500J0D01*
G01*
G37*
G04 #@! TD.AperFunction*
G04 #@! TA.AperFunction,SMDPad,CuDef*
G36*
G01*
X46062500Y20600000D02*
X46537500Y20600000D01*
G75*
G02*
X46775000Y20362500I0J-237500D01*
G01*
X46775000Y19787500D01*
G75*
G02*
X46537500Y19550000I-237500J0D01*
G01*
X46062500Y19550000D01*
G75*
G02*
X45825000Y19787500I0J237500D01*
G01*
X45825000Y20362500D01*
G75*
G02*
X46062500Y20600000I237500J0D01*
G01*
G37*
G04 #@! TD.AperFunction*
G04 #@! TA.AperFunction,SMDPad,CuDef*
G36*
G01*
X16100000Y35937500D02*
X16100000Y35462500D01*
G75*
G02*
X15862500Y35225000I-237500J0D01*
G01*
X15287500Y35225000D01*
G75*
G02*
X15050000Y35462500I0J237500D01*
G01*
X15050000Y35937500D01*
G75*
G02*
X15287500Y36175000I237500J0D01*
G01*
X15862500Y36175000D01*
G75*
G02*
X16100000Y35937500I0J-237500D01*
G01*
G37*
G04 #@! TD.AperFunction*
G04 #@! TA.AperFunction,SMDPad,CuDef*
G36*
G01*
X14350000Y35937500D02*
X14350000Y35462500D01*
G75*
G02*
X14112500Y35225000I-237500J0D01*
G01*
X13537500Y35225000D01*
G75*
G02*
X13300000Y35462500I0J237500D01*
G01*
X13300000Y35937500D01*
G75*
G02*
X13537500Y36175000I237500J0D01*
G01*
X14112500Y36175000D01*
G75*
G02*
X14350000Y35937500I0J-237500D01*
G01*
G37*
G04 #@! TD.AperFunction*
D17*
X4000000Y36000000D03*
X4000000Y39000000D03*
X32100000Y17900000D03*
D18*
X46430000Y46800000D03*
X43890000Y46800000D03*
X41350000Y46800000D03*
X38810000Y46800000D03*
X36270000Y46800000D03*
X33730000Y46800000D03*
X31190000Y46800000D03*
X28650000Y46800000D03*
X26110000Y46800000D03*
X23570000Y46800000D03*
D19*
X21030000Y46800000D03*
D18*
X18490000Y46800000D03*
X15950000Y46800000D03*
X13410000Y46800000D03*
X10870000Y46800000D03*
X8330000Y46800000D03*
D20*
X13450000Y32400000D03*
X15950000Y32400000D03*
D21*
X31100008Y19499992D03*
X22900000Y21975000D03*
D22*
X33600000Y23000000D03*
D21*
X14600000Y17600000D03*
X14600000Y8800000D03*
X40000000Y10800000D03*
X33200000Y28000000D03*
X29500000Y22000000D03*
X18600000Y13300000D03*
X22400000Y14000000D03*
X46400000Y16000000D03*
X14800000Y25800000D03*
X12000000Y35700000D03*
X24300000Y31500000D03*
X29500000Y31500000D03*
X33200000Y31500000D03*
X39500000Y31500000D03*
X37100000Y31500000D03*
X43000000Y31500000D03*
X34000000Y10800000D03*
X31000000Y10800000D03*
X37000000Y10800000D03*
X12250000Y29100000D03*
X19700000Y16800000D03*
X29800000Y20999962D03*
X29800000Y19900000D03*
X36200000Y26400000D03*
X37650000Y19950000D03*
X37800000Y23100000D03*
X37325000Y18200000D03*
X33025000Y11800000D03*
X36275000Y18200000D03*
X31975000Y11800000D03*
X29199982Y24000000D03*
X24600005Y27000005D03*
X21400000Y18600000D03*
D23*
X44271000Y41748000D02*
X46049000Y41748000D01*
X46049000Y41748000D02*
X46049000Y39942000D01*
X39191000Y41748000D02*
X40969000Y41748000D01*
X40969000Y41748000D02*
X40969000Y39942000D01*
X34111000Y41748000D02*
X35889000Y41748000D01*
X35889000Y41748000D02*
X35889000Y39942000D01*
X29031000Y41748000D02*
X30809000Y41748000D01*
X30809000Y39942000D02*
X30809000Y41748000D01*
X25715000Y41748000D02*
X25729000Y41734000D01*
X23951000Y41748000D02*
X25715000Y41748000D01*
X25729000Y41734000D02*
X25729000Y39942000D01*
X18871000Y41748000D02*
X20649000Y41748000D01*
X20649000Y41748000D02*
X20649000Y39942000D01*
X15555000Y41748000D02*
X15569000Y41734000D01*
X13791000Y41748000D02*
X15555000Y41748000D01*
X15569000Y41734000D02*
X15569000Y39942000D01*
X10475000Y41748000D02*
X10489000Y41734000D01*
X8711000Y41748000D02*
X10475000Y41748000D01*
X10489000Y41734000D02*
X10489000Y39942000D01*
X43950000Y18050000D02*
X44100000Y18050000D01*
X42800000Y19200000D02*
X43950000Y18050000D01*
X42500000Y19200000D02*
X42800000Y19200000D01*
X41200000Y20350000D02*
X41350000Y20350000D01*
X41350000Y20350000D02*
X42500000Y19200000D01*
X33246447Y23000000D02*
X33600000Y23000000D01*
X31726167Y21479720D02*
X33246447Y23000000D01*
X44375000Y18325000D02*
X44100000Y18050000D01*
X46300000Y18325000D02*
X44375000Y18325000D01*
X43525000Y17475000D02*
X44100000Y18050000D01*
X43525000Y16050000D02*
X43525000Y17475000D01*
X31100008Y20065677D02*
X31100008Y19499992D01*
X31726167Y21479720D02*
X31100008Y20853561D01*
X31100008Y20853561D02*
X31100008Y20065677D01*
X30665507Y22540381D02*
X30125126Y22000000D01*
X30125126Y22000000D02*
X29500000Y22000000D01*
X33493934Y22893934D02*
X33600000Y23000000D01*
X30665507Y22540381D02*
X31019060Y22893934D01*
X31019060Y22893934D02*
X33493934Y22893934D01*
D24*
X31100008Y19499992D02*
X31100008Y19100008D01*
D23*
X41775000Y17475000D02*
X41200000Y18050000D01*
X41775000Y16050000D02*
X41775000Y17475000D01*
X40925000Y18325000D02*
X41200000Y18050000D01*
X39000000Y18325000D02*
X40925000Y18325000D01*
X44375000Y20075000D02*
X44100000Y20350000D01*
X46300000Y20075000D02*
X44375000Y20075000D01*
X43950000Y20350000D02*
X44100000Y20350000D01*
X42700000Y21600000D02*
X43950000Y20350000D01*
X36180940Y22186827D02*
X36767767Y21600000D01*
X36767767Y21600000D02*
X42700000Y21600000D01*
X15575000Y35700000D02*
X15575000Y34100000D01*
X32079720Y24873833D02*
X29900000Y27053553D01*
X29900000Y27053553D02*
X29753553Y27200000D01*
X26753553Y30200000D02*
X29900000Y27053553D01*
X15575000Y30700000D02*
X16075000Y30200000D01*
X16075000Y30200000D02*
X26753553Y30200000D01*
X15575000Y32025000D02*
X15950000Y32400000D01*
X15575000Y30700000D02*
X15575000Y32025000D01*
X15575000Y32775000D02*
X15950000Y32400000D01*
X15575000Y34100000D02*
X15575000Y32775000D01*
D24*
X16800000Y10920000D02*
X16800000Y6500000D01*
X13825000Y30700000D02*
X13825000Y29100000D01*
X13825000Y29100000D02*
X12250000Y29100000D01*
X19550000Y6500000D02*
X16800000Y6500000D01*
X20550000Y7500000D02*
X19550000Y6500000D01*
X20550000Y11800000D02*
X20550000Y15950000D01*
X20550000Y15950000D02*
X19700000Y16800000D01*
X13450000Y32400000D02*
X13450000Y31750000D01*
X13825000Y31375000D02*
X13825000Y30700000D01*
X13450000Y31750000D02*
X13825000Y31375000D01*
X25500000Y11500000D02*
X20550000Y11500000D01*
X26000000Y11000000D02*
X25500000Y11500000D01*
X26000000Y8800000D02*
X26000000Y11000000D01*
X20550000Y11800000D02*
X20550000Y11500000D01*
X20550000Y11500000D02*
X20550000Y7500000D01*
D23*
X37641942Y25981282D02*
X38518718Y25981282D01*
X35827386Y24166726D02*
X37641942Y25981282D01*
X37281282Y26327729D02*
X37281282Y27218718D01*
X35473833Y24520280D02*
X37281282Y26327729D01*
X29832195Y20999962D02*
X29800000Y20999962D01*
X31019060Y22186827D02*
X29832195Y20999962D01*
X31019061Y21479721D02*
X31372614Y21833274D01*
X30550000Y21010660D02*
X31019061Y21479721D01*
X29800000Y19900000D02*
X30550000Y20650000D01*
X30550000Y20650000D02*
X30550000Y21010660D01*
X35120280Y24873833D02*
X36200000Y25953553D01*
X36200000Y25953553D02*
X36200000Y26400000D01*
X35827386Y21126167D02*
X35473833Y21479720D01*
X36403553Y20550000D02*
X35827386Y21126167D01*
X37650000Y19950000D02*
X37050000Y20550000D01*
X37050000Y20550000D02*
X36403553Y20550000D01*
X36534493Y22540381D02*
X36974874Y22100000D01*
X36974874Y22100000D02*
X37600000Y22100000D01*
X37600000Y22100000D02*
X37800000Y22300000D01*
X37800000Y22300000D02*
X37800000Y23100000D01*
D25*
X34413173Y20383706D02*
X34413173Y20419060D01*
X35225000Y17193200D02*
X35225000Y19571879D01*
X36921877Y15496322D02*
X35225000Y17193200D01*
X36921876Y14840688D02*
X36921877Y15496322D01*
X36296122Y13932090D02*
X36296123Y14214932D01*
X36578966Y13932089D02*
X36296122Y13932090D01*
X37232017Y14585140D02*
X36578966Y13932089D01*
X37373437Y14726563D02*
X37232017Y14585140D01*
X38299714Y15652836D02*
X37373439Y14726562D01*
X38955349Y15652836D02*
X38299714Y15652836D01*
X39218953Y15389232D02*
X38955349Y15652836D01*
X36296123Y14214932D02*
X36921876Y14840688D01*
X37373439Y14726562D02*
X37373437Y14726563D01*
X35225000Y19571879D02*
X34413173Y20383706D01*
X38725000Y13693200D02*
X38593199Y13825000D01*
X39218953Y14733597D02*
X39218953Y15389232D01*
X38725000Y10575001D02*
X38725000Y13693200D01*
X38593199Y14107842D02*
X39218953Y14733597D01*
X38593199Y13825000D02*
X38593199Y14107842D01*
X39000000Y8800000D02*
X39000000Y10300001D01*
X39000000Y10300001D02*
X38725000Y10575001D01*
X38768952Y14919993D02*
X38768952Y15202835D01*
X36471876Y15309926D02*
X36335430Y15446370D01*
X38768952Y15202835D02*
X38486109Y15202835D01*
X36335430Y15446370D02*
X34775000Y17006800D01*
X38275000Y13506801D02*
X38143199Y13638603D01*
X38275000Y12900000D02*
X38275000Y13506801D01*
X38069302Y12337500D02*
X37956802Y12450000D01*
X38143199Y13638603D02*
X38143199Y14294238D01*
X38000000Y10300001D02*
X38275000Y10575001D01*
X38162500Y12787500D02*
X38275000Y12900000D01*
X38143199Y14294238D02*
X38768952Y14919993D01*
X36471876Y15027084D02*
X36471876Y15309926D01*
X37956802Y12675000D02*
X38069302Y12787500D01*
X37956802Y12450000D02*
X37956802Y12675000D01*
X37550213Y14266944D02*
X36765360Y13482091D01*
X38275000Y10575001D02*
X38275000Y12225000D01*
X38162500Y12337500D02*
X38069302Y12337500D01*
X38275000Y12225000D02*
X38162500Y12337500D01*
X38486109Y15202835D02*
X37691636Y14408364D01*
X34775000Y17006800D02*
X34775000Y19385481D01*
X37691636Y14408364D02*
X37550213Y14266944D01*
X36765360Y13482091D02*
X36109726Y13482090D01*
X38069302Y12787500D02*
X38162500Y12787500D01*
X38000000Y8800000D02*
X38000000Y10300001D01*
X36109726Y13482090D02*
X35846122Y13745694D01*
X35846122Y13745694D02*
X35846123Y14401328D01*
X35846123Y14401328D02*
X35977925Y14533130D01*
X35977925Y14533130D02*
X36471876Y15027084D01*
X34775000Y19385481D02*
X34094974Y20065507D01*
X34094974Y20065507D02*
X34059619Y20065507D01*
X35120280Y21126167D02*
X35120280Y21090813D01*
X35120280Y21090813D02*
X37025000Y19186093D01*
X37025000Y19186093D02*
X37025000Y18500000D01*
X37025000Y18500000D02*
X37325000Y18200000D01*
X32725000Y11500000D02*
X32725000Y10575001D01*
X33025000Y11800000D02*
X32725000Y11500000D01*
X32725000Y10575001D02*
X33000000Y10300001D01*
X33000000Y10300001D02*
X33000000Y8800000D01*
X36575000Y18500000D02*
X36275000Y18200000D01*
X34802081Y20772614D02*
X36575000Y18999695D01*
X34766726Y20772614D02*
X34802081Y20772614D01*
X36575000Y18999695D02*
X36575000Y18500000D01*
X32000000Y10300001D02*
X32000000Y8800000D01*
X32275000Y10575001D02*
X32000000Y10300001D01*
X31975000Y11800000D02*
X32275000Y11500000D01*
X32275000Y11500000D02*
X32275000Y10575001D01*
D23*
X29982233Y24850000D02*
X31019060Y23813173D01*
X28900000Y24850000D02*
X29982233Y24850000D01*
X28000000Y8800000D02*
X28000000Y23950000D01*
X28000000Y23950000D02*
X28900000Y24850000D01*
X27000000Y11000000D02*
X27000000Y8800000D01*
X27450000Y11450000D02*
X27000000Y11000000D01*
X27450000Y24150000D02*
X27450000Y11450000D01*
X28650000Y25350000D02*
X27450000Y24150000D01*
X31372614Y24166726D02*
X30189340Y25350000D01*
X30189340Y25350000D02*
X28650000Y25350000D01*
X15575000Y27500000D02*
X15575000Y29100000D01*
X31372614Y24873833D02*
X31726167Y24520280D01*
X26646447Y29600000D02*
X31372614Y24873833D01*
X15575000Y29100000D02*
X16075000Y29600000D01*
X16075000Y29600000D02*
X26646447Y29600000D01*
X30665507Y23459619D02*
X30125126Y24000000D01*
X30125126Y24000000D02*
X29765667Y24000000D01*
X29765667Y24000000D02*
X29199982Y24000000D01*
X39000000Y20850000D02*
X39000000Y20075000D01*
X38700000Y21150000D02*
X39000000Y20850000D01*
X35827386Y21833274D02*
X36510660Y21150000D01*
X36510660Y21150000D02*
X38700000Y21150000D01*
X10660660Y34100000D02*
X13825000Y34100000D01*
X9600000Y34100000D02*
X10660660Y34100000D01*
X7700000Y36000000D02*
X9600000Y34100000D01*
X4000000Y36000000D02*
X7700000Y36000000D01*
X32100000Y19625004D02*
X32100000Y18960660D01*
X32079720Y21126167D02*
X31726167Y20772614D01*
X32100000Y18960660D02*
X32100000Y17900000D01*
X31726167Y20772614D02*
X31726167Y19998837D01*
X31726167Y19998837D02*
X32100000Y19625004D01*
D24*
X16800000Y15480000D02*
X16800000Y19900000D01*
X24034320Y27000005D02*
X24600005Y27000005D01*
X21700005Y27000005D02*
X24034320Y27000005D01*
X16800000Y19900000D02*
X16800000Y22100000D01*
X16800000Y22100000D02*
X21700005Y27000005D01*
X20200000Y18600000D02*
X21400000Y18600000D01*
X16800000Y19900000D02*
X18900000Y19900000D01*
X18900000Y19900000D02*
X20200000Y18600000D01*
D23*
X37374874Y24300000D02*
X36534493Y23459619D01*
X38900000Y24300000D02*
X37374874Y24300000D01*
X41450000Y26850000D02*
X38900000Y24300000D01*
X41450000Y36850000D02*
X41450000Y26850000D01*
X46049000Y38192000D02*
X42792000Y38192000D01*
X42792000Y38192000D02*
X41450000Y36850000D01*
X40969000Y37567000D02*
X40969000Y38192000D01*
X40969000Y27069000D02*
X40969000Y37567000D01*
X38700000Y24800000D02*
X40969000Y27069000D01*
X36180940Y23813173D02*
X37167767Y24800000D01*
X37167767Y24800000D02*
X38700000Y24800000D01*
X35500000Y25960660D02*
X34766726Y25227386D01*
X35500000Y34900000D02*
X35500000Y25960660D01*
X35889000Y38192000D02*
X35889000Y35289000D01*
X35889000Y35289000D02*
X35500000Y34900000D01*
X35000000Y26167767D02*
X34413173Y25580940D01*
X35000000Y34900000D02*
X35000000Y26167767D01*
X30809000Y38192000D02*
X31708000Y38192000D01*
X31708000Y38192000D02*
X35000000Y34900000D01*
X34500000Y26374874D02*
X34059619Y25934493D01*
X34500000Y34700000D02*
X34500000Y26374874D01*
X32100000Y37100000D02*
X34500000Y34700000D01*
X29600000Y37100000D02*
X32100000Y37100000D01*
X25729000Y38192000D02*
X28508000Y38192000D01*
X28508000Y38192000D02*
X29600000Y37100000D01*
X24374874Y34700000D02*
X33140381Y25934493D01*
X23100000Y34700000D02*
X24374874Y34700000D01*
X20649000Y38192000D02*
X20649000Y37151000D01*
X20649000Y37151000D02*
X23100000Y34700000D01*
X16508000Y38192000D02*
X15569000Y38192000D01*
X17300000Y37400000D02*
X16508000Y38192000D01*
X19600000Y37400000D02*
X17300000Y37400000D01*
X22800000Y34200000D02*
X19600000Y37400000D01*
X32786827Y25580940D02*
X24167767Y34200000D01*
X24167767Y34200000D02*
X22800000Y34200000D01*
X23960660Y33700000D02*
X32433274Y25227386D01*
X22600000Y33700000D02*
X23960660Y33700000D01*
X19400000Y36900000D02*
X22600000Y33700000D01*
X14900000Y36900000D02*
X19400000Y36900000D01*
X10489000Y38192000D02*
X13608000Y38192000D01*
X13608000Y38192000D02*
X14900000Y36900000D01*
X46430000Y43879000D02*
X46049000Y43498000D01*
X46430000Y46800000D02*
X46430000Y43879000D01*
X41350000Y43879000D02*
X40969000Y43498000D01*
X41350000Y46800000D02*
X41350000Y43879000D01*
X36270000Y43879000D02*
X35889000Y43498000D01*
X36270000Y46800000D02*
X36270000Y43879000D01*
X31190000Y43879000D02*
X30809000Y43498000D01*
X31190000Y46800000D02*
X31190000Y43879000D01*
X26110000Y43865000D02*
X25729000Y43484000D01*
X26110000Y46800000D02*
X26110000Y43865000D01*
X21030000Y43879000D02*
X20649000Y43498000D01*
X21030000Y46800000D02*
X21030000Y43879000D01*
X15950000Y43865000D02*
X15569000Y43484000D01*
X15950000Y46800000D02*
X15950000Y43865000D01*
X10870000Y43865000D02*
X10489000Y43484000D01*
X10870000Y46800000D02*
X10870000Y43865000D01*
D26*
G36*
X54290001Y710000D02*
G01*
X710000Y710000D01*
X710000Y5220128D01*
X2765000Y5220128D01*
X2765000Y4779872D01*
X2850890Y4348075D01*
X3019369Y3941331D01*
X3263962Y3575271D01*
X3575271Y3263962D01*
X3941331Y3019369D01*
X4348075Y2850890D01*
X4779872Y2765000D01*
X5220128Y2765000D01*
X5651925Y2850890D01*
X6058669Y3019369D01*
X6424729Y3263962D01*
X6736038Y3575271D01*
X6980631Y3941331D01*
X7087775Y4200000D01*
X21031928Y4200000D01*
X21044188Y4075518D01*
X21080498Y3955820D01*
X21139463Y3845506D01*
X21218815Y3748815D01*
X21315506Y3669463D01*
X21425820Y3610498D01*
X21545518Y3574188D01*
X21670000Y3561928D01*
X22724250Y3565000D01*
X22883000Y3723750D01*
X22883000Y5873000D01*
X23137000Y5873000D01*
X23137000Y3723750D01*
X23295750Y3565000D01*
X24350000Y3561928D01*
X24474482Y3574188D01*
X24594180Y3610498D01*
X24704494Y3669463D01*
X24801185Y3748815D01*
X24880537Y3845506D01*
X24939502Y3955820D01*
X24975812Y4075518D01*
X24988072Y4200000D01*
X41011928Y4200000D01*
X41024188Y4075518D01*
X41060498Y3955820D01*
X41119463Y3845506D01*
X41198815Y3748815D01*
X41295506Y3669463D01*
X41405820Y3610498D01*
X41525518Y3574188D01*
X41650000Y3561928D01*
X42704250Y3565000D01*
X42863000Y3723750D01*
X42863000Y5873000D01*
X43117000Y5873000D01*
X43117000Y3723750D01*
X43275750Y3565000D01*
X44330000Y3561928D01*
X44454482Y3574188D01*
X44574180Y3610498D01*
X44684494Y3669463D01*
X44781185Y3748815D01*
X44860537Y3845506D01*
X44919502Y3955820D01*
X44955812Y4075518D01*
X44968072Y4200000D01*
X44966003Y5220128D01*
X47765000Y5220128D01*
X47765000Y4779872D01*
X47850890Y4348075D01*
X48019369Y3941331D01*
X48263962Y3575271D01*
X48575271Y3263962D01*
X48941331Y3019369D01*
X49348075Y2850890D01*
X49779872Y2765000D01*
X50220128Y2765000D01*
X50651925Y2850890D01*
X51058669Y3019369D01*
X51424729Y3263962D01*
X51736038Y3575271D01*
X51980631Y3941331D01*
X52149110Y4348075D01*
X52235000Y4779872D01*
X52235000Y5220128D01*
X52149110Y5651925D01*
X51980631Y6058669D01*
X51736038Y6424729D01*
X51424729Y6736038D01*
X51058669Y6980631D01*
X50651925Y7149110D01*
X50220128Y7235000D01*
X49779872Y7235000D01*
X49348075Y7149110D01*
X48941331Y6980631D01*
X48575271Y6736038D01*
X48263962Y6424729D01*
X48019369Y6058669D01*
X47850890Y5651925D01*
X47765000Y5220128D01*
X44966003Y5220128D01*
X44965000Y5714250D01*
X44806250Y5873000D01*
X43117000Y5873000D01*
X42863000Y5873000D01*
X41173750Y5873000D01*
X41015000Y5714250D01*
X41011928Y4200000D01*
X24988072Y4200000D01*
X24985000Y5714250D01*
X24826250Y5873000D01*
X23137000Y5873000D01*
X22883000Y5873000D01*
X21193750Y5873000D01*
X21035000Y5714250D01*
X21031928Y4200000D01*
X7087775Y4200000D01*
X7149110Y4348075D01*
X7235000Y4779872D01*
X7235000Y5220128D01*
X7149110Y5651925D01*
X7129197Y5700000D01*
X10261928Y5700000D01*
X10274188Y5575518D01*
X10310498Y5455820D01*
X10369463Y5345506D01*
X10448815Y5248815D01*
X10545506Y5169463D01*
X10655820Y5110498D01*
X10775518Y5074188D01*
X10900000Y5061928D01*
X12114250Y5065000D01*
X12273000Y5223750D01*
X12273000Y6373000D01*
X12527000Y6373000D01*
X12527000Y5223750D01*
X12685750Y5065000D01*
X13900000Y5061928D01*
X14024482Y5074188D01*
X14144180Y5110498D01*
X14254494Y5169463D01*
X14351185Y5248815D01*
X14430537Y5345506D01*
X14489502Y5455820D01*
X14525812Y5575518D01*
X14538072Y5700000D01*
X14535000Y6214250D01*
X14376250Y6373000D01*
X12527000Y6373000D01*
X12273000Y6373000D01*
X10423750Y6373000D01*
X10265000Y6214250D01*
X10261928Y5700000D01*
X7129197Y5700000D01*
X6980631Y6058669D01*
X6736038Y6424729D01*
X6424729Y6736038D01*
X6058669Y6980631D01*
X5651925Y7149110D01*
X5220128Y7235000D01*
X4779872Y7235000D01*
X4348075Y7149110D01*
X3941331Y6980631D01*
X3575271Y6736038D01*
X3263962Y6424729D01*
X3019369Y6058669D01*
X2850890Y5651925D01*
X2765000Y5220128D01*
X710000Y5220128D01*
X710000Y7300000D01*
X10261928Y7300000D01*
X10265000Y6785750D01*
X10423750Y6627000D01*
X12273000Y6627000D01*
X12273000Y7776250D01*
X12527000Y7776250D01*
X12527000Y6627000D01*
X14376250Y6627000D01*
X14535000Y6785750D01*
X14538072Y7300000D01*
X14525812Y7424482D01*
X14489502Y7544180D01*
X14430537Y7654494D01*
X14351185Y7751185D01*
X14254494Y7830537D01*
X14144180Y7889502D01*
X14024482Y7925812D01*
X13900000Y7938072D01*
X12685750Y7935000D01*
X12527000Y7776250D01*
X12273000Y7776250D01*
X12114250Y7935000D01*
X10900000Y7938072D01*
X10775518Y7925812D01*
X10655820Y7889502D01*
X10545506Y7830537D01*
X10448815Y7751185D01*
X10369463Y7654494D01*
X10310498Y7544180D01*
X10274188Y7424482D01*
X10261928Y7300000D01*
X710000Y7300000D01*
X710000Y10300000D01*
X6661928Y10300000D01*
X6674188Y10175518D01*
X6710498Y10055820D01*
X6769463Y9945506D01*
X6848815Y9848815D01*
X6945506Y9769463D01*
X7055820Y9710498D01*
X7175518Y9674188D01*
X7300000Y9661928D01*
X10214250Y9665000D01*
X10373000Y9823750D01*
X10373000Y13073000D01*
X10627000Y13073000D01*
X10627000Y9823750D01*
X10785750Y9665000D01*
X13700000Y9661928D01*
X13824482Y9674188D01*
X13944180Y9710498D01*
X14054494Y9769463D01*
X14151185Y9848815D01*
X14230537Y9945506D01*
X14289502Y10055820D01*
X14325812Y10175518D01*
X14338072Y10300000D01*
X14335000Y12914250D01*
X14176250Y13073000D01*
X10627000Y13073000D01*
X10373000Y13073000D01*
X6823750Y13073000D01*
X6665000Y12914250D01*
X6661928Y10300000D01*
X710000Y10300000D01*
X710000Y16100000D01*
X6661928Y16100000D01*
X6665000Y13485750D01*
X6823750Y13327000D01*
X10373000Y13327000D01*
X10373000Y16576250D01*
X10627000Y16576250D01*
X10627000Y13327000D01*
X14176250Y13327000D01*
X14335000Y13485750D01*
X14338072Y16100000D01*
X14325812Y16224482D01*
X14289502Y16344180D01*
X14230537Y16454494D01*
X14151185Y16551185D01*
X14054494Y16630537D01*
X13944180Y16689502D01*
X13824482Y16725812D01*
X13700000Y16738072D01*
X10785750Y16735000D01*
X10627000Y16576250D01*
X10373000Y16576250D01*
X10214250Y16735000D01*
X7300000Y16738072D01*
X7175518Y16725812D01*
X7055820Y16689502D01*
X6945506Y16630537D01*
X6848815Y16551185D01*
X6769463Y16454494D01*
X6710498Y16344180D01*
X6674188Y16224482D01*
X6661928Y16100000D01*
X710000Y16100000D01*
X710000Y19100000D01*
X10261928Y19100000D01*
X10274188Y18975518D01*
X10310498Y18855820D01*
X10369463Y18745506D01*
X10448815Y18648815D01*
X10545506Y18569463D01*
X10655820Y18510498D01*
X10775518Y18474188D01*
X10900000Y18461928D01*
X12114250Y18465000D01*
X12273000Y18623750D01*
X12273000Y19773000D01*
X12527000Y19773000D01*
X12527000Y18623750D01*
X12685750Y18465000D01*
X13900000Y18461928D01*
X14024482Y18474188D01*
X14144180Y18510498D01*
X14254494Y18569463D01*
X14351185Y18648815D01*
X14430537Y18745506D01*
X14489502Y18855820D01*
X14525812Y18975518D01*
X14538072Y19100000D01*
X14535000Y19614250D01*
X14376250Y19773000D01*
X12527000Y19773000D01*
X12273000Y19773000D01*
X10423750Y19773000D01*
X10265000Y19614250D01*
X10261928Y19100000D01*
X710000Y19100000D01*
X710000Y20700000D01*
X10261928Y20700000D01*
X10265000Y20185750D01*
X10423750Y20027000D01*
X12273000Y20027000D01*
X12273000Y21176250D01*
X12527000Y21176250D01*
X12527000Y20027000D01*
X14376250Y20027000D01*
X14535000Y20185750D01*
X14538072Y20700000D01*
X14525812Y20824482D01*
X14489502Y20944180D01*
X14430537Y21054494D01*
X14351185Y21151185D01*
X14254494Y21230537D01*
X14144180Y21289502D01*
X14024482Y21325812D01*
X13900000Y21338072D01*
X12685750Y21335000D01*
X12527000Y21176250D01*
X12273000Y21176250D01*
X12114250Y21335000D01*
X10900000Y21338072D01*
X10775518Y21325812D01*
X10655820Y21289502D01*
X10545506Y21230537D01*
X10448815Y21151185D01*
X10369463Y21054494D01*
X10310498Y20944180D01*
X10274188Y20824482D01*
X10261928Y20700000D01*
X710000Y20700000D01*
X710000Y27025000D01*
X12661928Y27025000D01*
X12674188Y26900518D01*
X12710498Y26780820D01*
X12769463Y26670506D01*
X12848815Y26573815D01*
X12945506Y26494463D01*
X13055820Y26435498D01*
X13175518Y26399188D01*
X13300000Y26386928D01*
X13539250Y26390000D01*
X13698000Y26548750D01*
X13698000Y27373000D01*
X12823750Y27373000D01*
X12665000Y27214250D01*
X12661928Y27025000D01*
X710000Y27025000D01*
X710000Y30220128D01*
X2765000Y30220128D01*
X2765000Y29779872D01*
X2850890Y29348075D01*
X3019369Y28941331D01*
X3263962Y28575271D01*
X3575271Y28263962D01*
X3941331Y28019369D01*
X4348075Y27850890D01*
X4779872Y27765000D01*
X5220128Y27765000D01*
X5651925Y27850890D01*
X6058669Y28019369D01*
X6424729Y28263962D01*
X6736038Y28575271D01*
X6980631Y28941331D01*
X7149110Y29348075D01*
X7235000Y29779872D01*
X7235000Y30220128D01*
X7149110Y30651925D01*
X6980631Y31058669D01*
X6736038Y31424729D01*
X6424729Y31736038D01*
X6058669Y31980631D01*
X5651925Y32149110D01*
X5220128Y32235000D01*
X4779872Y32235000D01*
X4348075Y32149110D01*
X3941331Y31980631D01*
X3575271Y31736038D01*
X3263962Y31424729D01*
X3019369Y31058669D01*
X2850890Y30651925D01*
X2765000Y30220128D01*
X710000Y30220128D01*
X710000Y36136411D01*
X2615000Y36136411D01*
X2615000Y35863589D01*
X2668225Y35596011D01*
X2772629Y35343957D01*
X2924201Y35117114D01*
X3117114Y34924201D01*
X3343957Y34772629D01*
X3596011Y34668225D01*
X3863589Y34615000D01*
X4136411Y34615000D01*
X4403989Y34668225D01*
X4656043Y34772629D01*
X4882886Y34924201D01*
X5075799Y35117114D01*
X5157909Y35240000D01*
X7385199Y35240000D01*
X9036201Y33588997D01*
X9059999Y33559999D01*
X9175724Y33465026D01*
X9307753Y33394454D01*
X9451014Y33350997D01*
X9562667Y33340000D01*
X9562675Y33340000D01*
X9600000Y33336324D01*
X9637325Y33340000D01*
X12489636Y33340000D01*
X12419463Y33254494D01*
X12360498Y33144180D01*
X12324188Y33024482D01*
X12311928Y32900000D01*
X12311928Y31900000D01*
X12324188Y31775518D01*
X12360498Y31655820D01*
X12419463Y31545506D01*
X12498815Y31448815D01*
X12591428Y31372809D01*
X12668815Y31228028D01*
X12702584Y31186880D01*
X12678752Y31108316D01*
X12661928Y30937500D01*
X12661928Y30462500D01*
X12678752Y30291684D01*
X12728577Y30127433D01*
X12777983Y30035000D01*
X12697295Y30035000D01*
X12551898Y30095226D01*
X12351939Y30135000D01*
X12148061Y30135000D01*
X11948102Y30095226D01*
X11759744Y30017205D01*
X11590226Y29903937D01*
X11446063Y29759774D01*
X11332795Y29590256D01*
X11254774Y29401898D01*
X11215000Y29201939D01*
X11215000Y28998061D01*
X11254774Y28798102D01*
X11332795Y28609744D01*
X11446063Y28440226D01*
X11590226Y28296063D01*
X11759744Y28182795D01*
X11948102Y28104774D01*
X12148061Y28065000D01*
X12351939Y28065000D01*
X12551898Y28104774D01*
X12693598Y28163469D01*
X12674188Y28099482D01*
X12661928Y27975000D01*
X12665000Y27785750D01*
X12823750Y27627000D01*
X13698000Y27627000D01*
X13698000Y27647000D01*
X13952000Y27647000D01*
X13952000Y27627000D01*
X13972000Y27627000D01*
X13972000Y27373000D01*
X13952000Y27373000D01*
X13952000Y26548750D01*
X14110750Y26390000D01*
X14350000Y26386928D01*
X14474482Y26399188D01*
X14594180Y26435498D01*
X14704494Y26494463D01*
X14777161Y26554099D01*
X14801058Y26534488D01*
X14952433Y26453577D01*
X15116684Y26403752D01*
X15287500Y26386928D01*
X15862500Y26386928D01*
X16033316Y26403752D01*
X16197567Y26453577D01*
X16348942Y26534488D01*
X16481623Y26643377D01*
X16590512Y26776058D01*
X16671423Y26927433D01*
X16721248Y27091684D01*
X16738072Y27262500D01*
X16738072Y27737500D01*
X16721248Y27908316D01*
X16671423Y28072567D01*
X16590512Y28223942D01*
X16528093Y28300000D01*
X16590512Y28376058D01*
X16671423Y28527433D01*
X16721248Y28691684D01*
X16735856Y28840000D01*
X26331646Y28840000D01*
X29061645Y26110000D01*
X28687322Y26110000D01*
X28649999Y26113676D01*
X28612676Y26110000D01*
X28612667Y26110000D01*
X28501014Y26099003D01*
X28357753Y26055546D01*
X28225724Y25984974D01*
X28109999Y25890001D01*
X28086201Y25861003D01*
X26939003Y24713804D01*
X26909999Y24690001D01*
X26878003Y24651013D01*
X26815026Y24574276D01*
X26770116Y24490256D01*
X26744454Y24442246D01*
X26700997Y24298985D01*
X26690000Y24187332D01*
X26690000Y24187322D01*
X26686324Y24150000D01*
X26690000Y24112678D01*
X26690001Y11764802D01*
X26623744Y11698545D01*
X26193631Y12128658D01*
X26164344Y12164344D01*
X26021972Y12281186D01*
X25859540Y12368007D01*
X25683292Y12421471D01*
X25545932Y12435000D01*
X25500000Y12439524D01*
X25454068Y12435000D01*
X21485000Y12435000D01*
X21485000Y15904065D01*
X21489524Y15950000D01*
X21471472Y16133292D01*
X21418007Y16309541D01*
X21376157Y16387836D01*
X21331186Y16471972D01*
X21214344Y16614344D01*
X21178664Y16643626D01*
X20677431Y17144858D01*
X20617205Y17290256D01*
X20503937Y17459774D01*
X20359774Y17603937D01*
X20268387Y17665000D01*
X20952705Y17665000D01*
X21098102Y17604774D01*
X21298061Y17565000D01*
X21501939Y17565000D01*
X21701898Y17604774D01*
X21890256Y17682795D01*
X22059774Y17796063D01*
X22203937Y17940226D01*
X22317205Y18109744D01*
X22395226Y18298102D01*
X22435000Y18498061D01*
X22435000Y18701939D01*
X22395226Y18901898D01*
X22317205Y19090256D01*
X22203937Y19259774D01*
X22059774Y19403937D01*
X21890256Y19517205D01*
X21701898Y19595226D01*
X21501939Y19635000D01*
X21298061Y19635000D01*
X21098102Y19595226D01*
X20952705Y19535000D01*
X20587289Y19535000D01*
X19593630Y20528659D01*
X19564344Y20564344D01*
X19421972Y20681186D01*
X19259540Y20768007D01*
X19083292Y20821471D01*
X18945932Y20835000D01*
X18921903Y20837367D01*
X18889502Y20944180D01*
X18830537Y21054494D01*
X18751185Y21151185D01*
X18654494Y21230537D01*
X18544180Y21289502D01*
X18424482Y21325812D01*
X18300000Y21338072D01*
X17735000Y21338072D01*
X17735000Y21712711D01*
X22087295Y26065005D01*
X24152710Y26065005D01*
X24298107Y26004779D01*
X24498066Y25965005D01*
X24701944Y25965005D01*
X24901903Y26004779D01*
X25090261Y26082800D01*
X25259779Y26196068D01*
X25403942Y26340231D01*
X25517210Y26509749D01*
X25595231Y26698107D01*
X25635005Y26898066D01*
X25635005Y27101944D01*
X25595231Y27301903D01*
X25517210Y27490261D01*
X25403942Y27659779D01*
X25259779Y27803942D01*
X25090261Y27917210D01*
X24901903Y27995231D01*
X24701944Y28035005D01*
X24498066Y28035005D01*
X24298107Y27995231D01*
X24152710Y27935005D01*
X21745940Y27935005D01*
X21700005Y27939529D01*
X21516713Y27921477D01*
X21340464Y27868012D01*
X21283885Y27837770D01*
X21178033Y27781191D01*
X21035661Y27664349D01*
X21006380Y27628669D01*
X16171336Y22793625D01*
X16135657Y22764344D01*
X16018815Y22621972D01*
X15936648Y22468247D01*
X15931994Y22459540D01*
X15878529Y22283291D01*
X15860476Y22100000D01*
X15865001Y22054058D01*
X15865001Y21338072D01*
X15300000Y21338072D01*
X15175518Y21325812D01*
X15055820Y21289502D01*
X14945506Y21230537D01*
X14848815Y21151185D01*
X14769463Y21054494D01*
X14710498Y20944180D01*
X14674188Y20824482D01*
X14661928Y20700000D01*
X14661928Y19100000D01*
X14674188Y18975518D01*
X14710498Y18855820D01*
X14769463Y18745506D01*
X14848815Y18648815D01*
X14945506Y18569463D01*
X15055820Y18510498D01*
X15175518Y18474188D01*
X15300000Y18461928D01*
X15865001Y18461928D01*
X15865000Y16718072D01*
X15700000Y16718072D01*
X15575518Y16705812D01*
X15455820Y16669502D01*
X15345506Y16610537D01*
X15248815Y16531185D01*
X15169463Y16434494D01*
X15110498Y16324180D01*
X15074188Y16204482D01*
X15061928Y16080000D01*
X15061928Y14880000D01*
X15074188Y14755518D01*
X15110498Y14635820D01*
X15169463Y14525506D01*
X15248815Y14428815D01*
X15345506Y14349463D01*
X15455820Y14290498D01*
X15575518Y14254188D01*
X15700000Y14241928D01*
X17900000Y14241928D01*
X18024482Y14254188D01*
X18144180Y14290498D01*
X18254494Y14349463D01*
X18351185Y14428815D01*
X18430537Y14525506D01*
X18489502Y14635820D01*
X18525812Y14755518D01*
X18538072Y14880000D01*
X18538072Y16080000D01*
X18525812Y16204482D01*
X18489502Y16324180D01*
X18430537Y16434494D01*
X18351185Y16531185D01*
X18254494Y16610537D01*
X18144180Y16669502D01*
X18024482Y16705812D01*
X17900000Y16718072D01*
X17735000Y16718072D01*
X17735000Y18461928D01*
X18300000Y18461928D01*
X18424482Y18474188D01*
X18544180Y18510498D01*
X18654494Y18569463D01*
X18751185Y18648815D01*
X18786214Y18691497D01*
X19506370Y17971341D01*
X19535656Y17935656D01*
X19658305Y17835000D01*
X19598061Y17835000D01*
X19398102Y17795226D01*
X19209744Y17717205D01*
X19040226Y17603937D01*
X18896063Y17459774D01*
X18782795Y17290256D01*
X18704774Y17101898D01*
X18665000Y16901939D01*
X18665000Y16698061D01*
X18704774Y16498102D01*
X18782795Y16309744D01*
X18896063Y16140226D01*
X19040226Y15996063D01*
X19209744Y15882795D01*
X19355142Y15822569D01*
X19615001Y15562709D01*
X19615000Y11845932D01*
X19615000Y11545932D01*
X19610476Y11500000D01*
X19615000Y11454069D01*
X19615001Y7887290D01*
X19162711Y7435000D01*
X18922621Y7435000D01*
X18889502Y7544180D01*
X18830537Y7654494D01*
X18751185Y7751185D01*
X18654494Y7830537D01*
X18544180Y7889502D01*
X18424482Y7925812D01*
X18300000Y7938072D01*
X17735000Y7938072D01*
X17735000Y9681928D01*
X17900000Y9681928D01*
X18024482Y9694188D01*
X18144180Y9730498D01*
X18254494Y9789463D01*
X18351185Y9868815D01*
X18430537Y9965506D01*
X18489502Y10075820D01*
X18525812Y10195518D01*
X18538072Y10320000D01*
X18538072Y11520000D01*
X18525812Y11644482D01*
X18489502Y11764180D01*
X18430537Y11874494D01*
X18351185Y11971185D01*
X18254494Y12050537D01*
X18144180Y12109502D01*
X18024482Y12145812D01*
X17900000Y12158072D01*
X15700000Y12158072D01*
X15575518Y12145812D01*
X15455820Y12109502D01*
X15345506Y12050537D01*
X15248815Y11971185D01*
X15169463Y11874494D01*
X15110498Y11764180D01*
X15074188Y11644482D01*
X15061928Y11520000D01*
X15061928Y10320000D01*
X15074188Y10195518D01*
X15110498Y10075820D01*
X15169463Y9965506D01*
X15248815Y9868815D01*
X15345506Y9789463D01*
X15455820Y9730498D01*
X15575518Y9694188D01*
X15700000Y9681928D01*
X15865000Y9681928D01*
X15865001Y7938072D01*
X15300000Y7938072D01*
X15175518Y7925812D01*
X15055820Y7889502D01*
X14945506Y7830537D01*
X14848815Y7751185D01*
X14769463Y7654494D01*
X14710498Y7544180D01*
X14674188Y7424482D01*
X14661928Y7300000D01*
X14661928Y5700000D01*
X14674188Y5575518D01*
X14710498Y5455820D01*
X14769463Y5345506D01*
X14848815Y5248815D01*
X14945506Y5169463D01*
X15055820Y5110498D01*
X15175518Y5074188D01*
X15300000Y5061928D01*
X18300000Y5061928D01*
X18424482Y5074188D01*
X18544180Y5110498D01*
X18654494Y5169463D01*
X18751185Y5248815D01*
X18830537Y5345506D01*
X18889502Y5455820D01*
X18922621Y5565000D01*
X19504068Y5565000D01*
X19550000Y5560476D01*
X19595932Y5565000D01*
X19733292Y5578529D01*
X19909540Y5631993D01*
X20071972Y5718814D01*
X20214344Y5835656D01*
X20243630Y5871341D01*
X21034237Y6661948D01*
X21035000Y6285750D01*
X21193750Y6127000D01*
X22883000Y6127000D01*
X22883000Y8276250D01*
X23137000Y8276250D01*
X23137000Y6127000D01*
X24826250Y6127000D01*
X24985000Y6285750D01*
X24988072Y7800000D01*
X24975812Y7924482D01*
X24939502Y8044180D01*
X24880537Y8154494D01*
X24801185Y8251185D01*
X24704494Y8330537D01*
X24594180Y8389502D01*
X24474482Y8425812D01*
X24350000Y8438072D01*
X23295750Y8435000D01*
X23137000Y8276250D01*
X22883000Y8276250D01*
X22724250Y8435000D01*
X21670000Y8438072D01*
X21545518Y8425812D01*
X21485000Y8407454D01*
X21485000Y10565000D01*
X25065001Y10565000D01*
X25065000Y9881964D01*
X25056928Y9800000D01*
X25056928Y7800000D01*
X25069188Y7675518D01*
X25105498Y7555820D01*
X25164463Y7445506D01*
X25243815Y7348815D01*
X25340506Y7269463D01*
X25450820Y7210498D01*
X25570518Y7174188D01*
X25695000Y7161928D01*
X26305000Y7161928D01*
X26429482Y7174188D01*
X26500000Y7195579D01*
X26570518Y7174188D01*
X26695000Y7161928D01*
X27305000Y7161928D01*
X27429482Y7174188D01*
X27500000Y7195579D01*
X27570518Y7174188D01*
X27695000Y7161928D01*
X28305000Y7161928D01*
X28429482Y7174188D01*
X28500000Y7195579D01*
X28570518Y7174188D01*
X28695000Y7161928D01*
X29305000Y7161928D01*
X29429482Y7174188D01*
X29500000Y7195579D01*
X29570518Y7174188D01*
X29695000Y7161928D01*
X30305000Y7161928D01*
X30429482Y7174188D01*
X30500000Y7195579D01*
X30570518Y7174188D01*
X30695000Y7161928D01*
X30714250Y7165000D01*
X30873000Y7323750D01*
X30873000Y7515593D01*
X30894502Y7555820D01*
X30930812Y7675518D01*
X30943072Y7800000D01*
X30943072Y9800000D01*
X30930812Y9924482D01*
X30894502Y10044180D01*
X30873000Y10084407D01*
X30873000Y10276250D01*
X30714250Y10435000D01*
X30695000Y10438072D01*
X30570518Y10425812D01*
X30500000Y10404421D01*
X30429482Y10425812D01*
X30305000Y10438072D01*
X29695000Y10438072D01*
X29570518Y10425812D01*
X29500000Y10404421D01*
X29429482Y10425812D01*
X29305000Y10438072D01*
X28760000Y10438072D01*
X28760000Y11901939D01*
X30940000Y11901939D01*
X30940000Y11698061D01*
X30979774Y11498102D01*
X31057795Y11309744D01*
X31171063Y11140226D01*
X31315226Y10996063D01*
X31484744Y10882795D01*
X31526183Y10865630D01*
X31505808Y10845255D01*
X31477762Y10822238D01*
X31385913Y10710320D01*
X31317663Y10582633D01*
X31310942Y10560476D01*
X31275635Y10444086D01*
X31273537Y10422787D01*
X31127000Y10276250D01*
X31127000Y10084407D01*
X31105498Y10044180D01*
X31069188Y9924482D01*
X31056928Y9800000D01*
X31056928Y7800000D01*
X31069188Y7675518D01*
X31105498Y7555820D01*
X31127000Y7515593D01*
X31127000Y7323750D01*
X31285750Y7165000D01*
X31305000Y7161928D01*
X31429482Y7174188D01*
X31500000Y7195579D01*
X31570518Y7174188D01*
X31695000Y7161928D01*
X32305000Y7161928D01*
X32429482Y7174188D01*
X32500000Y7195579D01*
X32570518Y7174188D01*
X32695000Y7161928D01*
X33305000Y7161928D01*
X33429482Y7174188D01*
X33500000Y7195579D01*
X33570518Y7174188D01*
X33695000Y7161928D01*
X33714250Y7165000D01*
X33873000Y7323750D01*
X33873000Y7515593D01*
X33894502Y7555820D01*
X33930812Y7675518D01*
X33943072Y7800000D01*
X33943072Y9800000D01*
X34056928Y9800000D01*
X34056928Y7800000D01*
X34069188Y7675518D01*
X34105498Y7555820D01*
X34127000Y7515593D01*
X34127000Y7323750D01*
X34285750Y7165000D01*
X34305000Y7161928D01*
X34429482Y7174188D01*
X34500000Y7195579D01*
X34570518Y7174188D01*
X34695000Y7161928D01*
X35305000Y7161928D01*
X35429482Y7174188D01*
X35500000Y7195579D01*
X35570518Y7174188D01*
X35695000Y7161928D01*
X36305000Y7161928D01*
X36429482Y7174188D01*
X36500000Y7195579D01*
X36570518Y7174188D01*
X36695000Y7161928D01*
X36714250Y7165000D01*
X36873000Y7323750D01*
X36873000Y7515593D01*
X36894502Y7555820D01*
X36930812Y7675518D01*
X36943072Y7800000D01*
X36943072Y9800000D01*
X36930812Y9924482D01*
X36894502Y10044180D01*
X36873000Y10084407D01*
X36873000Y10276250D01*
X36714250Y10435000D01*
X36695000Y10438072D01*
X36570518Y10425812D01*
X36500000Y10404421D01*
X36429482Y10425812D01*
X36305000Y10438072D01*
X35695000Y10438072D01*
X35570518Y10425812D01*
X35500000Y10404421D01*
X35429482Y10425812D01*
X35305000Y10438072D01*
X34695000Y10438072D01*
X34570518Y10425812D01*
X34500000Y10404421D01*
X34429482Y10425812D01*
X34305000Y10438072D01*
X34285750Y10435000D01*
X34127000Y10276250D01*
X34127000Y10084407D01*
X34105498Y10044180D01*
X34069188Y9924482D01*
X34056928Y9800000D01*
X33943072Y9800000D01*
X33930812Y9924482D01*
X33894502Y10044180D01*
X33873000Y10084407D01*
X33873000Y10276250D01*
X33726463Y10422787D01*
X33724365Y10444086D01*
X33682337Y10582634D01*
X33626914Y10686323D01*
X33614087Y10710321D01*
X33522237Y10822239D01*
X33494192Y10845255D01*
X33473817Y10865630D01*
X33515256Y10882795D01*
X33684774Y10996063D01*
X33828937Y11140226D01*
X33942205Y11309744D01*
X34020226Y11498102D01*
X34060000Y11698061D01*
X34060000Y11901939D01*
X34020226Y12101898D01*
X33942205Y12290256D01*
X33828937Y12459774D01*
X33684774Y12603937D01*
X33515256Y12717205D01*
X33326898Y12795226D01*
X33126939Y12835000D01*
X32923061Y12835000D01*
X32723102Y12795226D01*
X32534744Y12717205D01*
X32500000Y12693990D01*
X32465256Y12717205D01*
X32276898Y12795226D01*
X32076939Y12835000D01*
X31873061Y12835000D01*
X31673102Y12795226D01*
X31484744Y12717205D01*
X31315226Y12603937D01*
X31171063Y12459774D01*
X31057795Y12290256D01*
X30979774Y12101898D01*
X30940000Y11901939D01*
X28760000Y11901939D01*
X28760000Y22273000D01*
X29376115Y22273000D01*
X29382667Y22251399D01*
X29394403Y22229443D01*
X29410197Y22210197D01*
X29429443Y22194403D01*
X29451399Y22182667D01*
X29475224Y22175440D01*
X29500000Y22173000D01*
X29670533Y22173000D01*
X29681839Y22132525D01*
X29731245Y22034962D01*
X29698061Y22034962D01*
X29498102Y21995188D01*
X29309744Y21917167D01*
X29140226Y21803899D01*
X28996063Y21659736D01*
X28882795Y21490218D01*
X28804774Y21301860D01*
X28765000Y21101901D01*
X28765000Y20898023D01*
X28804774Y20698064D01*
X28882795Y20509706D01*
X28922702Y20449981D01*
X28882795Y20390256D01*
X28804774Y20201898D01*
X28765000Y20001939D01*
X28765000Y19798061D01*
X28804774Y19598102D01*
X28882795Y19409744D01*
X28996063Y19240226D01*
X29140226Y19096063D01*
X29309744Y18982795D01*
X29498102Y18904774D01*
X29698061Y18865000D01*
X29901939Y18865000D01*
X30101898Y18904774D01*
X30266609Y18973000D01*
X31214315Y18973000D01*
X31024201Y18782886D01*
X30872629Y18556043D01*
X30768225Y18303989D01*
X30715000Y18036411D01*
X30715000Y17763589D01*
X30768225Y17496011D01*
X30872629Y17243957D01*
X31024201Y17017114D01*
X31217114Y16824201D01*
X31443957Y16672629D01*
X31696011Y16568225D01*
X31963589Y16515000D01*
X32236411Y16515000D01*
X32503989Y16568225D01*
X32756043Y16672629D01*
X32982886Y16824201D01*
X33175799Y17017114D01*
X33327371Y17243957D01*
X33431775Y17496011D01*
X33485000Y17763589D01*
X33485000Y18036411D01*
X33431775Y18303989D01*
X33327371Y18556043D01*
X33175799Y18782886D01*
X32982886Y18975799D01*
X32876113Y19047143D01*
X32963604Y19038526D01*
X33088086Y19050786D01*
X33207784Y19087096D01*
X33318098Y19146061D01*
X33414789Y19225413D01*
X33600000Y19410624D01*
X33785211Y19225413D01*
X33881902Y19146061D01*
X33992216Y19087096D01*
X34040001Y19072601D01*
X34040000Y17042905D01*
X34036444Y17006800D01*
X34049773Y16871471D01*
X34050635Y16862716D01*
X34092663Y16724168D01*
X34160913Y16596481D01*
X34252762Y16484563D01*
X34280808Y16461546D01*
X35573851Y15168502D01*
X35351931Y14946582D01*
X35323886Y14923566D01*
X35232037Y14811648D01*
X35163787Y14683962D01*
X35157995Y14664868D01*
X35121758Y14545413D01*
X35107567Y14401328D01*
X35111124Y14365215D01*
X35111122Y13781801D01*
X35107566Y13745694D01*
X35121757Y13601609D01*
X35139664Y13542578D01*
X35163785Y13463063D01*
X35232035Y13335375D01*
X35323884Y13223457D01*
X35351929Y13200441D01*
X35564473Y12987897D01*
X35587489Y12959852D01*
X35699407Y12868003D01*
X35827095Y12799753D01*
X35965643Y12757725D01*
X36073623Y12747090D01*
X36073630Y12747090D01*
X36109725Y12743535D01*
X36145822Y12747090D01*
X36729247Y12747092D01*
X36765360Y12743535D01*
X36909445Y12757726D01*
X37007595Y12787500D01*
X37047994Y12799755D01*
X37175680Y12868005D01*
X37271009Y12946240D01*
X37246030Y12863895D01*
X37232437Y12819085D01*
X37218246Y12675000D01*
X37221802Y12638895D01*
X37221802Y12486105D01*
X37218246Y12450000D01*
X37230856Y12321972D01*
X37232437Y12305916D01*
X37274465Y12167368D01*
X37342715Y12039681D01*
X37434564Y11927763D01*
X37462610Y11904746D01*
X37524043Y11843313D01*
X37540001Y11823869D01*
X37540000Y10879447D01*
X37505808Y10845255D01*
X37477763Y10822239D01*
X37385914Y10710321D01*
X37373087Y10686323D01*
X37317664Y10582634D01*
X37275635Y10444086D01*
X37273537Y10422787D01*
X37127000Y10276250D01*
X37127000Y10084407D01*
X37105498Y10044180D01*
X37069188Y9924482D01*
X37056928Y9800000D01*
X37056928Y7800000D01*
X37069188Y7675518D01*
X37105498Y7555820D01*
X37127000Y7515593D01*
X37127000Y7323750D01*
X37285750Y7165000D01*
X37305000Y7161928D01*
X37429482Y7174188D01*
X37500000Y7195579D01*
X37570518Y7174188D01*
X37695000Y7161928D01*
X38305000Y7161928D01*
X38429482Y7174188D01*
X38500000Y7195579D01*
X38570518Y7174188D01*
X38695000Y7161928D01*
X39305000Y7161928D01*
X39429482Y7174188D01*
X39500000Y7195579D01*
X39570518Y7174188D01*
X39695000Y7161928D01*
X39714250Y7165000D01*
X39873000Y7323750D01*
X39873000Y7515593D01*
X39894502Y7555820D01*
X39930812Y7675518D01*
X39943072Y7800000D01*
X39943072Y8673000D01*
X40127000Y8673000D01*
X40127000Y7323750D01*
X40285750Y7165000D01*
X40305000Y7161928D01*
X40429482Y7174188D01*
X40549180Y7210498D01*
X40659494Y7269463D01*
X40756185Y7348815D01*
X40835537Y7445506D01*
X40894502Y7555820D01*
X40930812Y7675518D01*
X40943072Y7800000D01*
X41011928Y7800000D01*
X41015000Y6285750D01*
X41173750Y6127000D01*
X42863000Y6127000D01*
X42863000Y8276250D01*
X43117000Y8276250D01*
X43117000Y6127000D01*
X44806250Y6127000D01*
X44965000Y6285750D01*
X44968072Y7800000D01*
X44955812Y7924482D01*
X44919502Y8044180D01*
X44860537Y8154494D01*
X44781185Y8251185D01*
X44684494Y8330537D01*
X44574180Y8389502D01*
X44454482Y8425812D01*
X44330000Y8438072D01*
X43275750Y8435000D01*
X43117000Y8276250D01*
X42863000Y8276250D01*
X42704250Y8435000D01*
X41650000Y8438072D01*
X41525518Y8425812D01*
X41405820Y8389502D01*
X41295506Y8330537D01*
X41198815Y8251185D01*
X41119463Y8154494D01*
X41060498Y8044180D01*
X41024188Y7924482D01*
X41011928Y7800000D01*
X40943072Y7800000D01*
X40940000Y8514250D01*
X40781250Y8673000D01*
X40127000Y8673000D01*
X39943072Y8673000D01*
X39943072Y9800000D01*
X39930812Y9924482D01*
X39894502Y10044180D01*
X39873000Y10084407D01*
X39873000Y10276250D01*
X40127000Y10276250D01*
X40127000Y8927000D01*
X40781250Y8927000D01*
X40940000Y9085750D01*
X40943072Y9800000D01*
X40930812Y9924482D01*
X40894502Y10044180D01*
X40835537Y10154494D01*
X40756185Y10251185D01*
X40659494Y10330537D01*
X40549180Y10389502D01*
X40429482Y10425812D01*
X40305000Y10438072D01*
X40285750Y10435000D01*
X40127000Y10276250D01*
X39873000Y10276250D01*
X39726463Y10422787D01*
X39724365Y10444086D01*
X39682337Y10582634D01*
X39626914Y10686323D01*
X39614087Y10710321D01*
X39522238Y10822239D01*
X39494187Y10845260D01*
X39460000Y10879447D01*
X39460000Y13657098D01*
X39463556Y13693203D01*
X39459721Y13732140D01*
X39449365Y13837285D01*
X39429052Y13904249D01*
X39713151Y14188348D01*
X39741190Y14211359D01*
X39764203Y14239400D01*
X39764207Y14239404D01*
X39833040Y14323277D01*
X39901290Y14450964D01*
X39943318Y14589512D01*
X39957509Y14733597D01*
X39953953Y14769702D01*
X39953953Y15353138D01*
X39957508Y15389233D01*
X39953953Y15425328D01*
X39953953Y15425337D01*
X39943318Y15533317D01*
X39901290Y15671865D01*
X39833040Y15799552D01*
X39741191Y15911470D01*
X39713140Y15934491D01*
X39500608Y16147023D01*
X39477587Y16175074D01*
X39365669Y16266923D01*
X39237982Y16335173D01*
X39099434Y16377201D01*
X38991454Y16387836D01*
X38955349Y16391392D01*
X38919244Y16387836D01*
X38335819Y16387836D01*
X38299714Y16391392D01*
X38155629Y16377201D01*
X38017080Y16335173D01*
X37927891Y16287500D01*
X37889394Y16266923D01*
X37777476Y16175074D01*
X37754460Y16147029D01*
X37526096Y15918665D01*
X37519092Y15927200D01*
X37467130Y15990516D01*
X37467126Y15990520D01*
X37444115Y16018559D01*
X37416076Y16041570D01*
X36292646Y17165000D01*
X36376939Y17165000D01*
X36576898Y17204774D01*
X36765256Y17282795D01*
X36800000Y17306010D01*
X36834744Y17282795D01*
X37023102Y17204774D01*
X37223061Y17165000D01*
X37426939Y17165000D01*
X37626898Y17204774D01*
X37815256Y17282795D01*
X37984774Y17396063D01*
X38081944Y17493233D01*
X38143377Y17418377D01*
X38276058Y17309488D01*
X38427433Y17228577D01*
X38591684Y17178752D01*
X38762500Y17161928D01*
X39237500Y17161928D01*
X39408316Y17178752D01*
X39511928Y17210182D01*
X39511928Y17150000D01*
X39524188Y17025518D01*
X39560498Y16905820D01*
X39619463Y16795506D01*
X39698815Y16698815D01*
X39795506Y16619463D01*
X39905820Y16560498D01*
X40025518Y16524188D01*
X40150000Y16511928D01*
X40645015Y16511928D01*
X40628752Y16458316D01*
X40611928Y16287500D01*
X40611928Y15812500D01*
X40628752Y15641684D01*
X40678577Y15477433D01*
X40759488Y15326058D01*
X40868377Y15193377D01*
X41001058Y15084488D01*
X41152433Y15003577D01*
X41316684Y14953752D01*
X41487500Y14936928D01*
X42062500Y14936928D01*
X42233316Y14953752D01*
X42397567Y15003577D01*
X42548942Y15084488D01*
X42572839Y15104099D01*
X42645506Y15044463D01*
X42755820Y14985498D01*
X42875518Y14949188D01*
X43000000Y14936928D01*
X43239250Y14940000D01*
X43398000Y15098750D01*
X43398000Y15923000D01*
X43652000Y15923000D01*
X43652000Y15098750D01*
X43810750Y14940000D01*
X44050000Y14936928D01*
X44174482Y14949188D01*
X44294180Y14985498D01*
X44404494Y15044463D01*
X44501185Y15123815D01*
X44580537Y15220506D01*
X44639502Y15330820D01*
X44675812Y15450518D01*
X44688072Y15575000D01*
X44685000Y15764250D01*
X44526250Y15923000D01*
X43652000Y15923000D01*
X43398000Y15923000D01*
X43378000Y15923000D01*
X43378000Y16177000D01*
X43398000Y16177000D01*
X43398000Y16197000D01*
X43652000Y16197000D01*
X43652000Y16177000D01*
X44526250Y16177000D01*
X44685000Y16335750D01*
X44687890Y16513786D01*
X45150000Y16511928D01*
X45274482Y16524188D01*
X45394180Y16560498D01*
X45504494Y16619463D01*
X45601185Y16698815D01*
X45680537Y16795506D01*
X45739502Y16905820D01*
X45775812Y17025518D01*
X45788072Y17150000D01*
X45787994Y17165573D01*
X45825000Y17161928D01*
X46014250Y17165000D01*
X46173000Y17323750D01*
X46173000Y18198000D01*
X46427000Y18198000D01*
X46427000Y17323750D01*
X46585750Y17165000D01*
X46775000Y17161928D01*
X46899482Y17174188D01*
X47019180Y17210498D01*
X47129494Y17269463D01*
X47226185Y17348815D01*
X47305537Y17445506D01*
X47364502Y17555820D01*
X47400812Y17675518D01*
X47413072Y17800000D01*
X47410000Y18039250D01*
X47251250Y18198000D01*
X46427000Y18198000D01*
X46173000Y18198000D01*
X46153000Y18198000D01*
X46153000Y18452000D01*
X46173000Y18452000D01*
X46173000Y18472000D01*
X46427000Y18472000D01*
X46427000Y18452000D01*
X47251250Y18452000D01*
X47410000Y18610750D01*
X47413072Y18850000D01*
X47400812Y18974482D01*
X47364502Y19094180D01*
X47305537Y19204494D01*
X47245901Y19277161D01*
X47265512Y19301058D01*
X47346423Y19452433D01*
X47396248Y19616684D01*
X47413072Y19787500D01*
X47413072Y20362500D01*
X47396248Y20533316D01*
X47346423Y20697567D01*
X47265512Y20848942D01*
X47156623Y20981623D01*
X47023942Y21090512D01*
X46872567Y21171423D01*
X46708316Y21221248D01*
X46537500Y21238072D01*
X46062500Y21238072D01*
X45891684Y21221248D01*
X45788072Y21189818D01*
X45788072Y21250000D01*
X45775812Y21374482D01*
X45739502Y21494180D01*
X45680537Y21604494D01*
X45601185Y21701185D01*
X45504494Y21780537D01*
X45394180Y21839502D01*
X45274482Y21875812D01*
X45150000Y21888072D01*
X43486729Y21888072D01*
X43263804Y22110997D01*
X43240001Y22140001D01*
X43124276Y22234974D01*
X42992247Y22305546D01*
X42848986Y22349003D01*
X42737333Y22360000D01*
X42737322Y22360000D01*
X42700000Y22363676D01*
X42662678Y22360000D01*
X38560000Y22360000D01*
X38560000Y22396289D01*
X38603937Y22440226D01*
X38717205Y22609744D01*
X38795226Y22798102D01*
X38835000Y22998061D01*
X38835000Y23201939D01*
X38795226Y23401898D01*
X38738022Y23540000D01*
X38862678Y23540000D01*
X38900000Y23536324D01*
X38937322Y23540000D01*
X38937333Y23540000D01*
X39048986Y23550997D01*
X39192247Y23594454D01*
X39324276Y23665026D01*
X39440001Y23759999D01*
X39463804Y23789003D01*
X41961003Y26286201D01*
X41990001Y26309999D01*
X42084974Y26425724D01*
X42155546Y26557753D01*
X42199003Y26701014D01*
X42210000Y26812667D01*
X42213677Y26850000D01*
X42210000Y26887333D01*
X42210000Y30220128D01*
X47765000Y30220128D01*
X47765000Y29779872D01*
X47850890Y29348075D01*
X48019369Y28941331D01*
X48263962Y28575271D01*
X48575271Y28263962D01*
X48941331Y28019369D01*
X49348075Y27850890D01*
X49779872Y27765000D01*
X50220128Y27765000D01*
X50651925Y27850890D01*
X51058669Y28019369D01*
X51424729Y28263962D01*
X51736038Y28575271D01*
X51980631Y28941331D01*
X52149110Y29348075D01*
X52235000Y29779872D01*
X52235000Y30220128D01*
X52149110Y30651925D01*
X51980631Y31058669D01*
X51736038Y31424729D01*
X51424729Y31736038D01*
X51058669Y31980631D01*
X50651925Y32149110D01*
X50220128Y32235000D01*
X49779872Y32235000D01*
X49348075Y32149110D01*
X48941331Y31980631D01*
X48575271Y31736038D01*
X48263962Y31424729D01*
X48019369Y31058669D01*
X47850890Y30651925D01*
X47765000Y30220128D01*
X42210000Y30220128D01*
X42210000Y36535199D01*
X43106802Y37432000D01*
X45076036Y37432000D01*
X45083488Y37418058D01*
X45192377Y37285377D01*
X45325058Y37176488D01*
X45476433Y37095577D01*
X45640684Y37045752D01*
X45811500Y37028928D01*
X46286500Y37028928D01*
X46457316Y37045752D01*
X46621567Y37095577D01*
X46772942Y37176488D01*
X46905623Y37285377D01*
X47014512Y37418058D01*
X47095423Y37569433D01*
X47145248Y37733684D01*
X47162072Y37904500D01*
X47162072Y38479500D01*
X47145248Y38650316D01*
X47095423Y38814567D01*
X47014512Y38965942D01*
X46931575Y39067000D01*
X47014512Y39168058D01*
X47095423Y39319433D01*
X47145248Y39483684D01*
X47162072Y39654500D01*
X47162072Y40229500D01*
X47145248Y40400316D01*
X47095423Y40564567D01*
X47014512Y40715942D01*
X46908596Y40845000D01*
X47014512Y40974058D01*
X47095423Y41125433D01*
X47145248Y41289684D01*
X47162072Y41460500D01*
X47162072Y42035500D01*
X47145248Y42206316D01*
X47095423Y42370567D01*
X47014512Y42521942D01*
X46931575Y42623000D01*
X47014512Y42724058D01*
X47095423Y42875433D01*
X47145248Y43039684D01*
X47162072Y43210500D01*
X47162072Y43674199D01*
X47179003Y43730014D01*
X47190000Y43841667D01*
X47190000Y43841676D01*
X47193676Y43878999D01*
X47190000Y43916322D01*
X47190000Y45122406D01*
X47259013Y45159294D01*
X47485134Y45344866D01*
X47670706Y45570986D01*
X47808599Y45828966D01*
X47893513Y46108889D01*
X47915000Y46327050D01*
X47915000Y47272949D01*
X47893513Y47491111D01*
X47808599Y47771034D01*
X47670706Y48029014D01*
X47485134Y48255134D01*
X47259014Y48440706D01*
X47001034Y48578599D01*
X46721111Y48663513D01*
X46430000Y48692185D01*
X46138890Y48663513D01*
X45858967Y48578599D01*
X45600987Y48440706D01*
X45374866Y48255134D01*
X45189294Y48029014D01*
X45158105Y47970663D01*
X45054176Y48130619D01*
X44850252Y48339857D01*
X44609426Y48505291D01*
X44340953Y48620563D01*
X44246890Y48641476D01*
X44017000Y48520155D01*
X44017000Y46927000D01*
X44037000Y46927000D01*
X44037000Y46673000D01*
X44017000Y46673000D01*
X44017000Y45079845D01*
X44246890Y44958524D01*
X44340953Y44979437D01*
X44609426Y45094709D01*
X44850252Y45260143D01*
X45054176Y45469381D01*
X45158105Y45629338D01*
X45189294Y45570987D01*
X45374866Y45344866D01*
X45600986Y45159294D01*
X45670001Y45122405D01*
X45670001Y44647135D01*
X45640684Y44644248D01*
X45476433Y44594423D01*
X45325058Y44513512D01*
X45229363Y44434976D01*
X45197185Y44474185D01*
X45100494Y44553537D01*
X44990180Y44612502D01*
X44870482Y44648812D01*
X44746000Y44661072D01*
X44556750Y44658000D01*
X44398000Y44499250D01*
X44398000Y43625000D01*
X44418000Y43625000D01*
X44418000Y43371000D01*
X44398000Y43371000D01*
X44398000Y43351000D01*
X44144000Y43351000D01*
X44144000Y43371000D01*
X43319750Y43371000D01*
X43161000Y43212250D01*
X43157928Y42973000D01*
X43170188Y42848518D01*
X43206498Y42728820D01*
X43265463Y42618506D01*
X43325099Y42545839D01*
X43305488Y42521942D01*
X43224577Y42370567D01*
X43174752Y42206316D01*
X43157928Y42035500D01*
X43157928Y41460500D01*
X43174752Y41289684D01*
X43224577Y41125433D01*
X43305488Y40974058D01*
X43414377Y40841377D01*
X43547058Y40732488D01*
X43698433Y40651577D01*
X43862684Y40601752D01*
X44033500Y40584928D01*
X44508500Y40584928D01*
X44679316Y40601752D01*
X44843567Y40651577D01*
X44994942Y40732488D01*
X45127623Y40841377D01*
X45160000Y40880828D01*
X45189404Y40845000D01*
X45083488Y40715942D01*
X45002577Y40564567D01*
X44952752Y40400316D01*
X44935928Y40229500D01*
X44935928Y39654500D01*
X44952752Y39483684D01*
X45002577Y39319433D01*
X45083488Y39168058D01*
X45166425Y39067000D01*
X45083488Y38965942D01*
X45076036Y38952000D01*
X42829333Y38952000D01*
X42792000Y38955677D01*
X42754667Y38952000D01*
X42643014Y38941003D01*
X42499753Y38897546D01*
X42367724Y38826974D01*
X42251999Y38732001D01*
X42228201Y38703003D01*
X42075135Y38549936D01*
X42065248Y38650316D01*
X42015423Y38814567D01*
X41934512Y38965942D01*
X41851575Y39067000D01*
X41934512Y39168058D01*
X42015423Y39319433D01*
X42065248Y39483684D01*
X42082072Y39654500D01*
X42082072Y40229500D01*
X42065248Y40400316D01*
X42015423Y40564567D01*
X41934512Y40715942D01*
X41828596Y40845000D01*
X41934512Y40974058D01*
X42015423Y41125433D01*
X42065248Y41289684D01*
X42082072Y41460500D01*
X42082072Y42035500D01*
X42065248Y42206316D01*
X42015423Y42370567D01*
X41934512Y42521942D01*
X41851575Y42623000D01*
X41934512Y42724058D01*
X42015423Y42875433D01*
X42065248Y43039684D01*
X42082072Y43210500D01*
X42082072Y43674199D01*
X42099003Y43730014D01*
X42110000Y43841667D01*
X42110000Y43841676D01*
X42113676Y43878999D01*
X42110000Y43916322D01*
X42110000Y44023000D01*
X43157928Y44023000D01*
X43161000Y43783750D01*
X43319750Y43625000D01*
X44144000Y43625000D01*
X44144000Y44499250D01*
X43985250Y44658000D01*
X43796000Y44661072D01*
X43671518Y44648812D01*
X43551820Y44612502D01*
X43441506Y44553537D01*
X43344815Y44474185D01*
X43265463Y44377494D01*
X43206498Y44267180D01*
X43170188Y44147482D01*
X43157928Y44023000D01*
X42110000Y44023000D01*
X42110000Y45122406D01*
X42179013Y45159294D01*
X42405134Y45344866D01*
X42590706Y45570986D01*
X42621895Y45629337D01*
X42725824Y45469381D01*
X42929748Y45260143D01*
X43170574Y45094709D01*
X43439047Y44979437D01*
X43533110Y44958524D01*
X43763000Y45079845D01*
X43763000Y46673000D01*
X43743000Y46673000D01*
X43743000Y46927000D01*
X43763000Y46927000D01*
X43763000Y48520155D01*
X43533110Y48641476D01*
X43439047Y48620563D01*
X43170574Y48505291D01*
X42929748Y48339857D01*
X42725824Y48130619D01*
X42621895Y47970663D01*
X42590706Y48029014D01*
X42405134Y48255134D01*
X42179014Y48440706D01*
X41921034Y48578599D01*
X41641111Y48663513D01*
X41350000Y48692185D01*
X41058890Y48663513D01*
X40778967Y48578599D01*
X40520987Y48440706D01*
X40294866Y48255134D01*
X40109294Y48029014D01*
X40078105Y47970663D01*
X39974176Y48130619D01*
X39770252Y48339857D01*
X39529426Y48505291D01*
X39260953Y48620563D01*
X39166890Y48641476D01*
X38937000Y48520155D01*
X38937000Y46927000D01*
X38957000Y46927000D01*
X38957000Y46673000D01*
X38937000Y46673000D01*
X38937000Y45079845D01*
X39166890Y44958524D01*
X39260953Y44979437D01*
X39529426Y45094709D01*
X39770252Y45260143D01*
X39974176Y45469381D01*
X40078105Y45629338D01*
X40109294Y45570987D01*
X40294866Y45344866D01*
X40520986Y45159294D01*
X40590001Y45122405D01*
X40590001Y44647135D01*
X40560684Y44644248D01*
X40396433Y44594423D01*
X40245058Y44513512D01*
X40149363Y44434976D01*
X40117185Y44474185D01*
X40020494Y44553537D01*
X39910180Y44612502D01*
X39790482Y44648812D01*
X39666000Y44661072D01*
X39476750Y44658000D01*
X39318000Y44499250D01*
X39318000Y43625000D01*
X39338000Y43625000D01*
X39338000Y43371000D01*
X39318000Y43371000D01*
X39318000Y43351000D01*
X39064000Y43351000D01*
X39064000Y43371000D01*
X38239750Y43371000D01*
X38081000Y43212250D01*
X38077928Y42973000D01*
X38090188Y42848518D01*
X38126498Y42728820D01*
X38185463Y42618506D01*
X38245099Y42545839D01*
X38225488Y42521942D01*
X38144577Y42370567D01*
X38094752Y42206316D01*
X38077928Y42035500D01*
X38077928Y41460500D01*
X38094752Y41289684D01*
X38144577Y41125433D01*
X38225488Y40974058D01*
X38334377Y40841377D01*
X38467058Y40732488D01*
X38618433Y40651577D01*
X38782684Y40601752D01*
X38953500Y40584928D01*
X39428500Y40584928D01*
X39599316Y40601752D01*
X39763567Y40651577D01*
X39914942Y40732488D01*
X40047623Y40841377D01*
X40080000Y40880828D01*
X40109404Y40845000D01*
X40003488Y40715942D01*
X39922577Y40564567D01*
X39872752Y40400316D01*
X39855928Y40229500D01*
X39855928Y39654500D01*
X39872752Y39483684D01*
X39922577Y39319433D01*
X40003488Y39168058D01*
X40086425Y39067000D01*
X40003488Y38965942D01*
X39922577Y38814567D01*
X39872752Y38650316D01*
X39855928Y38479500D01*
X39855928Y37904500D01*
X39872752Y37733684D01*
X39922577Y37569433D01*
X40003488Y37418058D01*
X40112377Y37285377D01*
X40209001Y37206079D01*
X40209000Y27383802D01*
X39449660Y26624462D01*
X39102486Y26971636D01*
X38969805Y27080525D01*
X38818430Y27161436D01*
X38654179Y27211261D01*
X38524075Y27224075D01*
X38511261Y27354179D01*
X38461436Y27518430D01*
X38380525Y27669805D01*
X38271636Y27802486D01*
X37865050Y28209072D01*
X37732369Y28317961D01*
X37580994Y28398872D01*
X37416743Y28448697D01*
X37245927Y28465521D01*
X37075111Y28448697D01*
X36910860Y28398872D01*
X36759485Y28317961D01*
X36626804Y28209072D01*
X36290928Y27873196D01*
X36260000Y27835510D01*
X36260000Y34585199D01*
X36399997Y34725196D01*
X36429001Y34748999D01*
X36523974Y34864724D01*
X36594546Y34996753D01*
X36638003Y35140014D01*
X36649000Y35251667D01*
X36649000Y35251676D01*
X36652676Y35288999D01*
X36649000Y35326322D01*
X36649000Y37206080D01*
X36745623Y37285377D01*
X36854512Y37418058D01*
X36935423Y37569433D01*
X36985248Y37733684D01*
X37002072Y37904500D01*
X37002072Y38479500D01*
X36985248Y38650316D01*
X36935423Y38814567D01*
X36854512Y38965942D01*
X36771575Y39067000D01*
X36854512Y39168058D01*
X36935423Y39319433D01*
X36985248Y39483684D01*
X37002072Y39654500D01*
X37002072Y40229500D01*
X36985248Y40400316D01*
X36935423Y40564567D01*
X36854512Y40715942D01*
X36748596Y40845000D01*
X36854512Y40974058D01*
X36935423Y41125433D01*
X36985248Y41289684D01*
X37002072Y41460500D01*
X37002072Y42035500D01*
X36985248Y42206316D01*
X36935423Y42370567D01*
X36854512Y42521942D01*
X36771575Y42623000D01*
X36854512Y42724058D01*
X36935423Y42875433D01*
X36985248Y43039684D01*
X37002072Y43210500D01*
X37002072Y43674199D01*
X37019003Y43730014D01*
X37030000Y43841667D01*
X37030000Y43841676D01*
X37033676Y43878999D01*
X37030000Y43916322D01*
X37030000Y44023000D01*
X38077928Y44023000D01*
X38081000Y43783750D01*
X38239750Y43625000D01*
X39064000Y43625000D01*
X39064000Y44499250D01*
X38905250Y44658000D01*
X38716000Y44661072D01*
X38591518Y44648812D01*
X38471820Y44612502D01*
X38361506Y44553537D01*
X38264815Y44474185D01*
X38185463Y44377494D01*
X38126498Y44267180D01*
X38090188Y44147482D01*
X38077928Y44023000D01*
X37030000Y44023000D01*
X37030000Y45122406D01*
X37099013Y45159294D01*
X37325134Y45344866D01*
X37510706Y45570986D01*
X37541895Y45629337D01*
X37645824Y45469381D01*
X37849748Y45260143D01*
X38090574Y45094709D01*
X38359047Y44979437D01*
X38453110Y44958524D01*
X38683000Y45079845D01*
X38683000Y46673000D01*
X38663000Y46673000D01*
X38663000Y46927000D01*
X38683000Y46927000D01*
X38683000Y48520155D01*
X38453110Y48641476D01*
X38359047Y48620563D01*
X38090574Y48505291D01*
X37849748Y48339857D01*
X37645824Y48130619D01*
X37541895Y47970663D01*
X37510706Y48029014D01*
X37325134Y48255134D01*
X37099014Y48440706D01*
X36841034Y48578599D01*
X36561111Y48663513D01*
X36270000Y48692185D01*
X35978890Y48663513D01*
X35698967Y48578599D01*
X35440987Y48440706D01*
X35214866Y48255134D01*
X35029294Y48029014D01*
X34998105Y47970663D01*
X34894176Y48130619D01*
X34690252Y48339857D01*
X34449426Y48505291D01*
X34180953Y48620563D01*
X34086890Y48641476D01*
X33857000Y48520155D01*
X33857000Y46927000D01*
X33877000Y46927000D01*
X33877000Y46673000D01*
X33857000Y46673000D01*
X33857000Y45079845D01*
X34086890Y44958524D01*
X34180953Y44979437D01*
X34449426Y45094709D01*
X34690252Y45260143D01*
X34894176Y45469381D01*
X34998105Y45629338D01*
X35029294Y45570987D01*
X35214866Y45344866D01*
X35440986Y45159294D01*
X35510001Y45122405D01*
X35510001Y44647135D01*
X35480684Y44644248D01*
X35316433Y44594423D01*
X35165058Y44513512D01*
X35069363Y44434976D01*
X35037185Y44474185D01*
X34940494Y44553537D01*
X34830180Y44612502D01*
X34710482Y44648812D01*
X34586000Y44661072D01*
X34396750Y44658000D01*
X34238000Y44499250D01*
X34238000Y43625000D01*
X34258000Y43625000D01*
X34258000Y43371000D01*
X34238000Y43371000D01*
X34238000Y43351000D01*
X33984000Y43351000D01*
X33984000Y43371000D01*
X33159750Y43371000D01*
X33001000Y43212250D01*
X32997928Y42973000D01*
X33010188Y42848518D01*
X33046498Y42728820D01*
X33105463Y42618506D01*
X33165099Y42545839D01*
X33145488Y42521942D01*
X33064577Y42370567D01*
X33014752Y42206316D01*
X32997928Y42035500D01*
X32997928Y41460500D01*
X33014752Y41289684D01*
X33064577Y41125433D01*
X33145488Y40974058D01*
X33254377Y40841377D01*
X33387058Y40732488D01*
X33538433Y40651577D01*
X33702684Y40601752D01*
X33873500Y40584928D01*
X34348500Y40584928D01*
X34519316Y40601752D01*
X34683567Y40651577D01*
X34834942Y40732488D01*
X34967623Y40841377D01*
X35000000Y40880828D01*
X35029404Y40845000D01*
X34923488Y40715942D01*
X34842577Y40564567D01*
X34792752Y40400316D01*
X34775928Y40229500D01*
X34775928Y39654500D01*
X34792752Y39483684D01*
X34842577Y39319433D01*
X34923488Y39168058D01*
X35006425Y39067000D01*
X34923488Y38965942D01*
X34842577Y38814567D01*
X34792752Y38650316D01*
X34775928Y38479500D01*
X34775928Y37904500D01*
X34792752Y37733684D01*
X34842577Y37569433D01*
X34923488Y37418058D01*
X35032377Y37285377D01*
X35129000Y37206080D01*
X35129001Y35845801D01*
X32271804Y38702997D01*
X32248001Y38732001D01*
X32132276Y38826974D01*
X32000247Y38897546D01*
X31856986Y38941003D01*
X31784000Y38948192D01*
X31774512Y38965942D01*
X31691575Y39067000D01*
X31774512Y39168058D01*
X31855423Y39319433D01*
X31905248Y39483684D01*
X31922072Y39654500D01*
X31922072Y40229500D01*
X31905248Y40400316D01*
X31855423Y40564567D01*
X31774512Y40715942D01*
X31668596Y40845000D01*
X31774512Y40974058D01*
X31855423Y41125433D01*
X31905248Y41289684D01*
X31922072Y41460500D01*
X31922072Y42035500D01*
X31905248Y42206316D01*
X31855423Y42370567D01*
X31774512Y42521942D01*
X31691575Y42623000D01*
X31774512Y42724058D01*
X31855423Y42875433D01*
X31905248Y43039684D01*
X31922072Y43210500D01*
X31922072Y43674199D01*
X31939003Y43730014D01*
X31950000Y43841667D01*
X31950000Y43841676D01*
X31953676Y43878999D01*
X31950000Y43916322D01*
X31950000Y44023000D01*
X32997928Y44023000D01*
X33001000Y43783750D01*
X33159750Y43625000D01*
X33984000Y43625000D01*
X33984000Y44499250D01*
X33825250Y44658000D01*
X33636000Y44661072D01*
X33511518Y44648812D01*
X33391820Y44612502D01*
X33281506Y44553537D01*
X33184815Y44474185D01*
X33105463Y44377494D01*
X33046498Y44267180D01*
X33010188Y44147482D01*
X32997928Y44023000D01*
X31950000Y44023000D01*
X31950000Y45122406D01*
X32019013Y45159294D01*
X32245134Y45344866D01*
X32430706Y45570986D01*
X32461895Y45629337D01*
X32565824Y45469381D01*
X32769748Y45260143D01*
X33010574Y45094709D01*
X33279047Y44979437D01*
X33373110Y44958524D01*
X33603000Y45079845D01*
X33603000Y46673000D01*
X33583000Y46673000D01*
X33583000Y46927000D01*
X33603000Y46927000D01*
X33603000Y48520155D01*
X33373110Y48641476D01*
X33279047Y48620563D01*
X33010574Y48505291D01*
X32769748Y48339857D01*
X32565824Y48130619D01*
X32461895Y47970663D01*
X32430706Y48029014D01*
X32245134Y48255134D01*
X32019014Y48440706D01*
X31761034Y48578599D01*
X31481111Y48663513D01*
X31190000Y48692185D01*
X30898890Y48663513D01*
X30618967Y48578599D01*
X30360987Y48440706D01*
X30134866Y48255134D01*
X29949294Y48029014D01*
X29918105Y47970663D01*
X29814176Y48130619D01*
X29610252Y48339857D01*
X29369426Y48505291D01*
X29100953Y48620563D01*
X29006890Y48641476D01*
X28777000Y48520155D01*
X28777000Y46927000D01*
X28797000Y46927000D01*
X28797000Y46673000D01*
X28777000Y46673000D01*
X28777000Y45079845D01*
X29006890Y44958524D01*
X29100953Y44979437D01*
X29369426Y45094709D01*
X29610252Y45260143D01*
X29814176Y45469381D01*
X29918105Y45629338D01*
X29949294Y45570987D01*
X30134866Y45344866D01*
X30360986Y45159294D01*
X30430001Y45122405D01*
X30430001Y44647135D01*
X30400684Y44644248D01*
X30236433Y44594423D01*
X30085058Y44513512D01*
X29989363Y44434976D01*
X29957185Y44474185D01*
X29860494Y44553537D01*
X29750180Y44612502D01*
X29630482Y44648812D01*
X29506000Y44661072D01*
X29316750Y44658000D01*
X29158000Y44499250D01*
X29158000Y43625000D01*
X29178000Y43625000D01*
X29178000Y43371000D01*
X29158000Y43371000D01*
X29158000Y43351000D01*
X28904000Y43351000D01*
X28904000Y43371000D01*
X28079750Y43371000D01*
X27921000Y43212250D01*
X27917928Y42973000D01*
X27930188Y42848518D01*
X27966498Y42728820D01*
X28025463Y42618506D01*
X28085099Y42545839D01*
X28065488Y42521942D01*
X27984577Y42370567D01*
X27934752Y42206316D01*
X27917928Y42035500D01*
X27917928Y41460500D01*
X27934752Y41289684D01*
X27984577Y41125433D01*
X28065488Y40974058D01*
X28174377Y40841377D01*
X28307058Y40732488D01*
X28458433Y40651577D01*
X28622684Y40601752D01*
X28793500Y40584928D01*
X29268500Y40584928D01*
X29439316Y40601752D01*
X29603567Y40651577D01*
X29754942Y40732488D01*
X29887623Y40841377D01*
X29920000Y40880828D01*
X29949404Y40845000D01*
X29843488Y40715942D01*
X29762577Y40564567D01*
X29712752Y40400316D01*
X29695928Y40229500D01*
X29695928Y39654500D01*
X29712752Y39483684D01*
X29762577Y39319433D01*
X29843488Y39168058D01*
X29926425Y39067000D01*
X29843488Y38965942D01*
X29762577Y38814567D01*
X29712752Y38650316D01*
X29695928Y38479500D01*
X29695928Y38078874D01*
X29071804Y38702998D01*
X29048001Y38732001D01*
X28932276Y38826974D01*
X28800247Y38897546D01*
X28656986Y38941003D01*
X28545333Y38952000D01*
X28545322Y38952000D01*
X28508000Y38955676D01*
X28470678Y38952000D01*
X26701964Y38952000D01*
X26694512Y38965942D01*
X26611575Y39067000D01*
X26694512Y39168058D01*
X26775423Y39319433D01*
X26825248Y39483684D01*
X26842072Y39654500D01*
X26842072Y40229500D01*
X26825248Y40400316D01*
X26775423Y40564567D01*
X26694512Y40715942D01*
X26594341Y40838000D01*
X26694512Y40960058D01*
X26775423Y41111433D01*
X26825248Y41275684D01*
X26842072Y41446500D01*
X26842072Y42021500D01*
X26825248Y42192316D01*
X26775423Y42356567D01*
X26694512Y42507942D01*
X26611575Y42609000D01*
X26694512Y42710058D01*
X26775423Y42861433D01*
X26825248Y43025684D01*
X26842072Y43196500D01*
X26842072Y43660199D01*
X26859003Y43716014D01*
X26870000Y43827667D01*
X26870000Y43827676D01*
X26873676Y43864999D01*
X26870000Y43902322D01*
X26870000Y44023000D01*
X27917928Y44023000D01*
X27921000Y43783750D01*
X28079750Y43625000D01*
X28904000Y43625000D01*
X28904000Y44499250D01*
X28745250Y44658000D01*
X28556000Y44661072D01*
X28431518Y44648812D01*
X28311820Y44612502D01*
X28201506Y44553537D01*
X28104815Y44474185D01*
X28025463Y44377494D01*
X27966498Y44267180D01*
X27930188Y44147482D01*
X27917928Y44023000D01*
X26870000Y44023000D01*
X26870000Y45122406D01*
X26939013Y45159294D01*
X27165134Y45344866D01*
X27350706Y45570986D01*
X27381895Y45629337D01*
X27485824Y45469381D01*
X27689748Y45260143D01*
X27930574Y45094709D01*
X28199047Y44979437D01*
X28293110Y44958524D01*
X28523000Y45079845D01*
X28523000Y46673000D01*
X28503000Y46673000D01*
X28503000Y46927000D01*
X28523000Y46927000D01*
X28523000Y48520155D01*
X28293110Y48641476D01*
X28199047Y48620563D01*
X27930574Y48505291D01*
X27689748Y48339857D01*
X27485824Y48130619D01*
X27381895Y47970663D01*
X27350706Y48029014D01*
X27165134Y48255134D01*
X26939014Y48440706D01*
X26681034Y48578599D01*
X26401111Y48663513D01*
X26110000Y48692185D01*
X25818890Y48663513D01*
X25538967Y48578599D01*
X25280987Y48440706D01*
X25054866Y48255134D01*
X24869294Y48029014D01*
X24838105Y47970663D01*
X24734176Y48130619D01*
X24530252Y48339857D01*
X24289426Y48505291D01*
X24020953Y48620563D01*
X23926890Y48641476D01*
X23697000Y48520155D01*
X23697000Y46927000D01*
X23717000Y46927000D01*
X23717000Y46673000D01*
X23697000Y46673000D01*
X23697000Y45079845D01*
X23926890Y44958524D01*
X24020953Y44979437D01*
X24289426Y45094709D01*
X24530252Y45260143D01*
X24734176Y45469381D01*
X24838105Y45629338D01*
X24869294Y45570987D01*
X25054866Y45344866D01*
X25280986Y45159294D01*
X25350001Y45122405D01*
X25350001Y44633135D01*
X25320684Y44630248D01*
X25156433Y44580423D01*
X25005058Y44499512D01*
X24916228Y44426611D01*
X24877185Y44474185D01*
X24780494Y44553537D01*
X24670180Y44612502D01*
X24550482Y44648812D01*
X24426000Y44661072D01*
X24236750Y44658000D01*
X24078000Y44499250D01*
X24078000Y43625000D01*
X24098000Y43625000D01*
X24098000Y43371000D01*
X24078000Y43371000D01*
X24078000Y43351000D01*
X23824000Y43351000D01*
X23824000Y43371000D01*
X22999750Y43371000D01*
X22841000Y43212250D01*
X22837928Y42973000D01*
X22850188Y42848518D01*
X22886498Y42728820D01*
X22945463Y42618506D01*
X23005099Y42545839D01*
X22985488Y42521942D01*
X22904577Y42370567D01*
X22854752Y42206316D01*
X22837928Y42035500D01*
X22837928Y41460500D01*
X22854752Y41289684D01*
X22904577Y41125433D01*
X22985488Y40974058D01*
X23094377Y40841377D01*
X23227058Y40732488D01*
X23378433Y40651577D01*
X23542684Y40601752D01*
X23713500Y40584928D01*
X24188500Y40584928D01*
X24359316Y40601752D01*
X24523567Y40651577D01*
X24674942Y40732488D01*
X24807623Y40841377D01*
X24834255Y40873828D01*
X24863659Y40838000D01*
X24763488Y40715942D01*
X24682577Y40564567D01*
X24632752Y40400316D01*
X24615928Y40229500D01*
X24615928Y39654500D01*
X24632752Y39483684D01*
X24682577Y39319433D01*
X24763488Y39168058D01*
X24846425Y39067000D01*
X24763488Y38965942D01*
X24682577Y38814567D01*
X24632752Y38650316D01*
X24615928Y38479500D01*
X24615928Y37904500D01*
X24632752Y37733684D01*
X24682577Y37569433D01*
X24763488Y37418058D01*
X24872377Y37285377D01*
X25005058Y37176488D01*
X25156433Y37095577D01*
X25320684Y37045752D01*
X25491500Y37028928D01*
X25966500Y37028928D01*
X26137316Y37045752D01*
X26301567Y37095577D01*
X26452942Y37176488D01*
X26585623Y37285377D01*
X26694512Y37418058D01*
X26701964Y37432000D01*
X28193199Y37432000D01*
X29036200Y36588998D01*
X29059999Y36559999D01*
X29175724Y36465026D01*
X29307753Y36394454D01*
X29451014Y36350997D01*
X29562667Y36340000D01*
X29562676Y36340000D01*
X29599999Y36336324D01*
X29637322Y36340000D01*
X31785199Y36340000D01*
X33740000Y34385198D01*
X33740001Y26729377D01*
X33600000Y26589376D01*
X33414789Y26774587D01*
X33318098Y26853939D01*
X33270059Y26879617D01*
X24938678Y35210997D01*
X24914875Y35240001D01*
X24799150Y35334974D01*
X24667121Y35405546D01*
X24523860Y35449003D01*
X24412207Y35460000D01*
X24412196Y35460000D01*
X24374874Y35463676D01*
X24337552Y35460000D01*
X23414803Y35460000D01*
X21543397Y37331404D01*
X21614512Y37418058D01*
X21695423Y37569433D01*
X21745248Y37733684D01*
X21762072Y37904500D01*
X21762072Y38479500D01*
X21745248Y38650316D01*
X21695423Y38814567D01*
X21614512Y38965942D01*
X21531575Y39067000D01*
X21614512Y39168058D01*
X21695423Y39319433D01*
X21745248Y39483684D01*
X21762072Y39654500D01*
X21762072Y40229500D01*
X21745248Y40400316D01*
X21695423Y40564567D01*
X21614512Y40715942D01*
X21508596Y40845000D01*
X21614512Y40974058D01*
X21695423Y41125433D01*
X21745248Y41289684D01*
X21762072Y41460500D01*
X21762072Y42035500D01*
X21745248Y42206316D01*
X21695423Y42370567D01*
X21614512Y42521942D01*
X21531575Y42623000D01*
X21614512Y42724058D01*
X21695423Y42875433D01*
X21745248Y43039684D01*
X21762072Y43210500D01*
X21762072Y43674199D01*
X21779003Y43730014D01*
X21790000Y43841667D01*
X21790000Y43841676D01*
X21793676Y43878999D01*
X21790000Y43916322D01*
X21790000Y44023000D01*
X22837928Y44023000D01*
X22841000Y43783750D01*
X22999750Y43625000D01*
X23824000Y43625000D01*
X23824000Y44499250D01*
X23665250Y44658000D01*
X23476000Y44661072D01*
X23351518Y44648812D01*
X23231820Y44612502D01*
X23121506Y44553537D01*
X23024815Y44474185D01*
X22945463Y44377494D01*
X22886498Y44267180D01*
X22850188Y44147482D01*
X22837928Y44023000D01*
X21790000Y44023000D01*
X21790000Y45112406D01*
X21859013Y45149294D01*
X22085134Y45334866D01*
X22270706Y45560986D01*
X22304828Y45624824D01*
X22405824Y45469381D01*
X22609748Y45260143D01*
X22850574Y45094709D01*
X23119047Y44979437D01*
X23213110Y44958524D01*
X23443000Y45079845D01*
X23443000Y46673000D01*
X23423000Y46673000D01*
X23423000Y46927000D01*
X23443000Y46927000D01*
X23443000Y48520155D01*
X23213110Y48641476D01*
X23119047Y48620563D01*
X22850574Y48505291D01*
X22609748Y48339857D01*
X22405824Y48130619D01*
X22304828Y47975176D01*
X22270706Y48039014D01*
X22085134Y48265134D01*
X21859014Y48450706D01*
X21601034Y48588599D01*
X21321111Y48673513D01*
X21030000Y48702185D01*
X20738890Y48673513D01*
X20458967Y48588599D01*
X20200987Y48450706D01*
X19974866Y48265134D01*
X19789294Y48039014D01*
X19755172Y47975176D01*
X19654176Y48130619D01*
X19450252Y48339857D01*
X19209426Y48505291D01*
X18940953Y48620563D01*
X18846890Y48641476D01*
X18617000Y48520155D01*
X18617000Y46927000D01*
X18637000Y46927000D01*
X18637000Y46673000D01*
X18617000Y46673000D01*
X18617000Y45079845D01*
X18846890Y44958524D01*
X18940953Y44979437D01*
X19209426Y45094709D01*
X19450252Y45260143D01*
X19654176Y45469381D01*
X19755172Y45624824D01*
X19789294Y45560987D01*
X19974866Y45334866D01*
X20200986Y45149294D01*
X20270001Y45112405D01*
X20270001Y44647135D01*
X20240684Y44644248D01*
X20076433Y44594423D01*
X19925058Y44513512D01*
X19829363Y44434976D01*
X19797185Y44474185D01*
X19700494Y44553537D01*
X19590180Y44612502D01*
X19470482Y44648812D01*
X19346000Y44661072D01*
X19156750Y44658000D01*
X18998000Y44499250D01*
X18998000Y43625000D01*
X19018000Y43625000D01*
X19018000Y43371000D01*
X18998000Y43371000D01*
X18998000Y43351000D01*
X18744000Y43351000D01*
X18744000Y43371000D01*
X17919750Y43371000D01*
X17761000Y43212250D01*
X17757928Y42973000D01*
X17770188Y42848518D01*
X17806498Y42728820D01*
X17865463Y42618506D01*
X17925099Y42545839D01*
X17905488Y42521942D01*
X17824577Y42370567D01*
X17774752Y42206316D01*
X17757928Y42035500D01*
X17757928Y41460500D01*
X17774752Y41289684D01*
X17824577Y41125433D01*
X17905488Y40974058D01*
X18014377Y40841377D01*
X18147058Y40732488D01*
X18298433Y40651577D01*
X18462684Y40601752D01*
X18633500Y40584928D01*
X19108500Y40584928D01*
X19279316Y40601752D01*
X19443567Y40651577D01*
X19594942Y40732488D01*
X19727623Y40841377D01*
X19760000Y40880828D01*
X19789404Y40845000D01*
X19683488Y40715942D01*
X19602577Y40564567D01*
X19552752Y40400316D01*
X19535928Y40229500D01*
X19535928Y39654500D01*
X19552752Y39483684D01*
X19602577Y39319433D01*
X19683488Y39168058D01*
X19766425Y39067000D01*
X19683488Y38965942D01*
X19602577Y38814567D01*
X19552752Y38650316D01*
X19535928Y38479500D01*
X19535928Y38160000D01*
X17614802Y38160000D01*
X17071803Y38702998D01*
X17048001Y38732001D01*
X16932276Y38826974D01*
X16800247Y38897546D01*
X16656986Y38941003D01*
X16545333Y38952000D01*
X16545322Y38952000D01*
X16541777Y38952349D01*
X16534512Y38965942D01*
X16451575Y39067000D01*
X16534512Y39168058D01*
X16615423Y39319433D01*
X16665248Y39483684D01*
X16682072Y39654500D01*
X16682072Y40229500D01*
X16665248Y40400316D01*
X16615423Y40564567D01*
X16534512Y40715942D01*
X16434341Y40838000D01*
X16534512Y40960058D01*
X16615423Y41111433D01*
X16665248Y41275684D01*
X16682072Y41446500D01*
X16682072Y42021500D01*
X16665248Y42192316D01*
X16615423Y42356567D01*
X16534512Y42507942D01*
X16451575Y42609000D01*
X16534512Y42710058D01*
X16615423Y42861433D01*
X16665248Y43025684D01*
X16682072Y43196500D01*
X16682072Y43660199D01*
X16699003Y43716014D01*
X16710000Y43827667D01*
X16710000Y43827676D01*
X16713676Y43864999D01*
X16710000Y43902322D01*
X16710000Y44023000D01*
X17757928Y44023000D01*
X17761000Y43783750D01*
X17919750Y43625000D01*
X18744000Y43625000D01*
X18744000Y44499250D01*
X18585250Y44658000D01*
X18396000Y44661072D01*
X18271518Y44648812D01*
X18151820Y44612502D01*
X18041506Y44553537D01*
X17944815Y44474185D01*
X17865463Y44377494D01*
X17806498Y44267180D01*
X17770188Y44147482D01*
X17757928Y44023000D01*
X16710000Y44023000D01*
X16710000Y45122406D01*
X16779013Y45159294D01*
X17005134Y45344866D01*
X17190706Y45570986D01*
X17221895Y45629337D01*
X17325824Y45469381D01*
X17529748Y45260143D01*
X17770574Y45094709D01*
X18039047Y44979437D01*
X18133110Y44958524D01*
X18363000Y45079845D01*
X18363000Y46673000D01*
X18343000Y46673000D01*
X18343000Y46927000D01*
X18363000Y46927000D01*
X18363000Y48520155D01*
X18133110Y48641476D01*
X18039047Y48620563D01*
X17770574Y48505291D01*
X17529748Y48339857D01*
X17325824Y48130619D01*
X17221895Y47970663D01*
X17190706Y48029014D01*
X17005134Y48255134D01*
X16779014Y48440706D01*
X16521034Y48578599D01*
X16241111Y48663513D01*
X15950000Y48692185D01*
X15658890Y48663513D01*
X15378967Y48578599D01*
X15120987Y48440706D01*
X14894866Y48255134D01*
X14709294Y48029014D01*
X14678105Y47970663D01*
X14574176Y48130619D01*
X14370252Y48339857D01*
X14129426Y48505291D01*
X13860953Y48620563D01*
X13766890Y48641476D01*
X13537000Y48520155D01*
X13537000Y46927000D01*
X13557000Y46927000D01*
X13557000Y46673000D01*
X13537000Y46673000D01*
X13537000Y45079845D01*
X13766890Y44958524D01*
X13860953Y44979437D01*
X14129426Y45094709D01*
X14370252Y45260143D01*
X14574176Y45469381D01*
X14678105Y45629338D01*
X14709294Y45570987D01*
X14894866Y45344866D01*
X15120986Y45159294D01*
X15190001Y45122405D01*
X15190001Y44633135D01*
X15160684Y44630248D01*
X14996433Y44580423D01*
X14845058Y44499512D01*
X14756228Y44426611D01*
X14717185Y44474185D01*
X14620494Y44553537D01*
X14510180Y44612502D01*
X14390482Y44648812D01*
X14266000Y44661072D01*
X14076750Y44658000D01*
X13918000Y44499250D01*
X13918000Y43625000D01*
X13938000Y43625000D01*
X13938000Y43371000D01*
X13918000Y43371000D01*
X13918000Y43351000D01*
X13664000Y43351000D01*
X13664000Y43371000D01*
X12839750Y43371000D01*
X12681000Y43212250D01*
X12677928Y42973000D01*
X12690188Y42848518D01*
X12726498Y42728820D01*
X12785463Y42618506D01*
X12845099Y42545839D01*
X12825488Y42521942D01*
X12744577Y42370567D01*
X12694752Y42206316D01*
X12677928Y42035500D01*
X12677928Y41460500D01*
X12694752Y41289684D01*
X12744577Y41125433D01*
X12825488Y40974058D01*
X12934377Y40841377D01*
X13067058Y40732488D01*
X13218433Y40651577D01*
X13382684Y40601752D01*
X13553500Y40584928D01*
X14028500Y40584928D01*
X14199316Y40601752D01*
X14363567Y40651577D01*
X14514942Y40732488D01*
X14647623Y40841377D01*
X14674255Y40873828D01*
X14703659Y40838000D01*
X14603488Y40715942D01*
X14522577Y40564567D01*
X14472752Y40400316D01*
X14455928Y40229500D01*
X14455928Y39654500D01*
X14472752Y39483684D01*
X14522577Y39319433D01*
X14603488Y39168058D01*
X14686425Y39067000D01*
X14603488Y38965942D01*
X14522577Y38814567D01*
X14472752Y38650316D01*
X14455928Y38479500D01*
X14455928Y38418873D01*
X14171804Y38702997D01*
X14148001Y38732001D01*
X14032276Y38826974D01*
X13900247Y38897546D01*
X13756986Y38941003D01*
X13645333Y38952000D01*
X13645322Y38952000D01*
X13608000Y38955676D01*
X13570678Y38952000D01*
X11461964Y38952000D01*
X11454512Y38965942D01*
X11371575Y39067000D01*
X11454512Y39168058D01*
X11535423Y39319433D01*
X11585248Y39483684D01*
X11602072Y39654500D01*
X11602072Y40229500D01*
X11585248Y40400316D01*
X11535423Y40564567D01*
X11454512Y40715942D01*
X11354341Y40838000D01*
X11454512Y40960058D01*
X11535423Y41111433D01*
X11585248Y41275684D01*
X11602072Y41446500D01*
X11602072Y42021500D01*
X11585248Y42192316D01*
X11535423Y42356567D01*
X11454512Y42507942D01*
X11371575Y42609000D01*
X11454512Y42710058D01*
X11535423Y42861433D01*
X11585248Y43025684D01*
X11602072Y43196500D01*
X11602072Y43660199D01*
X11619003Y43716014D01*
X11630000Y43827667D01*
X11630000Y43827676D01*
X11633676Y43864999D01*
X11630000Y43902322D01*
X11630000Y44023000D01*
X12677928Y44023000D01*
X12681000Y43783750D01*
X12839750Y43625000D01*
X13664000Y43625000D01*
X13664000Y44499250D01*
X13505250Y44658000D01*
X13316000Y44661072D01*
X13191518Y44648812D01*
X13071820Y44612502D01*
X12961506Y44553537D01*
X12864815Y44474185D01*
X12785463Y44377494D01*
X12726498Y44267180D01*
X12690188Y44147482D01*
X12677928Y44023000D01*
X11630000Y44023000D01*
X11630000Y45122406D01*
X11699013Y45159294D01*
X11925134Y45344866D01*
X12110706Y45570986D01*
X12141895Y45629337D01*
X12245824Y45469381D01*
X12449748Y45260143D01*
X12690574Y45094709D01*
X12959047Y44979437D01*
X13053110Y44958524D01*
X13283000Y45079845D01*
X13283000Y46673000D01*
X13263000Y46673000D01*
X13263000Y46927000D01*
X13283000Y46927000D01*
X13283000Y48520155D01*
X13053110Y48641476D01*
X12959047Y48620563D01*
X12690574Y48505291D01*
X12449748Y48339857D01*
X12245824Y48130619D01*
X12141895Y47970663D01*
X12110706Y48029014D01*
X11925134Y48255134D01*
X11699014Y48440706D01*
X11441034Y48578599D01*
X11161111Y48663513D01*
X10870000Y48692185D01*
X10578890Y48663513D01*
X10298967Y48578599D01*
X10040987Y48440706D01*
X9814866Y48255134D01*
X9629294Y48029014D01*
X9598105Y47970663D01*
X9494176Y48130619D01*
X9290252Y48339857D01*
X9049426Y48505291D01*
X8780953Y48620563D01*
X8686890Y48641476D01*
X8457000Y48520155D01*
X8457000Y46927000D01*
X8477000Y46927000D01*
X8477000Y46673000D01*
X8457000Y46673000D01*
X8457000Y45079845D01*
X8686890Y44958524D01*
X8780953Y44979437D01*
X9049426Y45094709D01*
X9290252Y45260143D01*
X9494176Y45469381D01*
X9598105Y45629338D01*
X9629294Y45570987D01*
X9814866Y45344866D01*
X10040986Y45159294D01*
X10110001Y45122405D01*
X10110001Y44633135D01*
X10080684Y44630248D01*
X9916433Y44580423D01*
X9765058Y44499512D01*
X9676228Y44426611D01*
X9637185Y44474185D01*
X9540494Y44553537D01*
X9430180Y44612502D01*
X9310482Y44648812D01*
X9186000Y44661072D01*
X8996750Y44658000D01*
X8838000Y44499250D01*
X8838000Y43625000D01*
X8858000Y43625000D01*
X8858000Y43371000D01*
X8838000Y43371000D01*
X8838000Y43351000D01*
X8584000Y43351000D01*
X8584000Y43371000D01*
X7759750Y43371000D01*
X7601000Y43212250D01*
X7597928Y42973000D01*
X7610188Y42848518D01*
X7646498Y42728820D01*
X7705463Y42618506D01*
X7765099Y42545839D01*
X7745488Y42521942D01*
X7664577Y42370567D01*
X7614752Y42206316D01*
X7597928Y42035500D01*
X7597928Y41460500D01*
X7614752Y41289684D01*
X7664577Y41125433D01*
X7745488Y40974058D01*
X7854377Y40841377D01*
X7987058Y40732488D01*
X8138433Y40651577D01*
X8302684Y40601752D01*
X8473500Y40584928D01*
X8948500Y40584928D01*
X9119316Y40601752D01*
X9283567Y40651577D01*
X9434942Y40732488D01*
X9567623Y40841377D01*
X9594255Y40873828D01*
X9623659Y40838000D01*
X9523488Y40715942D01*
X9442577Y40564567D01*
X9392752Y40400316D01*
X9375928Y40229500D01*
X9375928Y39654500D01*
X9392752Y39483684D01*
X9442577Y39319433D01*
X9523488Y39168058D01*
X9606425Y39067000D01*
X9523488Y38965942D01*
X9442577Y38814567D01*
X9392752Y38650316D01*
X9375928Y38479500D01*
X9375928Y37904500D01*
X9392752Y37733684D01*
X9442577Y37569433D01*
X9523488Y37418058D01*
X9632377Y37285377D01*
X9765058Y37176488D01*
X9916433Y37095577D01*
X10080684Y37045752D01*
X10251500Y37028928D01*
X10726500Y37028928D01*
X10897316Y37045752D01*
X11061567Y37095577D01*
X11212942Y37176488D01*
X11345623Y37285377D01*
X11454512Y37418058D01*
X11461964Y37432000D01*
X13293199Y37432000D01*
X14012974Y36712224D01*
X13952000Y36651250D01*
X13952000Y35827000D01*
X13972000Y35827000D01*
X13972000Y35573000D01*
X13952000Y35573000D01*
X13952000Y35553000D01*
X13698000Y35553000D01*
X13698000Y35573000D01*
X12823750Y35573000D01*
X12665000Y35414250D01*
X12661928Y35225000D01*
X12674188Y35100518D01*
X12710498Y34980820D01*
X12769463Y34870506D01*
X12778085Y34860000D01*
X9914802Y34860000D01*
X8599802Y36175000D01*
X12661928Y36175000D01*
X12665000Y35985750D01*
X12823750Y35827000D01*
X13698000Y35827000D01*
X13698000Y36651250D01*
X13539250Y36810000D01*
X13300000Y36813072D01*
X13175518Y36800812D01*
X13055820Y36764502D01*
X12945506Y36705537D01*
X12848815Y36626185D01*
X12769463Y36529494D01*
X12710498Y36419180D01*
X12674188Y36299482D01*
X12661928Y36175000D01*
X8599802Y36175000D01*
X8263804Y36510997D01*
X8240001Y36540001D01*
X8124276Y36634974D01*
X7992247Y36705546D01*
X7848986Y36749003D01*
X7737333Y36760000D01*
X7737322Y36760000D01*
X7700000Y36763676D01*
X7662678Y36760000D01*
X5157909Y36760000D01*
X5075799Y36882886D01*
X4882886Y37075799D01*
X4656043Y37227371D01*
X4403989Y37331775D01*
X4136411Y37385000D01*
X3863589Y37385000D01*
X3596011Y37331775D01*
X3343957Y37227371D01*
X3117114Y37075799D01*
X2924201Y36882886D01*
X2772629Y36656043D01*
X2668225Y36403989D01*
X2615000Y36136411D01*
X710000Y36136411D01*
X710000Y38043007D01*
X3222612Y38043007D01*
X3288137Y37804140D01*
X3535116Y37688240D01*
X3799960Y37622750D01*
X4072492Y37610188D01*
X4342238Y37651035D01*
X4598832Y37743723D01*
X4711863Y37804140D01*
X4777388Y38043007D01*
X4000000Y38820395D01*
X3222612Y38043007D01*
X710000Y38043007D01*
X710000Y38927508D01*
X2610188Y38927508D01*
X2651035Y38657762D01*
X2743723Y38401168D01*
X2804140Y38288137D01*
X3043007Y38222612D01*
X3820395Y39000000D01*
X4179605Y39000000D01*
X4956993Y38222612D01*
X5195860Y38288137D01*
X5311760Y38535116D01*
X5377250Y38799960D01*
X5389812Y39072492D01*
X5348965Y39342238D01*
X5256277Y39598832D01*
X5195860Y39711863D01*
X4956993Y39777388D01*
X4179605Y39000000D01*
X3820395Y39000000D01*
X3043007Y39777388D01*
X2804140Y39711863D01*
X2688240Y39464884D01*
X2622750Y39200040D01*
X2610188Y38927508D01*
X710000Y38927508D01*
X710000Y39956993D01*
X3222612Y39956993D01*
X4000000Y39179605D01*
X4777388Y39956993D01*
X4711863Y40195860D01*
X4464884Y40311760D01*
X4200040Y40377250D01*
X3927508Y40389812D01*
X3657762Y40348965D01*
X3401168Y40256277D01*
X3288137Y40195860D01*
X3222612Y39956993D01*
X710000Y39956993D01*
X710000Y44023000D01*
X7597928Y44023000D01*
X7601000Y43783750D01*
X7759750Y43625000D01*
X8584000Y43625000D01*
X8584000Y44499250D01*
X8425250Y44658000D01*
X8236000Y44661072D01*
X8111518Y44648812D01*
X7991820Y44612502D01*
X7881506Y44553537D01*
X7784815Y44474185D01*
X7705463Y44377494D01*
X7646498Y44267180D01*
X7610188Y44147482D01*
X7597928Y44023000D01*
X710000Y44023000D01*
X710000Y46673000D01*
X6845000Y46673000D01*
X6845000Y46273000D01*
X6898310Y45985731D01*
X7006639Y45714382D01*
X7165824Y45469381D01*
X7369748Y45260143D01*
X7610574Y45094709D01*
X7879047Y44979437D01*
X7973110Y44958524D01*
X8203000Y45079845D01*
X8203000Y46673000D01*
X6845000Y46673000D01*
X710000Y46673000D01*
X710000Y47327000D01*
X6845000Y47327000D01*
X6845000Y46927000D01*
X8203000Y46927000D01*
X8203000Y48520155D01*
X7973110Y48641476D01*
X7879047Y48620563D01*
X7610574Y48505291D01*
X7369748Y48339857D01*
X7165824Y48130619D01*
X7006639Y47885618D01*
X6898310Y47614269D01*
X6845000Y47327000D01*
X710000Y47327000D01*
X710000Y49290000D01*
X54290000Y49290000D01*
X54290001Y710000D01*
G37*
X54290001Y710000D02*
X710000Y710000D01*
X710000Y5220128D01*
X2765000Y5220128D01*
X2765000Y4779872D01*
X2850890Y4348075D01*
X3019369Y3941331D01*
X3263962Y3575271D01*
X3575271Y3263962D01*
X3941331Y3019369D01*
X4348075Y2850890D01*
X4779872Y2765000D01*
X5220128Y2765000D01*
X5651925Y2850890D01*
X6058669Y3019369D01*
X6424729Y3263962D01*
X6736038Y3575271D01*
X6980631Y3941331D01*
X7087775Y4200000D01*
X21031928Y4200000D01*
X21044188Y4075518D01*
X21080498Y3955820D01*
X21139463Y3845506D01*
X21218815Y3748815D01*
X21315506Y3669463D01*
X21425820Y3610498D01*
X21545518Y3574188D01*
X21670000Y3561928D01*
X22724250Y3565000D01*
X22883000Y3723750D01*
X22883000Y5873000D01*
X23137000Y5873000D01*
X23137000Y3723750D01*
X23295750Y3565000D01*
X24350000Y3561928D01*
X24474482Y3574188D01*
X24594180Y3610498D01*
X24704494Y3669463D01*
X24801185Y3748815D01*
X24880537Y3845506D01*
X24939502Y3955820D01*
X24975812Y4075518D01*
X24988072Y4200000D01*
X41011928Y4200000D01*
X41024188Y4075518D01*
X41060498Y3955820D01*
X41119463Y3845506D01*
X41198815Y3748815D01*
X41295506Y3669463D01*
X41405820Y3610498D01*
X41525518Y3574188D01*
X41650000Y3561928D01*
X42704250Y3565000D01*
X42863000Y3723750D01*
X42863000Y5873000D01*
X43117000Y5873000D01*
X43117000Y3723750D01*
X43275750Y3565000D01*
X44330000Y3561928D01*
X44454482Y3574188D01*
X44574180Y3610498D01*
X44684494Y3669463D01*
X44781185Y3748815D01*
X44860537Y3845506D01*
X44919502Y3955820D01*
X44955812Y4075518D01*
X44968072Y4200000D01*
X44966003Y5220128D01*
X47765000Y5220128D01*
X47765000Y4779872D01*
X47850890Y4348075D01*
X48019369Y3941331D01*
X48263962Y3575271D01*
X48575271Y3263962D01*
X48941331Y3019369D01*
X49348075Y2850890D01*
X49779872Y2765000D01*
X50220128Y2765000D01*
X50651925Y2850890D01*
X51058669Y3019369D01*
X51424729Y3263962D01*
X51736038Y3575271D01*
X51980631Y3941331D01*
X52149110Y4348075D01*
X52235000Y4779872D01*
X52235000Y5220128D01*
X52149110Y5651925D01*
X51980631Y6058669D01*
X51736038Y6424729D01*
X51424729Y6736038D01*
X51058669Y6980631D01*
X50651925Y7149110D01*
X50220128Y7235000D01*
X49779872Y7235000D01*
X49348075Y7149110D01*
X48941331Y6980631D01*
X48575271Y6736038D01*
X48263962Y6424729D01*
X48019369Y6058669D01*
X47850890Y5651925D01*
X47765000Y5220128D01*
X44966003Y5220128D01*
X44965000Y5714250D01*
X44806250Y5873000D01*
X43117000Y5873000D01*
X42863000Y5873000D01*
X41173750Y5873000D01*
X41015000Y5714250D01*
X41011928Y4200000D01*
X24988072Y4200000D01*
X24985000Y5714250D01*
X24826250Y5873000D01*
X23137000Y5873000D01*
X22883000Y5873000D01*
X21193750Y5873000D01*
X21035000Y5714250D01*
X21031928Y4200000D01*
X7087775Y4200000D01*
X7149110Y4348075D01*
X7235000Y4779872D01*
X7235000Y5220128D01*
X7149110Y5651925D01*
X7129197Y5700000D01*
X10261928Y5700000D01*
X10274188Y5575518D01*
X10310498Y5455820D01*
X10369463Y5345506D01*
X10448815Y5248815D01*
X10545506Y5169463D01*
X10655820Y5110498D01*
X10775518Y5074188D01*
X10900000Y5061928D01*
X12114250Y5065000D01*
X12273000Y5223750D01*
X12273000Y6373000D01*
X12527000Y6373000D01*
X12527000Y5223750D01*
X12685750Y5065000D01*
X13900000Y5061928D01*
X14024482Y5074188D01*
X14144180Y5110498D01*
X14254494Y5169463D01*
X14351185Y5248815D01*
X14430537Y5345506D01*
X14489502Y5455820D01*
X14525812Y5575518D01*
X14538072Y5700000D01*
X14535000Y6214250D01*
X14376250Y6373000D01*
X12527000Y6373000D01*
X12273000Y6373000D01*
X10423750Y6373000D01*
X10265000Y6214250D01*
X10261928Y5700000D01*
X7129197Y5700000D01*
X6980631Y6058669D01*
X6736038Y6424729D01*
X6424729Y6736038D01*
X6058669Y6980631D01*
X5651925Y7149110D01*
X5220128Y7235000D01*
X4779872Y7235000D01*
X4348075Y7149110D01*
X3941331Y6980631D01*
X3575271Y6736038D01*
X3263962Y6424729D01*
X3019369Y6058669D01*
X2850890Y5651925D01*
X2765000Y5220128D01*
X710000Y5220128D01*
X710000Y7300000D01*
X10261928Y7300000D01*
X10265000Y6785750D01*
X10423750Y6627000D01*
X12273000Y6627000D01*
X12273000Y7776250D01*
X12527000Y7776250D01*
X12527000Y6627000D01*
X14376250Y6627000D01*
X14535000Y6785750D01*
X14538072Y7300000D01*
X14525812Y7424482D01*
X14489502Y7544180D01*
X14430537Y7654494D01*
X14351185Y7751185D01*
X14254494Y7830537D01*
X14144180Y7889502D01*
X14024482Y7925812D01*
X13900000Y7938072D01*
X12685750Y7935000D01*
X12527000Y7776250D01*
X12273000Y7776250D01*
X12114250Y7935000D01*
X10900000Y7938072D01*
X10775518Y7925812D01*
X10655820Y7889502D01*
X10545506Y7830537D01*
X10448815Y7751185D01*
X10369463Y7654494D01*
X10310498Y7544180D01*
X10274188Y7424482D01*
X10261928Y7300000D01*
X710000Y7300000D01*
X710000Y10300000D01*
X6661928Y10300000D01*
X6674188Y10175518D01*
X6710498Y10055820D01*
X6769463Y9945506D01*
X6848815Y9848815D01*
X6945506Y9769463D01*
X7055820Y9710498D01*
X7175518Y9674188D01*
X7300000Y9661928D01*
X10214250Y9665000D01*
X10373000Y9823750D01*
X10373000Y13073000D01*
X10627000Y13073000D01*
X10627000Y9823750D01*
X10785750Y9665000D01*
X13700000Y9661928D01*
X13824482Y9674188D01*
X13944180Y9710498D01*
X14054494Y9769463D01*
X14151185Y9848815D01*
X14230537Y9945506D01*
X14289502Y10055820D01*
X14325812Y10175518D01*
X14338072Y10300000D01*
X14335000Y12914250D01*
X14176250Y13073000D01*
X10627000Y13073000D01*
X10373000Y13073000D01*
X6823750Y13073000D01*
X6665000Y12914250D01*
X6661928Y10300000D01*
X710000Y10300000D01*
X710000Y16100000D01*
X6661928Y16100000D01*
X6665000Y13485750D01*
X6823750Y13327000D01*
X10373000Y13327000D01*
X10373000Y16576250D01*
X10627000Y16576250D01*
X10627000Y13327000D01*
X14176250Y13327000D01*
X14335000Y13485750D01*
X14338072Y16100000D01*
X14325812Y16224482D01*
X14289502Y16344180D01*
X14230537Y16454494D01*
X14151185Y16551185D01*
X14054494Y16630537D01*
X13944180Y16689502D01*
X13824482Y16725812D01*
X13700000Y16738072D01*
X10785750Y16735000D01*
X10627000Y16576250D01*
X10373000Y16576250D01*
X10214250Y16735000D01*
X7300000Y16738072D01*
X7175518Y16725812D01*
X7055820Y16689502D01*
X6945506Y16630537D01*
X6848815Y16551185D01*
X6769463Y16454494D01*
X6710498Y16344180D01*
X6674188Y16224482D01*
X6661928Y16100000D01*
X710000Y16100000D01*
X710000Y19100000D01*
X10261928Y19100000D01*
X10274188Y18975518D01*
X10310498Y18855820D01*
X10369463Y18745506D01*
X10448815Y18648815D01*
X10545506Y18569463D01*
X10655820Y18510498D01*
X10775518Y18474188D01*
X10900000Y18461928D01*
X12114250Y18465000D01*
X12273000Y18623750D01*
X12273000Y19773000D01*
X12527000Y19773000D01*
X12527000Y18623750D01*
X12685750Y18465000D01*
X13900000Y18461928D01*
X14024482Y18474188D01*
X14144180Y18510498D01*
X14254494Y18569463D01*
X14351185Y18648815D01*
X14430537Y18745506D01*
X14489502Y18855820D01*
X14525812Y18975518D01*
X14538072Y19100000D01*
X14535000Y19614250D01*
X14376250Y19773000D01*
X12527000Y19773000D01*
X12273000Y19773000D01*
X10423750Y19773000D01*
X10265000Y19614250D01*
X10261928Y19100000D01*
X710000Y19100000D01*
X710000Y20700000D01*
X10261928Y20700000D01*
X10265000Y20185750D01*
X10423750Y20027000D01*
X12273000Y20027000D01*
X12273000Y21176250D01*
X12527000Y21176250D01*
X12527000Y20027000D01*
X14376250Y20027000D01*
X14535000Y20185750D01*
X14538072Y20700000D01*
X14525812Y20824482D01*
X14489502Y20944180D01*
X14430537Y21054494D01*
X14351185Y21151185D01*
X14254494Y21230537D01*
X14144180Y21289502D01*
X14024482Y21325812D01*
X13900000Y21338072D01*
X12685750Y21335000D01*
X12527000Y21176250D01*
X12273000Y21176250D01*
X12114250Y21335000D01*
X10900000Y21338072D01*
X10775518Y21325812D01*
X10655820Y21289502D01*
X10545506Y21230537D01*
X10448815Y21151185D01*
X10369463Y21054494D01*
X10310498Y20944180D01*
X10274188Y20824482D01*
X10261928Y20700000D01*
X710000Y20700000D01*
X710000Y27025000D01*
X12661928Y27025000D01*
X12674188Y26900518D01*
X12710498Y26780820D01*
X12769463Y26670506D01*
X12848815Y26573815D01*
X12945506Y26494463D01*
X13055820Y26435498D01*
X13175518Y26399188D01*
X13300000Y26386928D01*
X13539250Y26390000D01*
X13698000Y26548750D01*
X13698000Y27373000D01*
X12823750Y27373000D01*
X12665000Y27214250D01*
X12661928Y27025000D01*
X710000Y27025000D01*
X710000Y30220128D01*
X2765000Y30220128D01*
X2765000Y29779872D01*
X2850890Y29348075D01*
X3019369Y28941331D01*
X3263962Y28575271D01*
X3575271Y28263962D01*
X3941331Y28019369D01*
X4348075Y27850890D01*
X4779872Y27765000D01*
X5220128Y27765000D01*
X5651925Y27850890D01*
X6058669Y28019369D01*
X6424729Y28263962D01*
X6736038Y28575271D01*
X6980631Y28941331D01*
X7149110Y29348075D01*
X7235000Y29779872D01*
X7235000Y30220128D01*
X7149110Y30651925D01*
X6980631Y31058669D01*
X6736038Y31424729D01*
X6424729Y31736038D01*
X6058669Y31980631D01*
X5651925Y32149110D01*
X5220128Y32235000D01*
X4779872Y32235000D01*
X4348075Y32149110D01*
X3941331Y31980631D01*
X3575271Y31736038D01*
X3263962Y31424729D01*
X3019369Y31058669D01*
X2850890Y30651925D01*
X2765000Y30220128D01*
X710000Y30220128D01*
X710000Y36136411D01*
X2615000Y36136411D01*
X2615000Y35863589D01*
X2668225Y35596011D01*
X2772629Y35343957D01*
X2924201Y35117114D01*
X3117114Y34924201D01*
X3343957Y34772629D01*
X3596011Y34668225D01*
X3863589Y34615000D01*
X4136411Y34615000D01*
X4403989Y34668225D01*
X4656043Y34772629D01*
X4882886Y34924201D01*
X5075799Y35117114D01*
X5157909Y35240000D01*
X7385199Y35240000D01*
X9036201Y33588997D01*
X9059999Y33559999D01*
X9175724Y33465026D01*
X9307753Y33394454D01*
X9451014Y33350997D01*
X9562667Y33340000D01*
X9562675Y33340000D01*
X9600000Y33336324D01*
X9637325Y33340000D01*
X12489636Y33340000D01*
X12419463Y33254494D01*
X12360498Y33144180D01*
X12324188Y33024482D01*
X12311928Y32900000D01*
X12311928Y31900000D01*
X12324188Y31775518D01*
X12360498Y31655820D01*
X12419463Y31545506D01*
X12498815Y31448815D01*
X12591428Y31372809D01*
X12668815Y31228028D01*
X12702584Y31186880D01*
X12678752Y31108316D01*
X12661928Y30937500D01*
X12661928Y30462500D01*
X12678752Y30291684D01*
X12728577Y30127433D01*
X12777983Y30035000D01*
X12697295Y30035000D01*
X12551898Y30095226D01*
X12351939Y30135000D01*
X12148061Y30135000D01*
X11948102Y30095226D01*
X11759744Y30017205D01*
X11590226Y29903937D01*
X11446063Y29759774D01*
X11332795Y29590256D01*
X11254774Y29401898D01*
X11215000Y29201939D01*
X11215000Y28998061D01*
X11254774Y28798102D01*
X11332795Y28609744D01*
X11446063Y28440226D01*
X11590226Y28296063D01*
X11759744Y28182795D01*
X11948102Y28104774D01*
X12148061Y28065000D01*
X12351939Y28065000D01*
X12551898Y28104774D01*
X12693598Y28163469D01*
X12674188Y28099482D01*
X12661928Y27975000D01*
X12665000Y27785750D01*
X12823750Y27627000D01*
X13698000Y27627000D01*
X13698000Y27647000D01*
X13952000Y27647000D01*
X13952000Y27627000D01*
X13972000Y27627000D01*
X13972000Y27373000D01*
X13952000Y27373000D01*
X13952000Y26548750D01*
X14110750Y26390000D01*
X14350000Y26386928D01*
X14474482Y26399188D01*
X14594180Y26435498D01*
X14704494Y26494463D01*
X14777161Y26554099D01*
X14801058Y26534488D01*
X14952433Y26453577D01*
X15116684Y26403752D01*
X15287500Y26386928D01*
X15862500Y26386928D01*
X16033316Y26403752D01*
X16197567Y26453577D01*
X16348942Y26534488D01*
X16481623Y26643377D01*
X16590512Y26776058D01*
X16671423Y26927433D01*
X16721248Y27091684D01*
X16738072Y27262500D01*
X16738072Y27737500D01*
X16721248Y27908316D01*
X16671423Y28072567D01*
X16590512Y28223942D01*
X16528093Y28300000D01*
X16590512Y28376058D01*
X16671423Y28527433D01*
X16721248Y28691684D01*
X16735856Y28840000D01*
X26331646Y28840000D01*
X29061645Y26110000D01*
X28687322Y26110000D01*
X28649999Y26113676D01*
X28612676Y26110000D01*
X28612667Y26110000D01*
X28501014Y26099003D01*
X28357753Y26055546D01*
X28225724Y25984974D01*
X28109999Y25890001D01*
X28086201Y25861003D01*
X26939003Y24713804D01*
X26909999Y24690001D01*
X26878003Y24651013D01*
X26815026Y24574276D01*
X26770116Y24490256D01*
X26744454Y24442246D01*
X26700997Y24298985D01*
X26690000Y24187332D01*
X26690000Y24187322D01*
X26686324Y24150000D01*
X26690000Y24112678D01*
X26690001Y11764802D01*
X26623744Y11698545D01*
X26193631Y12128658D01*
X26164344Y12164344D01*
X26021972Y12281186D01*
X25859540Y12368007D01*
X25683292Y12421471D01*
X25545932Y12435000D01*
X25500000Y12439524D01*
X25454068Y12435000D01*
X21485000Y12435000D01*
X21485000Y15904065D01*
X21489524Y15950000D01*
X21471472Y16133292D01*
X21418007Y16309541D01*
X21376157Y16387836D01*
X21331186Y16471972D01*
X21214344Y16614344D01*
X21178664Y16643626D01*
X20677431Y17144858D01*
X20617205Y17290256D01*
X20503937Y17459774D01*
X20359774Y17603937D01*
X20268387Y17665000D01*
X20952705Y17665000D01*
X21098102Y17604774D01*
X21298061Y17565000D01*
X21501939Y17565000D01*
X21701898Y17604774D01*
X21890256Y17682795D01*
X22059774Y17796063D01*
X22203937Y17940226D01*
X22317205Y18109744D01*
X22395226Y18298102D01*
X22435000Y18498061D01*
X22435000Y18701939D01*
X22395226Y18901898D01*
X22317205Y19090256D01*
X22203937Y19259774D01*
X22059774Y19403937D01*
X21890256Y19517205D01*
X21701898Y19595226D01*
X21501939Y19635000D01*
X21298061Y19635000D01*
X21098102Y19595226D01*
X20952705Y19535000D01*
X20587289Y19535000D01*
X19593630Y20528659D01*
X19564344Y20564344D01*
X19421972Y20681186D01*
X19259540Y20768007D01*
X19083292Y20821471D01*
X18945932Y20835000D01*
X18921903Y20837367D01*
X18889502Y20944180D01*
X18830537Y21054494D01*
X18751185Y21151185D01*
X18654494Y21230537D01*
X18544180Y21289502D01*
X18424482Y21325812D01*
X18300000Y21338072D01*
X17735000Y21338072D01*
X17735000Y21712711D01*
X22087295Y26065005D01*
X24152710Y26065005D01*
X24298107Y26004779D01*
X24498066Y25965005D01*
X24701944Y25965005D01*
X24901903Y26004779D01*
X25090261Y26082800D01*
X25259779Y26196068D01*
X25403942Y26340231D01*
X25517210Y26509749D01*
X25595231Y26698107D01*
X25635005Y26898066D01*
X25635005Y27101944D01*
X25595231Y27301903D01*
X25517210Y27490261D01*
X25403942Y27659779D01*
X25259779Y27803942D01*
X25090261Y27917210D01*
X24901903Y27995231D01*
X24701944Y28035005D01*
X24498066Y28035005D01*
X24298107Y27995231D01*
X24152710Y27935005D01*
X21745940Y27935005D01*
X21700005Y27939529D01*
X21516713Y27921477D01*
X21340464Y27868012D01*
X21283885Y27837770D01*
X21178033Y27781191D01*
X21035661Y27664349D01*
X21006380Y27628669D01*
X16171336Y22793625D01*
X16135657Y22764344D01*
X16018815Y22621972D01*
X15936648Y22468247D01*
X15931994Y22459540D01*
X15878529Y22283291D01*
X15860476Y22100000D01*
X15865001Y22054058D01*
X15865001Y21338072D01*
X15300000Y21338072D01*
X15175518Y21325812D01*
X15055820Y21289502D01*
X14945506Y21230537D01*
X14848815Y21151185D01*
X14769463Y21054494D01*
X14710498Y20944180D01*
X14674188Y20824482D01*
X14661928Y20700000D01*
X14661928Y19100000D01*
X14674188Y18975518D01*
X14710498Y18855820D01*
X14769463Y18745506D01*
X14848815Y18648815D01*
X14945506Y18569463D01*
X15055820Y18510498D01*
X15175518Y18474188D01*
X15300000Y18461928D01*
X15865001Y18461928D01*
X15865000Y16718072D01*
X15700000Y16718072D01*
X15575518Y16705812D01*
X15455820Y16669502D01*
X15345506Y16610537D01*
X15248815Y16531185D01*
X15169463Y16434494D01*
X15110498Y16324180D01*
X15074188Y16204482D01*
X15061928Y16080000D01*
X15061928Y14880000D01*
X15074188Y14755518D01*
X15110498Y14635820D01*
X15169463Y14525506D01*
X15248815Y14428815D01*
X15345506Y14349463D01*
X15455820Y14290498D01*
X15575518Y14254188D01*
X15700000Y14241928D01*
X17900000Y14241928D01*
X18024482Y14254188D01*
X18144180Y14290498D01*
X18254494Y14349463D01*
X18351185Y14428815D01*
X18430537Y14525506D01*
X18489502Y14635820D01*
X18525812Y14755518D01*
X18538072Y14880000D01*
X18538072Y16080000D01*
X18525812Y16204482D01*
X18489502Y16324180D01*
X18430537Y16434494D01*
X18351185Y16531185D01*
X18254494Y16610537D01*
X18144180Y16669502D01*
X18024482Y16705812D01*
X17900000Y16718072D01*
X17735000Y16718072D01*
X17735000Y18461928D01*
X18300000Y18461928D01*
X18424482Y18474188D01*
X18544180Y18510498D01*
X18654494Y18569463D01*
X18751185Y18648815D01*
X18786214Y18691497D01*
X19506370Y17971341D01*
X19535656Y17935656D01*
X19658305Y17835000D01*
X19598061Y17835000D01*
X19398102Y17795226D01*
X19209744Y17717205D01*
X19040226Y17603937D01*
X18896063Y17459774D01*
X18782795Y17290256D01*
X18704774Y17101898D01*
X18665000Y16901939D01*
X18665000Y16698061D01*
X18704774Y16498102D01*
X18782795Y16309744D01*
X18896063Y16140226D01*
X19040226Y15996063D01*
X19209744Y15882795D01*
X19355142Y15822569D01*
X19615001Y15562709D01*
X19615000Y11845932D01*
X19615000Y11545932D01*
X19610476Y11500000D01*
X19615000Y11454069D01*
X19615001Y7887290D01*
X19162711Y7435000D01*
X18922621Y7435000D01*
X18889502Y7544180D01*
X18830537Y7654494D01*
X18751185Y7751185D01*
X18654494Y7830537D01*
X18544180Y7889502D01*
X18424482Y7925812D01*
X18300000Y7938072D01*
X17735000Y7938072D01*
X17735000Y9681928D01*
X17900000Y9681928D01*
X18024482Y9694188D01*
X18144180Y9730498D01*
X18254494Y9789463D01*
X18351185Y9868815D01*
X18430537Y9965506D01*
X18489502Y10075820D01*
X18525812Y10195518D01*
X18538072Y10320000D01*
X18538072Y11520000D01*
X18525812Y11644482D01*
X18489502Y11764180D01*
X18430537Y11874494D01*
X18351185Y11971185D01*
X18254494Y12050537D01*
X18144180Y12109502D01*
X18024482Y12145812D01*
X17900000Y12158072D01*
X15700000Y12158072D01*
X15575518Y12145812D01*
X15455820Y12109502D01*
X15345506Y12050537D01*
X15248815Y11971185D01*
X15169463Y11874494D01*
X15110498Y11764180D01*
X15074188Y11644482D01*
X15061928Y11520000D01*
X15061928Y10320000D01*
X15074188Y10195518D01*
X15110498Y10075820D01*
X15169463Y9965506D01*
X15248815Y9868815D01*
X15345506Y9789463D01*
X15455820Y9730498D01*
X15575518Y9694188D01*
X15700000Y9681928D01*
X15865000Y9681928D01*
X15865001Y7938072D01*
X15300000Y7938072D01*
X15175518Y7925812D01*
X15055820Y7889502D01*
X14945506Y7830537D01*
X14848815Y7751185D01*
X14769463Y7654494D01*
X14710498Y7544180D01*
X14674188Y7424482D01*
X14661928Y7300000D01*
X14661928Y5700000D01*
X14674188Y5575518D01*
X14710498Y5455820D01*
X14769463Y5345506D01*
X14848815Y5248815D01*
X14945506Y5169463D01*
X15055820Y5110498D01*
X15175518Y5074188D01*
X15300000Y5061928D01*
X18300000Y5061928D01*
X18424482Y5074188D01*
X18544180Y5110498D01*
X18654494Y5169463D01*
X18751185Y5248815D01*
X18830537Y5345506D01*
X18889502Y5455820D01*
X18922621Y5565000D01*
X19504068Y5565000D01*
X19550000Y5560476D01*
X19595932Y5565000D01*
X19733292Y5578529D01*
X19909540Y5631993D01*
X20071972Y5718814D01*
X20214344Y5835656D01*
X20243630Y5871341D01*
X21034237Y6661948D01*
X21035000Y6285750D01*
X21193750Y6127000D01*
X22883000Y6127000D01*
X22883000Y8276250D01*
X23137000Y8276250D01*
X23137000Y6127000D01*
X24826250Y6127000D01*
X24985000Y6285750D01*
X24988072Y7800000D01*
X24975812Y7924482D01*
X24939502Y8044180D01*
X24880537Y8154494D01*
X24801185Y8251185D01*
X24704494Y8330537D01*
X24594180Y8389502D01*
X24474482Y8425812D01*
X24350000Y8438072D01*
X23295750Y8435000D01*
X23137000Y8276250D01*
X22883000Y8276250D01*
X22724250Y8435000D01*
X21670000Y8438072D01*
X21545518Y8425812D01*
X21485000Y8407454D01*
X21485000Y10565000D01*
X25065001Y10565000D01*
X25065000Y9881964D01*
X25056928Y9800000D01*
X25056928Y7800000D01*
X25069188Y7675518D01*
X25105498Y7555820D01*
X25164463Y7445506D01*
X25243815Y7348815D01*
X25340506Y7269463D01*
X25450820Y7210498D01*
X25570518Y7174188D01*
X25695000Y7161928D01*
X26305000Y7161928D01*
X26429482Y7174188D01*
X26500000Y7195579D01*
X26570518Y7174188D01*
X26695000Y7161928D01*
X27305000Y7161928D01*
X27429482Y7174188D01*
X27500000Y7195579D01*
X27570518Y7174188D01*
X27695000Y7161928D01*
X28305000Y7161928D01*
X28429482Y7174188D01*
X28500000Y7195579D01*
X28570518Y7174188D01*
X28695000Y7161928D01*
X29305000Y7161928D01*
X29429482Y7174188D01*
X29500000Y7195579D01*
X29570518Y7174188D01*
X29695000Y7161928D01*
X30305000Y7161928D01*
X30429482Y7174188D01*
X30500000Y7195579D01*
X30570518Y7174188D01*
X30695000Y7161928D01*
X30714250Y7165000D01*
X30873000Y7323750D01*
X30873000Y7515593D01*
X30894502Y7555820D01*
X30930812Y7675518D01*
X30943072Y7800000D01*
X30943072Y9800000D01*
X30930812Y9924482D01*
X30894502Y10044180D01*
X30873000Y10084407D01*
X30873000Y10276250D01*
X30714250Y10435000D01*
X30695000Y10438072D01*
X30570518Y10425812D01*
X30500000Y10404421D01*
X30429482Y10425812D01*
X30305000Y10438072D01*
X29695000Y10438072D01*
X29570518Y10425812D01*
X29500000Y10404421D01*
X29429482Y10425812D01*
X29305000Y10438072D01*
X28760000Y10438072D01*
X28760000Y11901939D01*
X30940000Y11901939D01*
X30940000Y11698061D01*
X30979774Y11498102D01*
X31057795Y11309744D01*
X31171063Y11140226D01*
X31315226Y10996063D01*
X31484744Y10882795D01*
X31526183Y10865630D01*
X31505808Y10845255D01*
X31477762Y10822238D01*
X31385913Y10710320D01*
X31317663Y10582633D01*
X31310942Y10560476D01*
X31275635Y10444086D01*
X31273537Y10422787D01*
X31127000Y10276250D01*
X31127000Y10084407D01*
X31105498Y10044180D01*
X31069188Y9924482D01*
X31056928Y9800000D01*
X31056928Y7800000D01*
X31069188Y7675518D01*
X31105498Y7555820D01*
X31127000Y7515593D01*
X31127000Y7323750D01*
X31285750Y7165000D01*
X31305000Y7161928D01*
X31429482Y7174188D01*
X31500000Y7195579D01*
X31570518Y7174188D01*
X31695000Y7161928D01*
X32305000Y7161928D01*
X32429482Y7174188D01*
X32500000Y7195579D01*
X32570518Y7174188D01*
X32695000Y7161928D01*
X33305000Y7161928D01*
X33429482Y7174188D01*
X33500000Y7195579D01*
X33570518Y7174188D01*
X33695000Y7161928D01*
X33714250Y7165000D01*
X33873000Y7323750D01*
X33873000Y7515593D01*
X33894502Y7555820D01*
X33930812Y7675518D01*
X33943072Y7800000D01*
X33943072Y9800000D01*
X34056928Y9800000D01*
X34056928Y7800000D01*
X34069188Y7675518D01*
X34105498Y7555820D01*
X34127000Y7515593D01*
X34127000Y7323750D01*
X34285750Y7165000D01*
X34305000Y7161928D01*
X34429482Y7174188D01*
X34500000Y7195579D01*
X34570518Y7174188D01*
X34695000Y7161928D01*
X35305000Y7161928D01*
X35429482Y7174188D01*
X35500000Y7195579D01*
X35570518Y7174188D01*
X35695000Y7161928D01*
X36305000Y7161928D01*
X36429482Y7174188D01*
X36500000Y7195579D01*
X36570518Y7174188D01*
X36695000Y7161928D01*
X36714250Y7165000D01*
X36873000Y7323750D01*
X36873000Y7515593D01*
X36894502Y7555820D01*
X36930812Y7675518D01*
X36943072Y7800000D01*
X36943072Y9800000D01*
X36930812Y9924482D01*
X36894502Y10044180D01*
X36873000Y10084407D01*
X36873000Y10276250D01*
X36714250Y10435000D01*
X36695000Y10438072D01*
X36570518Y10425812D01*
X36500000Y10404421D01*
X36429482Y10425812D01*
X36305000Y10438072D01*
X35695000Y10438072D01*
X35570518Y10425812D01*
X35500000Y10404421D01*
X35429482Y10425812D01*
X35305000Y10438072D01*
X34695000Y10438072D01*
X34570518Y10425812D01*
X34500000Y10404421D01*
X34429482Y10425812D01*
X34305000Y10438072D01*
X34285750Y10435000D01*
X34127000Y10276250D01*
X34127000Y10084407D01*
X34105498Y10044180D01*
X34069188Y9924482D01*
X34056928Y9800000D01*
X33943072Y9800000D01*
X33930812Y9924482D01*
X33894502Y10044180D01*
X33873000Y10084407D01*
X33873000Y10276250D01*
X33726463Y10422787D01*
X33724365Y10444086D01*
X33682337Y10582634D01*
X33626914Y10686323D01*
X33614087Y10710321D01*
X33522237Y10822239D01*
X33494192Y10845255D01*
X33473817Y10865630D01*
X33515256Y10882795D01*
X33684774Y10996063D01*
X33828937Y11140226D01*
X33942205Y11309744D01*
X34020226Y11498102D01*
X34060000Y11698061D01*
X34060000Y11901939D01*
X34020226Y12101898D01*
X33942205Y12290256D01*
X33828937Y12459774D01*
X33684774Y12603937D01*
X33515256Y12717205D01*
X33326898Y12795226D01*
X33126939Y12835000D01*
X32923061Y12835000D01*
X32723102Y12795226D01*
X32534744Y12717205D01*
X32500000Y12693990D01*
X32465256Y12717205D01*
X32276898Y12795226D01*
X32076939Y12835000D01*
X31873061Y12835000D01*
X31673102Y12795226D01*
X31484744Y12717205D01*
X31315226Y12603937D01*
X31171063Y12459774D01*
X31057795Y12290256D01*
X30979774Y12101898D01*
X30940000Y11901939D01*
X28760000Y11901939D01*
X28760000Y22273000D01*
X29376115Y22273000D01*
X29382667Y22251399D01*
X29394403Y22229443D01*
X29410197Y22210197D01*
X29429443Y22194403D01*
X29451399Y22182667D01*
X29475224Y22175440D01*
X29500000Y22173000D01*
X29670533Y22173000D01*
X29681839Y22132525D01*
X29731245Y22034962D01*
X29698061Y22034962D01*
X29498102Y21995188D01*
X29309744Y21917167D01*
X29140226Y21803899D01*
X28996063Y21659736D01*
X28882795Y21490218D01*
X28804774Y21301860D01*
X28765000Y21101901D01*
X28765000Y20898023D01*
X28804774Y20698064D01*
X28882795Y20509706D01*
X28922702Y20449981D01*
X28882795Y20390256D01*
X28804774Y20201898D01*
X28765000Y20001939D01*
X28765000Y19798061D01*
X28804774Y19598102D01*
X28882795Y19409744D01*
X28996063Y19240226D01*
X29140226Y19096063D01*
X29309744Y18982795D01*
X29498102Y18904774D01*
X29698061Y18865000D01*
X29901939Y18865000D01*
X30101898Y18904774D01*
X30266609Y18973000D01*
X31214315Y18973000D01*
X31024201Y18782886D01*
X30872629Y18556043D01*
X30768225Y18303989D01*
X30715000Y18036411D01*
X30715000Y17763589D01*
X30768225Y17496011D01*
X30872629Y17243957D01*
X31024201Y17017114D01*
X31217114Y16824201D01*
X31443957Y16672629D01*
X31696011Y16568225D01*
X31963589Y16515000D01*
X32236411Y16515000D01*
X32503989Y16568225D01*
X32756043Y16672629D01*
X32982886Y16824201D01*
X33175799Y17017114D01*
X33327371Y17243957D01*
X33431775Y17496011D01*
X33485000Y17763589D01*
X33485000Y18036411D01*
X33431775Y18303989D01*
X33327371Y18556043D01*
X33175799Y18782886D01*
X32982886Y18975799D01*
X32876113Y19047143D01*
X32963604Y19038526D01*
X33088086Y19050786D01*
X33207784Y19087096D01*
X33318098Y19146061D01*
X33414789Y19225413D01*
X33600000Y19410624D01*
X33785211Y19225413D01*
X33881902Y19146061D01*
X33992216Y19087096D01*
X34040001Y19072601D01*
X34040000Y17042905D01*
X34036444Y17006800D01*
X34049773Y16871471D01*
X34050635Y16862716D01*
X34092663Y16724168D01*
X34160913Y16596481D01*
X34252762Y16484563D01*
X34280808Y16461546D01*
X35573851Y15168502D01*
X35351931Y14946582D01*
X35323886Y14923566D01*
X35232037Y14811648D01*
X35163787Y14683962D01*
X35157995Y14664868D01*
X35121758Y14545413D01*
X35107567Y14401328D01*
X35111124Y14365215D01*
X35111122Y13781801D01*
X35107566Y13745694D01*
X35121757Y13601609D01*
X35139664Y13542578D01*
X35163785Y13463063D01*
X35232035Y13335375D01*
X35323884Y13223457D01*
X35351929Y13200441D01*
X35564473Y12987897D01*
X35587489Y12959852D01*
X35699407Y12868003D01*
X35827095Y12799753D01*
X35965643Y12757725D01*
X36073623Y12747090D01*
X36073630Y12747090D01*
X36109725Y12743535D01*
X36145822Y12747090D01*
X36729247Y12747092D01*
X36765360Y12743535D01*
X36909445Y12757726D01*
X37007595Y12787500D01*
X37047994Y12799755D01*
X37175680Y12868005D01*
X37271009Y12946240D01*
X37246030Y12863895D01*
X37232437Y12819085D01*
X37218246Y12675000D01*
X37221802Y12638895D01*
X37221802Y12486105D01*
X37218246Y12450000D01*
X37230856Y12321972D01*
X37232437Y12305916D01*
X37274465Y12167368D01*
X37342715Y12039681D01*
X37434564Y11927763D01*
X37462610Y11904746D01*
X37524043Y11843313D01*
X37540001Y11823869D01*
X37540000Y10879447D01*
X37505808Y10845255D01*
X37477763Y10822239D01*
X37385914Y10710321D01*
X37373087Y10686323D01*
X37317664Y10582634D01*
X37275635Y10444086D01*
X37273537Y10422787D01*
X37127000Y10276250D01*
X37127000Y10084407D01*
X37105498Y10044180D01*
X37069188Y9924482D01*
X37056928Y9800000D01*
X37056928Y7800000D01*
X37069188Y7675518D01*
X37105498Y7555820D01*
X37127000Y7515593D01*
X37127000Y7323750D01*
X37285750Y7165000D01*
X37305000Y7161928D01*
X37429482Y7174188D01*
X37500000Y7195579D01*
X37570518Y7174188D01*
X37695000Y7161928D01*
X38305000Y7161928D01*
X38429482Y7174188D01*
X38500000Y7195579D01*
X38570518Y7174188D01*
X38695000Y7161928D01*
X39305000Y7161928D01*
X39429482Y7174188D01*
X39500000Y7195579D01*
X39570518Y7174188D01*
X39695000Y7161928D01*
X39714250Y7165000D01*
X39873000Y7323750D01*
X39873000Y7515593D01*
X39894502Y7555820D01*
X39930812Y7675518D01*
X39943072Y7800000D01*
X39943072Y8673000D01*
X40127000Y8673000D01*
X40127000Y7323750D01*
X40285750Y7165000D01*
X40305000Y7161928D01*
X40429482Y7174188D01*
X40549180Y7210498D01*
X40659494Y7269463D01*
X40756185Y7348815D01*
X40835537Y7445506D01*
X40894502Y7555820D01*
X40930812Y7675518D01*
X40943072Y7800000D01*
X41011928Y7800000D01*
X41015000Y6285750D01*
X41173750Y6127000D01*
X42863000Y6127000D01*
X42863000Y8276250D01*
X43117000Y8276250D01*
X43117000Y6127000D01*
X44806250Y6127000D01*
X44965000Y6285750D01*
X44968072Y7800000D01*
X44955812Y7924482D01*
X44919502Y8044180D01*
X44860537Y8154494D01*
X44781185Y8251185D01*
X44684494Y8330537D01*
X44574180Y8389502D01*
X44454482Y8425812D01*
X44330000Y8438072D01*
X43275750Y8435000D01*
X43117000Y8276250D01*
X42863000Y8276250D01*
X42704250Y8435000D01*
X41650000Y8438072D01*
X41525518Y8425812D01*
X41405820Y8389502D01*
X41295506Y8330537D01*
X41198815Y8251185D01*
X41119463Y8154494D01*
X41060498Y8044180D01*
X41024188Y7924482D01*
X41011928Y7800000D01*
X40943072Y7800000D01*
X40940000Y8514250D01*
X40781250Y8673000D01*
X40127000Y8673000D01*
X39943072Y8673000D01*
X39943072Y9800000D01*
X39930812Y9924482D01*
X39894502Y10044180D01*
X39873000Y10084407D01*
X39873000Y10276250D01*
X40127000Y10276250D01*
X40127000Y8927000D01*
X40781250Y8927000D01*
X40940000Y9085750D01*
X40943072Y9800000D01*
X40930812Y9924482D01*
X40894502Y10044180D01*
X40835537Y10154494D01*
X40756185Y10251185D01*
X40659494Y10330537D01*
X40549180Y10389502D01*
X40429482Y10425812D01*
X40305000Y10438072D01*
X40285750Y10435000D01*
X40127000Y10276250D01*
X39873000Y10276250D01*
X39726463Y10422787D01*
X39724365Y10444086D01*
X39682337Y10582634D01*
X39626914Y10686323D01*
X39614087Y10710321D01*
X39522238Y10822239D01*
X39494187Y10845260D01*
X39460000Y10879447D01*
X39460000Y13657098D01*
X39463556Y13693203D01*
X39459721Y13732140D01*
X39449365Y13837285D01*
X39429052Y13904249D01*
X39713151Y14188348D01*
X39741190Y14211359D01*
X39764203Y14239400D01*
X39764207Y14239404D01*
X39833040Y14323277D01*
X39901290Y14450964D01*
X39943318Y14589512D01*
X39957509Y14733597D01*
X39953953Y14769702D01*
X39953953Y15353138D01*
X39957508Y15389233D01*
X39953953Y15425328D01*
X39953953Y15425337D01*
X39943318Y15533317D01*
X39901290Y15671865D01*
X39833040Y15799552D01*
X39741191Y15911470D01*
X39713140Y15934491D01*
X39500608Y16147023D01*
X39477587Y16175074D01*
X39365669Y16266923D01*
X39237982Y16335173D01*
X39099434Y16377201D01*
X38991454Y16387836D01*
X38955349Y16391392D01*
X38919244Y16387836D01*
X38335819Y16387836D01*
X38299714Y16391392D01*
X38155629Y16377201D01*
X38017080Y16335173D01*
X37927891Y16287500D01*
X37889394Y16266923D01*
X37777476Y16175074D01*
X37754460Y16147029D01*
X37526096Y15918665D01*
X37519092Y15927200D01*
X37467130Y15990516D01*
X37467126Y15990520D01*
X37444115Y16018559D01*
X37416076Y16041570D01*
X36292646Y17165000D01*
X36376939Y17165000D01*
X36576898Y17204774D01*
X36765256Y17282795D01*
X36800000Y17306010D01*
X36834744Y17282795D01*
X37023102Y17204774D01*
X37223061Y17165000D01*
X37426939Y17165000D01*
X37626898Y17204774D01*
X37815256Y17282795D01*
X37984774Y17396063D01*
X38081944Y17493233D01*
X38143377Y17418377D01*
X38276058Y17309488D01*
X38427433Y17228577D01*
X38591684Y17178752D01*
X38762500Y17161928D01*
X39237500Y17161928D01*
X39408316Y17178752D01*
X39511928Y17210182D01*
X39511928Y17150000D01*
X39524188Y17025518D01*
X39560498Y16905820D01*
X39619463Y16795506D01*
X39698815Y16698815D01*
X39795506Y16619463D01*
X39905820Y16560498D01*
X40025518Y16524188D01*
X40150000Y16511928D01*
X40645015Y16511928D01*
X40628752Y16458316D01*
X40611928Y16287500D01*
X40611928Y15812500D01*
X40628752Y15641684D01*
X40678577Y15477433D01*
X40759488Y15326058D01*
X40868377Y15193377D01*
X41001058Y15084488D01*
X41152433Y15003577D01*
X41316684Y14953752D01*
X41487500Y14936928D01*
X42062500Y14936928D01*
X42233316Y14953752D01*
X42397567Y15003577D01*
X42548942Y15084488D01*
X42572839Y15104099D01*
X42645506Y15044463D01*
X42755820Y14985498D01*
X42875518Y14949188D01*
X43000000Y14936928D01*
X43239250Y14940000D01*
X43398000Y15098750D01*
X43398000Y15923000D01*
X43652000Y15923000D01*
X43652000Y15098750D01*
X43810750Y14940000D01*
X44050000Y14936928D01*
X44174482Y14949188D01*
X44294180Y14985498D01*
X44404494Y15044463D01*
X44501185Y15123815D01*
X44580537Y15220506D01*
X44639502Y15330820D01*
X44675812Y15450518D01*
X44688072Y15575000D01*
X44685000Y15764250D01*
X44526250Y15923000D01*
X43652000Y15923000D01*
X43398000Y15923000D01*
X43378000Y15923000D01*
X43378000Y16177000D01*
X43398000Y16177000D01*
X43398000Y16197000D01*
X43652000Y16197000D01*
X43652000Y16177000D01*
X44526250Y16177000D01*
X44685000Y16335750D01*
X44687890Y16513786D01*
X45150000Y16511928D01*
X45274482Y16524188D01*
X45394180Y16560498D01*
X45504494Y16619463D01*
X45601185Y16698815D01*
X45680537Y16795506D01*
X45739502Y16905820D01*
X45775812Y17025518D01*
X45788072Y17150000D01*
X45787994Y17165573D01*
X45825000Y17161928D01*
X46014250Y17165000D01*
X46173000Y17323750D01*
X46173000Y18198000D01*
X46427000Y18198000D01*
X46427000Y17323750D01*
X46585750Y17165000D01*
X46775000Y17161928D01*
X46899482Y17174188D01*
X47019180Y17210498D01*
X47129494Y17269463D01*
X47226185Y17348815D01*
X47305537Y17445506D01*
X47364502Y17555820D01*
X47400812Y17675518D01*
X47413072Y17800000D01*
X47410000Y18039250D01*
X47251250Y18198000D01*
X46427000Y18198000D01*
X46173000Y18198000D01*
X46153000Y18198000D01*
X46153000Y18452000D01*
X46173000Y18452000D01*
X46173000Y18472000D01*
X46427000Y18472000D01*
X46427000Y18452000D01*
X47251250Y18452000D01*
X47410000Y18610750D01*
X47413072Y18850000D01*
X47400812Y18974482D01*
X47364502Y19094180D01*
X47305537Y19204494D01*
X47245901Y19277161D01*
X47265512Y19301058D01*
X47346423Y19452433D01*
X47396248Y19616684D01*
X47413072Y19787500D01*
X47413072Y20362500D01*
X47396248Y20533316D01*
X47346423Y20697567D01*
X47265512Y20848942D01*
X47156623Y20981623D01*
X47023942Y21090512D01*
X46872567Y21171423D01*
X46708316Y21221248D01*
X46537500Y21238072D01*
X46062500Y21238072D01*
X45891684Y21221248D01*
X45788072Y21189818D01*
X45788072Y21250000D01*
X45775812Y21374482D01*
X45739502Y21494180D01*
X45680537Y21604494D01*
X45601185Y21701185D01*
X45504494Y21780537D01*
X45394180Y21839502D01*
X45274482Y21875812D01*
X45150000Y21888072D01*
X43486729Y21888072D01*
X43263804Y22110997D01*
X43240001Y22140001D01*
X43124276Y22234974D01*
X42992247Y22305546D01*
X42848986Y22349003D01*
X42737333Y22360000D01*
X42737322Y22360000D01*
X42700000Y22363676D01*
X42662678Y22360000D01*
X38560000Y22360000D01*
X38560000Y22396289D01*
X38603937Y22440226D01*
X38717205Y22609744D01*
X38795226Y22798102D01*
X38835000Y22998061D01*
X38835000Y23201939D01*
X38795226Y23401898D01*
X38738022Y23540000D01*
X38862678Y23540000D01*
X38900000Y23536324D01*
X38937322Y23540000D01*
X38937333Y23540000D01*
X39048986Y23550997D01*
X39192247Y23594454D01*
X39324276Y23665026D01*
X39440001Y23759999D01*
X39463804Y23789003D01*
X41961003Y26286201D01*
X41990001Y26309999D01*
X42084974Y26425724D01*
X42155546Y26557753D01*
X42199003Y26701014D01*
X42210000Y26812667D01*
X42213677Y26850000D01*
X42210000Y26887333D01*
X42210000Y30220128D01*
X47765000Y30220128D01*
X47765000Y29779872D01*
X47850890Y29348075D01*
X48019369Y28941331D01*
X48263962Y28575271D01*
X48575271Y28263962D01*
X48941331Y28019369D01*
X49348075Y27850890D01*
X49779872Y27765000D01*
X50220128Y27765000D01*
X50651925Y27850890D01*
X51058669Y28019369D01*
X51424729Y28263962D01*
X51736038Y28575271D01*
X51980631Y28941331D01*
X52149110Y29348075D01*
X52235000Y29779872D01*
X52235000Y30220128D01*
X52149110Y30651925D01*
X51980631Y31058669D01*
X51736038Y31424729D01*
X51424729Y31736038D01*
X51058669Y31980631D01*
X50651925Y32149110D01*
X50220128Y32235000D01*
X49779872Y32235000D01*
X49348075Y32149110D01*
X48941331Y31980631D01*
X48575271Y31736038D01*
X48263962Y31424729D01*
X48019369Y31058669D01*
X47850890Y30651925D01*
X47765000Y30220128D01*
X42210000Y30220128D01*
X42210000Y36535199D01*
X43106802Y37432000D01*
X45076036Y37432000D01*
X45083488Y37418058D01*
X45192377Y37285377D01*
X45325058Y37176488D01*
X45476433Y37095577D01*
X45640684Y37045752D01*
X45811500Y37028928D01*
X46286500Y37028928D01*
X46457316Y37045752D01*
X46621567Y37095577D01*
X46772942Y37176488D01*
X46905623Y37285377D01*
X47014512Y37418058D01*
X47095423Y37569433D01*
X47145248Y37733684D01*
X47162072Y37904500D01*
X47162072Y38479500D01*
X47145248Y38650316D01*
X47095423Y38814567D01*
X47014512Y38965942D01*
X46931575Y39067000D01*
X47014512Y39168058D01*
X47095423Y39319433D01*
X47145248Y39483684D01*
X47162072Y39654500D01*
X47162072Y40229500D01*
X47145248Y40400316D01*
X47095423Y40564567D01*
X47014512Y40715942D01*
X46908596Y40845000D01*
X47014512Y40974058D01*
X47095423Y41125433D01*
X47145248Y41289684D01*
X47162072Y41460500D01*
X47162072Y42035500D01*
X47145248Y42206316D01*
X47095423Y42370567D01*
X47014512Y42521942D01*
X46931575Y42623000D01*
X47014512Y42724058D01*
X47095423Y42875433D01*
X47145248Y43039684D01*
X47162072Y43210500D01*
X47162072Y43674199D01*
X47179003Y43730014D01*
X47190000Y43841667D01*
X47190000Y43841676D01*
X47193676Y43878999D01*
X47190000Y43916322D01*
X47190000Y45122406D01*
X47259013Y45159294D01*
X47485134Y45344866D01*
X47670706Y45570986D01*
X47808599Y45828966D01*
X47893513Y46108889D01*
X47915000Y46327050D01*
X47915000Y47272949D01*
X47893513Y47491111D01*
X47808599Y47771034D01*
X47670706Y48029014D01*
X47485134Y48255134D01*
X47259014Y48440706D01*
X47001034Y48578599D01*
X46721111Y48663513D01*
X46430000Y48692185D01*
X46138890Y48663513D01*
X45858967Y48578599D01*
X45600987Y48440706D01*
X45374866Y48255134D01*
X45189294Y48029014D01*
X45158105Y47970663D01*
X45054176Y48130619D01*
X44850252Y48339857D01*
X44609426Y48505291D01*
X44340953Y48620563D01*
X44246890Y48641476D01*
X44017000Y48520155D01*
X44017000Y46927000D01*
X44037000Y46927000D01*
X44037000Y46673000D01*
X44017000Y46673000D01*
X44017000Y45079845D01*
X44246890Y44958524D01*
X44340953Y44979437D01*
X44609426Y45094709D01*
X44850252Y45260143D01*
X45054176Y45469381D01*
X45158105Y45629338D01*
X45189294Y45570987D01*
X45374866Y45344866D01*
X45600986Y45159294D01*
X45670001Y45122405D01*
X45670001Y44647135D01*
X45640684Y44644248D01*
X45476433Y44594423D01*
X45325058Y44513512D01*
X45229363Y44434976D01*
X45197185Y44474185D01*
X45100494Y44553537D01*
X44990180Y44612502D01*
X44870482Y44648812D01*
X44746000Y44661072D01*
X44556750Y44658000D01*
X44398000Y44499250D01*
X44398000Y43625000D01*
X44418000Y43625000D01*
X44418000Y43371000D01*
X44398000Y43371000D01*
X44398000Y43351000D01*
X44144000Y43351000D01*
X44144000Y43371000D01*
X43319750Y43371000D01*
X43161000Y43212250D01*
X43157928Y42973000D01*
X43170188Y42848518D01*
X43206498Y42728820D01*
X43265463Y42618506D01*
X43325099Y42545839D01*
X43305488Y42521942D01*
X43224577Y42370567D01*
X43174752Y42206316D01*
X43157928Y42035500D01*
X43157928Y41460500D01*
X43174752Y41289684D01*
X43224577Y41125433D01*
X43305488Y40974058D01*
X43414377Y40841377D01*
X43547058Y40732488D01*
X43698433Y40651577D01*
X43862684Y40601752D01*
X44033500Y40584928D01*
X44508500Y40584928D01*
X44679316Y40601752D01*
X44843567Y40651577D01*
X44994942Y40732488D01*
X45127623Y40841377D01*
X45160000Y40880828D01*
X45189404Y40845000D01*
X45083488Y40715942D01*
X45002577Y40564567D01*
X44952752Y40400316D01*
X44935928Y40229500D01*
X44935928Y39654500D01*
X44952752Y39483684D01*
X45002577Y39319433D01*
X45083488Y39168058D01*
X45166425Y39067000D01*
X45083488Y38965942D01*
X45076036Y38952000D01*
X42829333Y38952000D01*
X42792000Y38955677D01*
X42754667Y38952000D01*
X42643014Y38941003D01*
X42499753Y38897546D01*
X42367724Y38826974D01*
X42251999Y38732001D01*
X42228201Y38703003D01*
X42075135Y38549936D01*
X42065248Y38650316D01*
X42015423Y38814567D01*
X41934512Y38965942D01*
X41851575Y39067000D01*
X41934512Y39168058D01*
X42015423Y39319433D01*
X42065248Y39483684D01*
X42082072Y39654500D01*
X42082072Y40229500D01*
X42065248Y40400316D01*
X42015423Y40564567D01*
X41934512Y40715942D01*
X41828596Y40845000D01*
X41934512Y40974058D01*
X42015423Y41125433D01*
X42065248Y41289684D01*
X42082072Y41460500D01*
X42082072Y42035500D01*
X42065248Y42206316D01*
X42015423Y42370567D01*
X41934512Y42521942D01*
X41851575Y42623000D01*
X41934512Y42724058D01*
X42015423Y42875433D01*
X42065248Y43039684D01*
X42082072Y43210500D01*
X42082072Y43674199D01*
X42099003Y43730014D01*
X42110000Y43841667D01*
X42110000Y43841676D01*
X42113676Y43878999D01*
X42110000Y43916322D01*
X42110000Y44023000D01*
X43157928Y44023000D01*
X43161000Y43783750D01*
X43319750Y43625000D01*
X44144000Y43625000D01*
X44144000Y44499250D01*
X43985250Y44658000D01*
X43796000Y44661072D01*
X43671518Y44648812D01*
X43551820Y44612502D01*
X43441506Y44553537D01*
X43344815Y44474185D01*
X43265463Y44377494D01*
X43206498Y44267180D01*
X43170188Y44147482D01*
X43157928Y44023000D01*
X42110000Y44023000D01*
X42110000Y45122406D01*
X42179013Y45159294D01*
X42405134Y45344866D01*
X42590706Y45570986D01*
X42621895Y45629337D01*
X42725824Y45469381D01*
X42929748Y45260143D01*
X43170574Y45094709D01*
X43439047Y44979437D01*
X43533110Y44958524D01*
X43763000Y45079845D01*
X43763000Y46673000D01*
X43743000Y46673000D01*
X43743000Y46927000D01*
X43763000Y46927000D01*
X43763000Y48520155D01*
X43533110Y48641476D01*
X43439047Y48620563D01*
X43170574Y48505291D01*
X42929748Y48339857D01*
X42725824Y48130619D01*
X42621895Y47970663D01*
X42590706Y48029014D01*
X42405134Y48255134D01*
X42179014Y48440706D01*
X41921034Y48578599D01*
X41641111Y48663513D01*
X41350000Y48692185D01*
X41058890Y48663513D01*
X40778967Y48578599D01*
X40520987Y48440706D01*
X40294866Y48255134D01*
X40109294Y48029014D01*
X40078105Y47970663D01*
X39974176Y48130619D01*
X39770252Y48339857D01*
X39529426Y48505291D01*
X39260953Y48620563D01*
X39166890Y48641476D01*
X38937000Y48520155D01*
X38937000Y46927000D01*
X38957000Y46927000D01*
X38957000Y46673000D01*
X38937000Y46673000D01*
X38937000Y45079845D01*
X39166890Y44958524D01*
X39260953Y44979437D01*
X39529426Y45094709D01*
X39770252Y45260143D01*
X39974176Y45469381D01*
X40078105Y45629338D01*
X40109294Y45570987D01*
X40294866Y45344866D01*
X40520986Y45159294D01*
X40590001Y45122405D01*
X40590001Y44647135D01*
X40560684Y44644248D01*
X40396433Y44594423D01*
X40245058Y44513512D01*
X40149363Y44434976D01*
X40117185Y44474185D01*
X40020494Y44553537D01*
X39910180Y44612502D01*
X39790482Y44648812D01*
X39666000Y44661072D01*
X39476750Y44658000D01*
X39318000Y44499250D01*
X39318000Y43625000D01*
X39338000Y43625000D01*
X39338000Y43371000D01*
X39318000Y43371000D01*
X39318000Y43351000D01*
X39064000Y43351000D01*
X39064000Y43371000D01*
X38239750Y43371000D01*
X38081000Y43212250D01*
X38077928Y42973000D01*
X38090188Y42848518D01*
X38126498Y42728820D01*
X38185463Y42618506D01*
X38245099Y42545839D01*
X38225488Y42521942D01*
X38144577Y42370567D01*
X38094752Y42206316D01*
X38077928Y42035500D01*
X38077928Y41460500D01*
X38094752Y41289684D01*
X38144577Y41125433D01*
X38225488Y40974058D01*
X38334377Y40841377D01*
X38467058Y40732488D01*
X38618433Y40651577D01*
X38782684Y40601752D01*
X38953500Y40584928D01*
X39428500Y40584928D01*
X39599316Y40601752D01*
X39763567Y40651577D01*
X39914942Y40732488D01*
X40047623Y40841377D01*
X40080000Y40880828D01*
X40109404Y40845000D01*
X40003488Y40715942D01*
X39922577Y40564567D01*
X39872752Y40400316D01*
X39855928Y40229500D01*
X39855928Y39654500D01*
X39872752Y39483684D01*
X39922577Y39319433D01*
X40003488Y39168058D01*
X40086425Y39067000D01*
X40003488Y38965942D01*
X39922577Y38814567D01*
X39872752Y38650316D01*
X39855928Y38479500D01*
X39855928Y37904500D01*
X39872752Y37733684D01*
X39922577Y37569433D01*
X40003488Y37418058D01*
X40112377Y37285377D01*
X40209001Y37206079D01*
X40209000Y27383802D01*
X39449660Y26624462D01*
X39102486Y26971636D01*
X38969805Y27080525D01*
X38818430Y27161436D01*
X38654179Y27211261D01*
X38524075Y27224075D01*
X38511261Y27354179D01*
X38461436Y27518430D01*
X38380525Y27669805D01*
X38271636Y27802486D01*
X37865050Y28209072D01*
X37732369Y28317961D01*
X37580994Y28398872D01*
X37416743Y28448697D01*
X37245927Y28465521D01*
X37075111Y28448697D01*
X36910860Y28398872D01*
X36759485Y28317961D01*
X36626804Y28209072D01*
X36290928Y27873196D01*
X36260000Y27835510D01*
X36260000Y34585199D01*
X36399997Y34725196D01*
X36429001Y34748999D01*
X36523974Y34864724D01*
X36594546Y34996753D01*
X36638003Y35140014D01*
X36649000Y35251667D01*
X36649000Y35251676D01*
X36652676Y35288999D01*
X36649000Y35326322D01*
X36649000Y37206080D01*
X36745623Y37285377D01*
X36854512Y37418058D01*
X36935423Y37569433D01*
X36985248Y37733684D01*
X37002072Y37904500D01*
X37002072Y38479500D01*
X36985248Y38650316D01*
X36935423Y38814567D01*
X36854512Y38965942D01*
X36771575Y39067000D01*
X36854512Y39168058D01*
X36935423Y39319433D01*
X36985248Y39483684D01*
X37002072Y39654500D01*
X37002072Y40229500D01*
X36985248Y40400316D01*
X36935423Y40564567D01*
X36854512Y40715942D01*
X36748596Y40845000D01*
X36854512Y40974058D01*
X36935423Y41125433D01*
X36985248Y41289684D01*
X37002072Y41460500D01*
X37002072Y42035500D01*
X36985248Y42206316D01*
X36935423Y42370567D01*
X36854512Y42521942D01*
X36771575Y42623000D01*
X36854512Y42724058D01*
X36935423Y42875433D01*
X36985248Y43039684D01*
X37002072Y43210500D01*
X37002072Y43674199D01*
X37019003Y43730014D01*
X37030000Y43841667D01*
X37030000Y43841676D01*
X37033676Y43878999D01*
X37030000Y43916322D01*
X37030000Y44023000D01*
X38077928Y44023000D01*
X38081000Y43783750D01*
X38239750Y43625000D01*
X39064000Y43625000D01*
X39064000Y44499250D01*
X38905250Y44658000D01*
X38716000Y44661072D01*
X38591518Y44648812D01*
X38471820Y44612502D01*
X38361506Y44553537D01*
X38264815Y44474185D01*
X38185463Y44377494D01*
X38126498Y44267180D01*
X38090188Y44147482D01*
X38077928Y44023000D01*
X37030000Y44023000D01*
X37030000Y45122406D01*
X37099013Y45159294D01*
X37325134Y45344866D01*
X37510706Y45570986D01*
X37541895Y45629337D01*
X37645824Y45469381D01*
X37849748Y45260143D01*
X38090574Y45094709D01*
X38359047Y44979437D01*
X38453110Y44958524D01*
X38683000Y45079845D01*
X38683000Y46673000D01*
X38663000Y46673000D01*
X38663000Y46927000D01*
X38683000Y46927000D01*
X38683000Y48520155D01*
X38453110Y48641476D01*
X38359047Y48620563D01*
X38090574Y48505291D01*
X37849748Y48339857D01*
X37645824Y48130619D01*
X37541895Y47970663D01*
X37510706Y48029014D01*
X37325134Y48255134D01*
X37099014Y48440706D01*
X36841034Y48578599D01*
X36561111Y48663513D01*
X36270000Y48692185D01*
X35978890Y48663513D01*
X35698967Y48578599D01*
X35440987Y48440706D01*
X35214866Y48255134D01*
X35029294Y48029014D01*
X34998105Y47970663D01*
X34894176Y48130619D01*
X34690252Y48339857D01*
X34449426Y48505291D01*
X34180953Y48620563D01*
X34086890Y48641476D01*
X33857000Y48520155D01*
X33857000Y46927000D01*
X33877000Y46927000D01*
X33877000Y46673000D01*
X33857000Y46673000D01*
X33857000Y45079845D01*
X34086890Y44958524D01*
X34180953Y44979437D01*
X34449426Y45094709D01*
X34690252Y45260143D01*
X34894176Y45469381D01*
X34998105Y45629338D01*
X35029294Y45570987D01*
X35214866Y45344866D01*
X35440986Y45159294D01*
X35510001Y45122405D01*
X35510001Y44647135D01*
X35480684Y44644248D01*
X35316433Y44594423D01*
X35165058Y44513512D01*
X35069363Y44434976D01*
X35037185Y44474185D01*
X34940494Y44553537D01*
X34830180Y44612502D01*
X34710482Y44648812D01*
X34586000Y44661072D01*
X34396750Y44658000D01*
X34238000Y44499250D01*
X34238000Y43625000D01*
X34258000Y43625000D01*
X34258000Y43371000D01*
X34238000Y43371000D01*
X34238000Y43351000D01*
X33984000Y43351000D01*
X33984000Y43371000D01*
X33159750Y43371000D01*
X33001000Y43212250D01*
X32997928Y42973000D01*
X33010188Y42848518D01*
X33046498Y42728820D01*
X33105463Y42618506D01*
X33165099Y42545839D01*
X33145488Y42521942D01*
X33064577Y42370567D01*
X33014752Y42206316D01*
X32997928Y42035500D01*
X32997928Y41460500D01*
X33014752Y41289684D01*
X33064577Y41125433D01*
X33145488Y40974058D01*
X33254377Y40841377D01*
X33387058Y40732488D01*
X33538433Y40651577D01*
X33702684Y40601752D01*
X33873500Y40584928D01*
X34348500Y40584928D01*
X34519316Y40601752D01*
X34683567Y40651577D01*
X34834942Y40732488D01*
X34967623Y40841377D01*
X35000000Y40880828D01*
X35029404Y40845000D01*
X34923488Y40715942D01*
X34842577Y40564567D01*
X34792752Y40400316D01*
X34775928Y40229500D01*
X34775928Y39654500D01*
X34792752Y39483684D01*
X34842577Y39319433D01*
X34923488Y39168058D01*
X35006425Y39067000D01*
X34923488Y38965942D01*
X34842577Y38814567D01*
X34792752Y38650316D01*
X34775928Y38479500D01*
X34775928Y37904500D01*
X34792752Y37733684D01*
X34842577Y37569433D01*
X34923488Y37418058D01*
X35032377Y37285377D01*
X35129000Y37206080D01*
X35129001Y35845801D01*
X32271804Y38702997D01*
X32248001Y38732001D01*
X32132276Y38826974D01*
X32000247Y38897546D01*
X31856986Y38941003D01*
X31784000Y38948192D01*
X31774512Y38965942D01*
X31691575Y39067000D01*
X31774512Y39168058D01*
X31855423Y39319433D01*
X31905248Y39483684D01*
X31922072Y39654500D01*
X31922072Y40229500D01*
X31905248Y40400316D01*
X31855423Y40564567D01*
X31774512Y40715942D01*
X31668596Y40845000D01*
X31774512Y40974058D01*
X31855423Y41125433D01*
X31905248Y41289684D01*
X31922072Y41460500D01*
X31922072Y42035500D01*
X31905248Y42206316D01*
X31855423Y42370567D01*
X31774512Y42521942D01*
X31691575Y42623000D01*
X31774512Y42724058D01*
X31855423Y42875433D01*
X31905248Y43039684D01*
X31922072Y43210500D01*
X31922072Y43674199D01*
X31939003Y43730014D01*
X31950000Y43841667D01*
X31950000Y43841676D01*
X31953676Y43878999D01*
X31950000Y43916322D01*
X31950000Y44023000D01*
X32997928Y44023000D01*
X33001000Y43783750D01*
X33159750Y43625000D01*
X33984000Y43625000D01*
X33984000Y44499250D01*
X33825250Y44658000D01*
X33636000Y44661072D01*
X33511518Y44648812D01*
X33391820Y44612502D01*
X33281506Y44553537D01*
X33184815Y44474185D01*
X33105463Y44377494D01*
X33046498Y44267180D01*
X33010188Y44147482D01*
X32997928Y44023000D01*
X31950000Y44023000D01*
X31950000Y45122406D01*
X32019013Y45159294D01*
X32245134Y45344866D01*
X32430706Y45570986D01*
X32461895Y45629337D01*
X32565824Y45469381D01*
X32769748Y45260143D01*
X33010574Y45094709D01*
X33279047Y44979437D01*
X33373110Y44958524D01*
X33603000Y45079845D01*
X33603000Y46673000D01*
X33583000Y46673000D01*
X33583000Y46927000D01*
X33603000Y46927000D01*
X33603000Y48520155D01*
X33373110Y48641476D01*
X33279047Y48620563D01*
X33010574Y48505291D01*
X32769748Y48339857D01*
X32565824Y48130619D01*
X32461895Y47970663D01*
X32430706Y48029014D01*
X32245134Y48255134D01*
X32019014Y48440706D01*
X31761034Y48578599D01*
X31481111Y48663513D01*
X31190000Y48692185D01*
X30898890Y48663513D01*
X30618967Y48578599D01*
X30360987Y48440706D01*
X30134866Y48255134D01*
X29949294Y48029014D01*
X29918105Y47970663D01*
X29814176Y48130619D01*
X29610252Y48339857D01*
X29369426Y48505291D01*
X29100953Y48620563D01*
X29006890Y48641476D01*
X28777000Y48520155D01*
X28777000Y46927000D01*
X28797000Y46927000D01*
X28797000Y46673000D01*
X28777000Y46673000D01*
X28777000Y45079845D01*
X29006890Y44958524D01*
X29100953Y44979437D01*
X29369426Y45094709D01*
X29610252Y45260143D01*
X29814176Y45469381D01*
X29918105Y45629338D01*
X29949294Y45570987D01*
X30134866Y45344866D01*
X30360986Y45159294D01*
X30430001Y45122405D01*
X30430001Y44647135D01*
X30400684Y44644248D01*
X30236433Y44594423D01*
X30085058Y44513512D01*
X29989363Y44434976D01*
X29957185Y44474185D01*
X29860494Y44553537D01*
X29750180Y44612502D01*
X29630482Y44648812D01*
X29506000Y44661072D01*
X29316750Y44658000D01*
X29158000Y44499250D01*
X29158000Y43625000D01*
X29178000Y43625000D01*
X29178000Y43371000D01*
X29158000Y43371000D01*
X29158000Y43351000D01*
X28904000Y43351000D01*
X28904000Y43371000D01*
X28079750Y43371000D01*
X27921000Y43212250D01*
X27917928Y42973000D01*
X27930188Y42848518D01*
X27966498Y42728820D01*
X28025463Y42618506D01*
X28085099Y42545839D01*
X28065488Y42521942D01*
X27984577Y42370567D01*
X27934752Y42206316D01*
X27917928Y42035500D01*
X27917928Y41460500D01*
X27934752Y41289684D01*
X27984577Y41125433D01*
X28065488Y40974058D01*
X28174377Y40841377D01*
X28307058Y40732488D01*
X28458433Y40651577D01*
X28622684Y40601752D01*
X28793500Y40584928D01*
X29268500Y40584928D01*
X29439316Y40601752D01*
X29603567Y40651577D01*
X29754942Y40732488D01*
X29887623Y40841377D01*
X29920000Y40880828D01*
X29949404Y40845000D01*
X29843488Y40715942D01*
X29762577Y40564567D01*
X29712752Y40400316D01*
X29695928Y40229500D01*
X29695928Y39654500D01*
X29712752Y39483684D01*
X29762577Y39319433D01*
X29843488Y39168058D01*
X29926425Y39067000D01*
X29843488Y38965942D01*
X29762577Y38814567D01*
X29712752Y38650316D01*
X29695928Y38479500D01*
X29695928Y38078874D01*
X29071804Y38702998D01*
X29048001Y38732001D01*
X28932276Y38826974D01*
X28800247Y38897546D01*
X28656986Y38941003D01*
X28545333Y38952000D01*
X28545322Y38952000D01*
X28508000Y38955676D01*
X28470678Y38952000D01*
X26701964Y38952000D01*
X26694512Y38965942D01*
X26611575Y39067000D01*
X26694512Y39168058D01*
X26775423Y39319433D01*
X26825248Y39483684D01*
X26842072Y39654500D01*
X26842072Y40229500D01*
X26825248Y40400316D01*
X26775423Y40564567D01*
X26694512Y40715942D01*
X26594341Y40838000D01*
X26694512Y40960058D01*
X26775423Y41111433D01*
X26825248Y41275684D01*
X26842072Y41446500D01*
X26842072Y42021500D01*
X26825248Y42192316D01*
X26775423Y42356567D01*
X26694512Y42507942D01*
X26611575Y42609000D01*
X26694512Y42710058D01*
X26775423Y42861433D01*
X26825248Y43025684D01*
X26842072Y43196500D01*
X26842072Y43660199D01*
X26859003Y43716014D01*
X26870000Y43827667D01*
X26870000Y43827676D01*
X26873676Y43864999D01*
X26870000Y43902322D01*
X26870000Y44023000D01*
X27917928Y44023000D01*
X27921000Y43783750D01*
X28079750Y43625000D01*
X28904000Y43625000D01*
X28904000Y44499250D01*
X28745250Y44658000D01*
X28556000Y44661072D01*
X28431518Y44648812D01*
X28311820Y44612502D01*
X28201506Y44553537D01*
X28104815Y44474185D01*
X28025463Y44377494D01*
X27966498Y44267180D01*
X27930188Y44147482D01*
X27917928Y44023000D01*
X26870000Y44023000D01*
X26870000Y45122406D01*
X26939013Y45159294D01*
X27165134Y45344866D01*
X27350706Y45570986D01*
X27381895Y45629337D01*
X27485824Y45469381D01*
X27689748Y45260143D01*
X27930574Y45094709D01*
X28199047Y44979437D01*
X28293110Y44958524D01*
X28523000Y45079845D01*
X28523000Y46673000D01*
X28503000Y46673000D01*
X28503000Y46927000D01*
X28523000Y46927000D01*
X28523000Y48520155D01*
X28293110Y48641476D01*
X28199047Y48620563D01*
X27930574Y48505291D01*
X27689748Y48339857D01*
X27485824Y48130619D01*
X27381895Y47970663D01*
X27350706Y48029014D01*
X27165134Y48255134D01*
X26939014Y48440706D01*
X26681034Y48578599D01*
X26401111Y48663513D01*
X26110000Y48692185D01*
X25818890Y48663513D01*
X25538967Y48578599D01*
X25280987Y48440706D01*
X25054866Y48255134D01*
X24869294Y48029014D01*
X24838105Y47970663D01*
X24734176Y48130619D01*
X24530252Y48339857D01*
X24289426Y48505291D01*
X24020953Y48620563D01*
X23926890Y48641476D01*
X23697000Y48520155D01*
X23697000Y46927000D01*
X23717000Y46927000D01*
X23717000Y46673000D01*
X23697000Y46673000D01*
X23697000Y45079845D01*
X23926890Y44958524D01*
X24020953Y44979437D01*
X24289426Y45094709D01*
X24530252Y45260143D01*
X24734176Y45469381D01*
X24838105Y45629338D01*
X24869294Y45570987D01*
X25054866Y45344866D01*
X25280986Y45159294D01*
X25350001Y45122405D01*
X25350001Y44633135D01*
X25320684Y44630248D01*
X25156433Y44580423D01*
X25005058Y44499512D01*
X24916228Y44426611D01*
X24877185Y44474185D01*
X24780494Y44553537D01*
X24670180Y44612502D01*
X24550482Y44648812D01*
X24426000Y44661072D01*
X24236750Y44658000D01*
X24078000Y44499250D01*
X24078000Y43625000D01*
X24098000Y43625000D01*
X24098000Y43371000D01*
X24078000Y43371000D01*
X24078000Y43351000D01*
X23824000Y43351000D01*
X23824000Y43371000D01*
X22999750Y43371000D01*
X22841000Y43212250D01*
X22837928Y42973000D01*
X22850188Y42848518D01*
X22886498Y42728820D01*
X22945463Y42618506D01*
X23005099Y42545839D01*
X22985488Y42521942D01*
X22904577Y42370567D01*
X22854752Y42206316D01*
X22837928Y42035500D01*
X22837928Y41460500D01*
X22854752Y41289684D01*
X22904577Y41125433D01*
X22985488Y40974058D01*
X23094377Y40841377D01*
X23227058Y40732488D01*
X23378433Y40651577D01*
X23542684Y40601752D01*
X23713500Y40584928D01*
X24188500Y40584928D01*
X24359316Y40601752D01*
X24523567Y40651577D01*
X24674942Y40732488D01*
X24807623Y40841377D01*
X24834255Y40873828D01*
X24863659Y40838000D01*
X24763488Y40715942D01*
X24682577Y40564567D01*
X24632752Y40400316D01*
X24615928Y40229500D01*
X24615928Y39654500D01*
X24632752Y39483684D01*
X24682577Y39319433D01*
X24763488Y39168058D01*
X24846425Y39067000D01*
X24763488Y38965942D01*
X24682577Y38814567D01*
X24632752Y38650316D01*
X24615928Y38479500D01*
X24615928Y37904500D01*
X24632752Y37733684D01*
X24682577Y37569433D01*
X24763488Y37418058D01*
X24872377Y37285377D01*
X25005058Y37176488D01*
X25156433Y37095577D01*
X25320684Y37045752D01*
X25491500Y37028928D01*
X25966500Y37028928D01*
X26137316Y37045752D01*
X26301567Y37095577D01*
X26452942Y37176488D01*
X26585623Y37285377D01*
X26694512Y37418058D01*
X26701964Y37432000D01*
X28193199Y37432000D01*
X29036200Y36588998D01*
X29059999Y36559999D01*
X29175724Y36465026D01*
X29307753Y36394454D01*
X29451014Y36350997D01*
X29562667Y36340000D01*
X29562676Y36340000D01*
X29599999Y36336324D01*
X29637322Y36340000D01*
X31785199Y36340000D01*
X33740000Y34385198D01*
X33740001Y26729377D01*
X33600000Y26589376D01*
X33414789Y26774587D01*
X33318098Y26853939D01*
X33270059Y26879617D01*
X24938678Y35210997D01*
X24914875Y35240001D01*
X24799150Y35334974D01*
X24667121Y35405546D01*
X24523860Y35449003D01*
X24412207Y35460000D01*
X24412196Y35460000D01*
X24374874Y35463676D01*
X24337552Y35460000D01*
X23414803Y35460000D01*
X21543397Y37331404D01*
X21614512Y37418058D01*
X21695423Y37569433D01*
X21745248Y37733684D01*
X21762072Y37904500D01*
X21762072Y38479500D01*
X21745248Y38650316D01*
X21695423Y38814567D01*
X21614512Y38965942D01*
X21531575Y39067000D01*
X21614512Y39168058D01*
X21695423Y39319433D01*
X21745248Y39483684D01*
X21762072Y39654500D01*
X21762072Y40229500D01*
X21745248Y40400316D01*
X21695423Y40564567D01*
X21614512Y40715942D01*
X21508596Y40845000D01*
X21614512Y40974058D01*
X21695423Y41125433D01*
X21745248Y41289684D01*
X21762072Y41460500D01*
X21762072Y42035500D01*
X21745248Y42206316D01*
X21695423Y42370567D01*
X21614512Y42521942D01*
X21531575Y42623000D01*
X21614512Y42724058D01*
X21695423Y42875433D01*
X21745248Y43039684D01*
X21762072Y43210500D01*
X21762072Y43674199D01*
X21779003Y43730014D01*
X21790000Y43841667D01*
X21790000Y43841676D01*
X21793676Y43878999D01*
X21790000Y43916322D01*
X21790000Y44023000D01*
X22837928Y44023000D01*
X22841000Y43783750D01*
X22999750Y43625000D01*
X23824000Y43625000D01*
X23824000Y44499250D01*
X23665250Y44658000D01*
X23476000Y44661072D01*
X23351518Y44648812D01*
X23231820Y44612502D01*
X23121506Y44553537D01*
X23024815Y44474185D01*
X22945463Y44377494D01*
X22886498Y44267180D01*
X22850188Y44147482D01*
X22837928Y44023000D01*
X21790000Y44023000D01*
X21790000Y45112406D01*
X21859013Y45149294D01*
X22085134Y45334866D01*
X22270706Y45560986D01*
X22304828Y45624824D01*
X22405824Y45469381D01*
X22609748Y45260143D01*
X22850574Y45094709D01*
X23119047Y44979437D01*
X23213110Y44958524D01*
X23443000Y45079845D01*
X23443000Y46673000D01*
X23423000Y46673000D01*
X23423000Y46927000D01*
X23443000Y46927000D01*
X23443000Y48520155D01*
X23213110Y48641476D01*
X23119047Y48620563D01*
X22850574Y48505291D01*
X22609748Y48339857D01*
X22405824Y48130619D01*
X22304828Y47975176D01*
X22270706Y48039014D01*
X22085134Y48265134D01*
X21859014Y48450706D01*
X21601034Y48588599D01*
X21321111Y48673513D01*
X21030000Y48702185D01*
X20738890Y48673513D01*
X20458967Y48588599D01*
X20200987Y48450706D01*
X19974866Y48265134D01*
X19789294Y48039014D01*
X19755172Y47975176D01*
X19654176Y48130619D01*
X19450252Y48339857D01*
X19209426Y48505291D01*
X18940953Y48620563D01*
X18846890Y48641476D01*
X18617000Y48520155D01*
X18617000Y46927000D01*
X18637000Y46927000D01*
X18637000Y46673000D01*
X18617000Y46673000D01*
X18617000Y45079845D01*
X18846890Y44958524D01*
X18940953Y44979437D01*
X19209426Y45094709D01*
X19450252Y45260143D01*
X19654176Y45469381D01*
X19755172Y45624824D01*
X19789294Y45560987D01*
X19974866Y45334866D01*
X20200986Y45149294D01*
X20270001Y45112405D01*
X20270001Y44647135D01*
X20240684Y44644248D01*
X20076433Y44594423D01*
X19925058Y44513512D01*
X19829363Y44434976D01*
X19797185Y44474185D01*
X19700494Y44553537D01*
X19590180Y44612502D01*
X19470482Y44648812D01*
X19346000Y44661072D01*
X19156750Y44658000D01*
X18998000Y44499250D01*
X18998000Y43625000D01*
X19018000Y43625000D01*
X19018000Y43371000D01*
X18998000Y43371000D01*
X18998000Y43351000D01*
X18744000Y43351000D01*
X18744000Y43371000D01*
X17919750Y43371000D01*
X17761000Y43212250D01*
X17757928Y42973000D01*
X17770188Y42848518D01*
X17806498Y42728820D01*
X17865463Y42618506D01*
X17925099Y42545839D01*
X17905488Y42521942D01*
X17824577Y42370567D01*
X17774752Y42206316D01*
X17757928Y42035500D01*
X17757928Y41460500D01*
X17774752Y41289684D01*
X17824577Y41125433D01*
X17905488Y40974058D01*
X18014377Y40841377D01*
X18147058Y40732488D01*
X18298433Y40651577D01*
X18462684Y40601752D01*
X18633500Y40584928D01*
X19108500Y40584928D01*
X19279316Y40601752D01*
X19443567Y40651577D01*
X19594942Y40732488D01*
X19727623Y40841377D01*
X19760000Y40880828D01*
X19789404Y40845000D01*
X19683488Y40715942D01*
X19602577Y40564567D01*
X19552752Y40400316D01*
X19535928Y40229500D01*
X19535928Y39654500D01*
X19552752Y39483684D01*
X19602577Y39319433D01*
X19683488Y39168058D01*
X19766425Y39067000D01*
X19683488Y38965942D01*
X19602577Y38814567D01*
X19552752Y38650316D01*
X19535928Y38479500D01*
X19535928Y38160000D01*
X17614802Y38160000D01*
X17071803Y38702998D01*
X17048001Y38732001D01*
X16932276Y38826974D01*
X16800247Y38897546D01*
X16656986Y38941003D01*
X16545333Y38952000D01*
X16545322Y38952000D01*
X16541777Y38952349D01*
X16534512Y38965942D01*
X16451575Y39067000D01*
X16534512Y39168058D01*
X16615423Y39319433D01*
X16665248Y39483684D01*
X16682072Y39654500D01*
X16682072Y40229500D01*
X16665248Y40400316D01*
X16615423Y40564567D01*
X16534512Y40715942D01*
X16434341Y40838000D01*
X16534512Y40960058D01*
X16615423Y41111433D01*
X16665248Y41275684D01*
X16682072Y41446500D01*
X16682072Y42021500D01*
X16665248Y42192316D01*
X16615423Y42356567D01*
X16534512Y42507942D01*
X16451575Y42609000D01*
X16534512Y42710058D01*
X16615423Y42861433D01*
X16665248Y43025684D01*
X16682072Y43196500D01*
X16682072Y43660199D01*
X16699003Y43716014D01*
X16710000Y43827667D01*
X16710000Y43827676D01*
X16713676Y43864999D01*
X16710000Y43902322D01*
X16710000Y44023000D01*
X17757928Y44023000D01*
X17761000Y43783750D01*
X17919750Y43625000D01*
X18744000Y43625000D01*
X18744000Y44499250D01*
X18585250Y44658000D01*
X18396000Y44661072D01*
X18271518Y44648812D01*
X18151820Y44612502D01*
X18041506Y44553537D01*
X17944815Y44474185D01*
X17865463Y44377494D01*
X17806498Y44267180D01*
X17770188Y44147482D01*
X17757928Y44023000D01*
X16710000Y44023000D01*
X16710000Y45122406D01*
X16779013Y45159294D01*
X17005134Y45344866D01*
X17190706Y45570986D01*
X17221895Y45629337D01*
X17325824Y45469381D01*
X17529748Y45260143D01*
X17770574Y45094709D01*
X18039047Y44979437D01*
X18133110Y44958524D01*
X18363000Y45079845D01*
X18363000Y46673000D01*
X18343000Y46673000D01*
X18343000Y46927000D01*
X18363000Y46927000D01*
X18363000Y48520155D01*
X18133110Y48641476D01*
X18039047Y48620563D01*
X17770574Y48505291D01*
X17529748Y48339857D01*
X17325824Y48130619D01*
X17221895Y47970663D01*
X17190706Y48029014D01*
X17005134Y48255134D01*
X16779014Y48440706D01*
X16521034Y48578599D01*
X16241111Y48663513D01*
X15950000Y48692185D01*
X15658890Y48663513D01*
X15378967Y48578599D01*
X15120987Y48440706D01*
X14894866Y48255134D01*
X14709294Y48029014D01*
X14678105Y47970663D01*
X14574176Y48130619D01*
X14370252Y48339857D01*
X14129426Y48505291D01*
X13860953Y48620563D01*
X13766890Y48641476D01*
X13537000Y48520155D01*
X13537000Y46927000D01*
X13557000Y46927000D01*
X13557000Y46673000D01*
X13537000Y46673000D01*
X13537000Y45079845D01*
X13766890Y44958524D01*
X13860953Y44979437D01*
X14129426Y45094709D01*
X14370252Y45260143D01*
X14574176Y45469381D01*
X14678105Y45629338D01*
X14709294Y45570987D01*
X14894866Y45344866D01*
X15120986Y45159294D01*
X15190001Y45122405D01*
X15190001Y44633135D01*
X15160684Y44630248D01*
X14996433Y44580423D01*
X14845058Y44499512D01*
X14756228Y44426611D01*
X14717185Y44474185D01*
X14620494Y44553537D01*
X14510180Y44612502D01*
X14390482Y44648812D01*
X14266000Y44661072D01*
X14076750Y44658000D01*
X13918000Y44499250D01*
X13918000Y43625000D01*
X13938000Y43625000D01*
X13938000Y43371000D01*
X13918000Y43371000D01*
X13918000Y43351000D01*
X13664000Y43351000D01*
X13664000Y43371000D01*
X12839750Y43371000D01*
X12681000Y43212250D01*
X12677928Y42973000D01*
X12690188Y42848518D01*
X12726498Y42728820D01*
X12785463Y42618506D01*
X12845099Y42545839D01*
X12825488Y42521942D01*
X12744577Y42370567D01*
X12694752Y42206316D01*
X12677928Y42035500D01*
X12677928Y41460500D01*
X12694752Y41289684D01*
X12744577Y41125433D01*
X12825488Y40974058D01*
X12934377Y40841377D01*
X13067058Y40732488D01*
X13218433Y40651577D01*
X13382684Y40601752D01*
X13553500Y40584928D01*
X14028500Y40584928D01*
X14199316Y40601752D01*
X14363567Y40651577D01*
X14514942Y40732488D01*
X14647623Y40841377D01*
X14674255Y40873828D01*
X14703659Y40838000D01*
X14603488Y40715942D01*
X14522577Y40564567D01*
X14472752Y40400316D01*
X14455928Y40229500D01*
X14455928Y39654500D01*
X14472752Y39483684D01*
X14522577Y39319433D01*
X14603488Y39168058D01*
X14686425Y39067000D01*
X14603488Y38965942D01*
X14522577Y38814567D01*
X14472752Y38650316D01*
X14455928Y38479500D01*
X14455928Y38418873D01*
X14171804Y38702997D01*
X14148001Y38732001D01*
X14032276Y38826974D01*
X13900247Y38897546D01*
X13756986Y38941003D01*
X13645333Y38952000D01*
X13645322Y38952000D01*
X13608000Y38955676D01*
X13570678Y38952000D01*
X11461964Y38952000D01*
X11454512Y38965942D01*
X11371575Y39067000D01*
X11454512Y39168058D01*
X11535423Y39319433D01*
X11585248Y39483684D01*
X11602072Y39654500D01*
X11602072Y40229500D01*
X11585248Y40400316D01*
X11535423Y40564567D01*
X11454512Y40715942D01*
X11354341Y40838000D01*
X11454512Y40960058D01*
X11535423Y41111433D01*
X11585248Y41275684D01*
X11602072Y41446500D01*
X11602072Y42021500D01*
X11585248Y42192316D01*
X11535423Y42356567D01*
X11454512Y42507942D01*
X11371575Y42609000D01*
X11454512Y42710058D01*
X11535423Y42861433D01*
X11585248Y43025684D01*
X11602072Y43196500D01*
X11602072Y43660199D01*
X11619003Y43716014D01*
X11630000Y43827667D01*
X11630000Y43827676D01*
X11633676Y43864999D01*
X11630000Y43902322D01*
X11630000Y44023000D01*
X12677928Y44023000D01*
X12681000Y43783750D01*
X12839750Y43625000D01*
X13664000Y43625000D01*
X13664000Y44499250D01*
X13505250Y44658000D01*
X13316000Y44661072D01*
X13191518Y44648812D01*
X13071820Y44612502D01*
X12961506Y44553537D01*
X12864815Y44474185D01*
X12785463Y44377494D01*
X12726498Y44267180D01*
X12690188Y44147482D01*
X12677928Y44023000D01*
X11630000Y44023000D01*
X11630000Y45122406D01*
X11699013Y45159294D01*
X11925134Y45344866D01*
X12110706Y45570986D01*
X12141895Y45629337D01*
X12245824Y45469381D01*
X12449748Y45260143D01*
X12690574Y45094709D01*
X12959047Y44979437D01*
X13053110Y44958524D01*
X13283000Y45079845D01*
X13283000Y46673000D01*
X13263000Y46673000D01*
X13263000Y46927000D01*
X13283000Y46927000D01*
X13283000Y48520155D01*
X13053110Y48641476D01*
X12959047Y48620563D01*
X12690574Y48505291D01*
X12449748Y48339857D01*
X12245824Y48130619D01*
X12141895Y47970663D01*
X12110706Y48029014D01*
X11925134Y48255134D01*
X11699014Y48440706D01*
X11441034Y48578599D01*
X11161111Y48663513D01*
X10870000Y48692185D01*
X10578890Y48663513D01*
X10298967Y48578599D01*
X10040987Y48440706D01*
X9814866Y48255134D01*
X9629294Y48029014D01*
X9598105Y47970663D01*
X9494176Y48130619D01*
X9290252Y48339857D01*
X9049426Y48505291D01*
X8780953Y48620563D01*
X8686890Y48641476D01*
X8457000Y48520155D01*
X8457000Y46927000D01*
X8477000Y46927000D01*
X8477000Y46673000D01*
X8457000Y46673000D01*
X8457000Y45079845D01*
X8686890Y44958524D01*
X8780953Y44979437D01*
X9049426Y45094709D01*
X9290252Y45260143D01*
X9494176Y45469381D01*
X9598105Y45629338D01*
X9629294Y45570987D01*
X9814866Y45344866D01*
X10040986Y45159294D01*
X10110001Y45122405D01*
X10110001Y44633135D01*
X10080684Y44630248D01*
X9916433Y44580423D01*
X9765058Y44499512D01*
X9676228Y44426611D01*
X9637185Y44474185D01*
X9540494Y44553537D01*
X9430180Y44612502D01*
X9310482Y44648812D01*
X9186000Y44661072D01*
X8996750Y44658000D01*
X8838000Y44499250D01*
X8838000Y43625000D01*
X8858000Y43625000D01*
X8858000Y43371000D01*
X8838000Y43371000D01*
X8838000Y43351000D01*
X8584000Y43351000D01*
X8584000Y43371000D01*
X7759750Y43371000D01*
X7601000Y43212250D01*
X7597928Y42973000D01*
X7610188Y42848518D01*
X7646498Y42728820D01*
X7705463Y42618506D01*
X7765099Y42545839D01*
X7745488Y42521942D01*
X7664577Y42370567D01*
X7614752Y42206316D01*
X7597928Y42035500D01*
X7597928Y41460500D01*
X7614752Y41289684D01*
X7664577Y41125433D01*
X7745488Y40974058D01*
X7854377Y40841377D01*
X7987058Y40732488D01*
X8138433Y40651577D01*
X8302684Y40601752D01*
X8473500Y40584928D01*
X8948500Y40584928D01*
X9119316Y40601752D01*
X9283567Y40651577D01*
X9434942Y40732488D01*
X9567623Y40841377D01*
X9594255Y40873828D01*
X9623659Y40838000D01*
X9523488Y40715942D01*
X9442577Y40564567D01*
X9392752Y40400316D01*
X9375928Y40229500D01*
X9375928Y39654500D01*
X9392752Y39483684D01*
X9442577Y39319433D01*
X9523488Y39168058D01*
X9606425Y39067000D01*
X9523488Y38965942D01*
X9442577Y38814567D01*
X9392752Y38650316D01*
X9375928Y38479500D01*
X9375928Y37904500D01*
X9392752Y37733684D01*
X9442577Y37569433D01*
X9523488Y37418058D01*
X9632377Y37285377D01*
X9765058Y37176488D01*
X9916433Y37095577D01*
X10080684Y37045752D01*
X10251500Y37028928D01*
X10726500Y37028928D01*
X10897316Y37045752D01*
X11061567Y37095577D01*
X11212942Y37176488D01*
X11345623Y37285377D01*
X11454512Y37418058D01*
X11461964Y37432000D01*
X13293199Y37432000D01*
X14012974Y36712224D01*
X13952000Y36651250D01*
X13952000Y35827000D01*
X13972000Y35827000D01*
X13972000Y35573000D01*
X13952000Y35573000D01*
X13952000Y35553000D01*
X13698000Y35553000D01*
X13698000Y35573000D01*
X12823750Y35573000D01*
X12665000Y35414250D01*
X12661928Y35225000D01*
X12674188Y35100518D01*
X12710498Y34980820D01*
X12769463Y34870506D01*
X12778085Y34860000D01*
X9914802Y34860000D01*
X8599802Y36175000D01*
X12661928Y36175000D01*
X12665000Y35985750D01*
X12823750Y35827000D01*
X13698000Y35827000D01*
X13698000Y36651250D01*
X13539250Y36810000D01*
X13300000Y36813072D01*
X13175518Y36800812D01*
X13055820Y36764502D01*
X12945506Y36705537D01*
X12848815Y36626185D01*
X12769463Y36529494D01*
X12710498Y36419180D01*
X12674188Y36299482D01*
X12661928Y36175000D01*
X8599802Y36175000D01*
X8263804Y36510997D01*
X8240001Y36540001D01*
X8124276Y36634974D01*
X7992247Y36705546D01*
X7848986Y36749003D01*
X7737333Y36760000D01*
X7737322Y36760000D01*
X7700000Y36763676D01*
X7662678Y36760000D01*
X5157909Y36760000D01*
X5075799Y36882886D01*
X4882886Y37075799D01*
X4656043Y37227371D01*
X4403989Y37331775D01*
X4136411Y37385000D01*
X3863589Y37385000D01*
X3596011Y37331775D01*
X3343957Y37227371D01*
X3117114Y37075799D01*
X2924201Y36882886D01*
X2772629Y36656043D01*
X2668225Y36403989D01*
X2615000Y36136411D01*
X710000Y36136411D01*
X710000Y38043007D01*
X3222612Y38043007D01*
X3288137Y37804140D01*
X3535116Y37688240D01*
X3799960Y37622750D01*
X4072492Y37610188D01*
X4342238Y37651035D01*
X4598832Y37743723D01*
X4711863Y37804140D01*
X4777388Y38043007D01*
X4000000Y38820395D01*
X3222612Y38043007D01*
X710000Y38043007D01*
X710000Y38927508D01*
X2610188Y38927508D01*
X2651035Y38657762D01*
X2743723Y38401168D01*
X2804140Y38288137D01*
X3043007Y38222612D01*
X3820395Y39000000D01*
X4179605Y39000000D01*
X4956993Y38222612D01*
X5195860Y38288137D01*
X5311760Y38535116D01*
X5377250Y38799960D01*
X5389812Y39072492D01*
X5348965Y39342238D01*
X5256277Y39598832D01*
X5195860Y39711863D01*
X4956993Y39777388D01*
X4179605Y39000000D01*
X3820395Y39000000D01*
X3043007Y39777388D01*
X2804140Y39711863D01*
X2688240Y39464884D01*
X2622750Y39200040D01*
X2610188Y38927508D01*
X710000Y38927508D01*
X710000Y39956993D01*
X3222612Y39956993D01*
X4000000Y39179605D01*
X4777388Y39956993D01*
X4711863Y40195860D01*
X4464884Y40311760D01*
X4200040Y40377250D01*
X3927508Y40389812D01*
X3657762Y40348965D01*
X3401168Y40256277D01*
X3288137Y40195860D01*
X3222612Y39956993D01*
X710000Y39956993D01*
X710000Y44023000D01*
X7597928Y44023000D01*
X7601000Y43783750D01*
X7759750Y43625000D01*
X8584000Y43625000D01*
X8584000Y44499250D01*
X8425250Y44658000D01*
X8236000Y44661072D01*
X8111518Y44648812D01*
X7991820Y44612502D01*
X7881506Y44553537D01*
X7784815Y44474185D01*
X7705463Y44377494D01*
X7646498Y44267180D01*
X7610188Y44147482D01*
X7597928Y44023000D01*
X710000Y44023000D01*
X710000Y46673000D01*
X6845000Y46673000D01*
X6845000Y46273000D01*
X6898310Y45985731D01*
X7006639Y45714382D01*
X7165824Y45469381D01*
X7369748Y45260143D01*
X7610574Y45094709D01*
X7879047Y44979437D01*
X7973110Y44958524D01*
X8203000Y45079845D01*
X8203000Y46673000D01*
X6845000Y46673000D01*
X710000Y46673000D01*
X710000Y47327000D01*
X6845000Y47327000D01*
X6845000Y46927000D01*
X8203000Y46927000D01*
X8203000Y48520155D01*
X7973110Y48641476D01*
X7879047Y48620563D01*
X7610574Y48505291D01*
X7369748Y48339857D01*
X7165824Y48130619D01*
X7006639Y47885618D01*
X6898310Y47614269D01*
X6845000Y47327000D01*
X710000Y47327000D01*
X710000Y49290000D01*
X54290000Y49290000D01*
X54290001Y710000D01*
G36*
X44227000Y18177000D02*
G01*
X44247000Y18177000D01*
X44247000Y17923000D01*
X44227000Y17923000D01*
X44227000Y17903000D01*
X43973000Y17903000D01*
X43973000Y17923000D01*
X43953000Y17923000D01*
X43953000Y18177000D01*
X43973000Y18177000D01*
X43973000Y18197000D01*
X44227000Y18197000D01*
X44227000Y18177000D01*
G37*
X44227000Y18177000D02*
X44247000Y18177000D01*
X44247000Y17923000D01*
X44227000Y17923000D01*
X44227000Y17903000D01*
X43973000Y17903000D01*
X43973000Y17923000D01*
X43953000Y17923000D01*
X43953000Y18177000D01*
X43973000Y18177000D01*
X43973000Y18197000D01*
X44227000Y18197000D01*
X44227000Y18177000D01*
G36*
X41327000Y20477000D02*
G01*
X41347000Y20477000D01*
X41347000Y20223000D01*
X41327000Y20223000D01*
X41327000Y20203000D01*
X41073000Y20203000D01*
X41073000Y20223000D01*
X41053000Y20223000D01*
X41053000Y20477000D01*
X41073000Y20477000D01*
X41073000Y20497000D01*
X41327000Y20497000D01*
X41327000Y20477000D01*
G37*
X41327000Y20477000D02*
X41347000Y20477000D01*
X41347000Y20223000D01*
X41327000Y20223000D01*
X41327000Y20203000D01*
X41073000Y20203000D01*
X41073000Y20223000D01*
X41053000Y20223000D01*
X41053000Y20477000D01*
X41073000Y20477000D01*
X41073000Y20497000D01*
X41327000Y20497000D01*
X41327000Y20477000D01*
G36*
X33793748Y23014142D02*
G01*
X33779605Y23000000D01*
X33793748Y22985857D01*
X33614143Y22806252D01*
X33600000Y22820395D01*
X33585858Y22806252D01*
X33406253Y22985857D01*
X33420395Y23000000D01*
X33406253Y23014142D01*
X33585858Y23193747D01*
X33600000Y23179605D01*
X33614143Y23193747D01*
X33793748Y23014142D01*
G37*
X33793748Y23014142D02*
X33779605Y23000000D01*
X33793748Y22985857D01*
X33614143Y22806252D01*
X33600000Y22820395D01*
X33585858Y22806252D01*
X33406253Y22985857D01*
X33420395Y23000000D01*
X33406253Y23014142D01*
X33585858Y23193747D01*
X33600000Y23179605D01*
X33614143Y23193747D01*
X33793748Y23014142D01*
G36*
X22036205Y33188992D02*
G01*
X22059999Y33159999D01*
X22088992Y33136205D01*
X22088996Y33136201D01*
X22126350Y33105546D01*
X22175724Y33065026D01*
X22307753Y32994454D01*
X22451014Y32950997D01*
X22562667Y32940000D01*
X22562676Y32940000D01*
X22599999Y32936324D01*
X22637322Y32940000D01*
X23645859Y32940000D01*
X25625859Y30960000D01*
X16735856Y30960000D01*
X16721248Y31108316D01*
X16671423Y31272567D01*
X16657152Y31299266D01*
X16694180Y31310498D01*
X16804494Y31369463D01*
X16901185Y31448815D01*
X16980537Y31545506D01*
X17039502Y31655820D01*
X17075812Y31775518D01*
X17088072Y31900000D01*
X17088072Y32900000D01*
X17075812Y33024482D01*
X17039502Y33144180D01*
X16980537Y33254494D01*
X16901185Y33351185D01*
X16804494Y33430537D01*
X16694180Y33489502D01*
X16657152Y33500734D01*
X16671423Y33527433D01*
X16721248Y33691684D01*
X16738072Y33862500D01*
X16738072Y34337500D01*
X16721248Y34508316D01*
X16671423Y34672567D01*
X16590512Y34823942D01*
X16528093Y34900000D01*
X16590512Y34976058D01*
X16671423Y35127433D01*
X16721248Y35291684D01*
X16738072Y35462500D01*
X16738072Y35937500D01*
X16721248Y36108316D01*
X16711637Y36140000D01*
X19085199Y36140000D01*
X22036205Y33188992D01*
G37*
X22036205Y33188992D02*
X22059999Y33159999D01*
X22088992Y33136205D01*
X22088996Y33136201D01*
X22126350Y33105546D01*
X22175724Y33065026D01*
X22307753Y32994454D01*
X22451014Y32950997D01*
X22562667Y32940000D01*
X22562676Y32940000D01*
X22599999Y32936324D01*
X22637322Y32940000D01*
X23645859Y32940000D01*
X25625859Y30960000D01*
X16735856Y30960000D01*
X16721248Y31108316D01*
X16671423Y31272567D01*
X16657152Y31299266D01*
X16694180Y31310498D01*
X16804494Y31369463D01*
X16901185Y31448815D01*
X16980537Y31545506D01*
X17039502Y31655820D01*
X17075812Y31775518D01*
X17088072Y31900000D01*
X17088072Y32900000D01*
X17075812Y33024482D01*
X17039502Y33144180D01*
X16980537Y33254494D01*
X16901185Y33351185D01*
X16804494Y33430537D01*
X16694180Y33489502D01*
X16657152Y33500734D01*
X16671423Y33527433D01*
X16721248Y33691684D01*
X16738072Y33862500D01*
X16738072Y34337500D01*
X16721248Y34508316D01*
X16671423Y34672567D01*
X16590512Y34823942D01*
X16528093Y34900000D01*
X16590512Y34976058D01*
X16671423Y35127433D01*
X16721248Y35291684D01*
X16738072Y35462500D01*
X16738072Y35937500D01*
X16721248Y36108316D01*
X16711637Y36140000D01*
X19085199Y36140000D01*
X22036205Y33188992D01*
M02*
