M48
; DRILL file {KiCad 5.1.6-c6e7f7d~87~ubuntu18.04.1} date Sun Aug 30 23:35:36 2020
; FORMAT={-:-/ absolute / metric / decimal}
; #@! TF.CreationDate,2020-08-30T23:35:36+09:00
; #@! TF.GenerationSoftware,Kicad,Pcbnew,5.1.6-c6e7f7d~87~ubuntu18.04.1
; #@! TF.FileFunction,Plated,1,2,PTH
FMAT,2
METRIC
T1C0.400
T2C1.000
T3C2.000
%
G90
G05
T1
X12.0Y35.7
X12.25Y29.1
X14.6Y17.6
X14.6Y8.8
X14.8Y25.8
X18.6Y13.3
X19.7Y16.8
X21.4Y18.6
X22.4Y14.0
X22.9Y21.975
X24.3Y31.5
X24.6Y27.0
X29.2Y24.0
X29.5Y31.5
X29.5Y22.0
X29.8Y21.0
X29.8Y19.9
X31.0Y10.8
X31.1Y19.5
X31.975Y11.8
X33.025Y11.8
X33.2Y31.5
X33.2Y28.0
X34.0Y10.8
X36.2Y26.4
X36.275Y18.2
X37.0Y10.8
X37.1Y31.5
X37.325Y18.2
X37.65Y19.95
X37.8Y23.1
X39.5Y31.5
X40.0Y10.8
X43.0Y31.5
X46.4Y16.0
T2
X8.33Y46.8
X10.87Y46.8
X13.41Y46.8
X15.95Y46.8
X18.49Y46.8
X21.03Y46.8
X23.57Y46.8
X26.11Y46.8
X28.65Y46.8
X31.19Y46.8
X33.73Y46.8
X36.27Y46.8
X38.81Y46.8
X41.35Y46.8
X43.89Y46.8
X46.43Y46.8
T3
X33.6Y23.0
T0
M30
